<svg width="33" height="33" fill="none" xmlns="http://www.w3.org/2000/svg"><g clip-path="url(#clip0)" fill="#8D9190"><path d="M20.682 25.283a.934.934 0 01-.92-.825.941.941 0 01.804-1.056c2.935-.38 5.564-1.189 7.401-2.277 1.68-.995 2.606-2.165 2.606-3.294 0-1.245-1.083-2.263-1.992-2.898a.954.954 0 01-.238-1.313.92.92 0 011.291-.243c1.83 1.28 2.797 2.82 2.797 4.454 0 1.856-1.22 3.559-3.529 4.926-2.077 1.23-4.879 2.101-8.101 2.518a.973.973 0 01-.119.008zm-4.331-1.353l-2.477-2.518a.918.918 0 00-1.314 0 .955.955 0 000 1.335l.724.736c-2.775-.291-5.296-.948-7.248-1.902-2.195-1.073-3.454-2.44-3.454-3.75 0-1.111.902-2.266 2.538-3.252a.953.953 0 00.326-1.294.92.92 0 00-1.273-.33C1.323 14.67.725 16.553.725 17.83c0 2.095 1.6 4.031 4.506 5.452 2.255 1.102 5.173 1.84 8.351 2.126l-1.022 1.04a.956.956 0 000 1.334.92.92 0 001.314 0l2.477-2.517a.956.956 0 000-1.336z"/><path d="M10.453 15.94v-.227c0-.802-.483-.957-1.13-.957-.4 0-.53-.359-.53-.718s.13-.717.53-.717c.447 0 .918-.06.918-1.029 0-.694-.388-.861-.87-.861-.577 0-.871.144-.871.61 0 .406-.177.682-.86.682-.846 0-.952-.18-.952-.754 0-.933.659-2.14 2.682-2.14 1.495 0 2.624.55 2.624 2.164 0 .873-.317 1.686-.906 1.961.694.264 1.2.79 1.2 1.759v.227c0 1.961-1.33 2.703-2.977 2.703-2.023 0-2.8-1.256-2.8-2.26 0-.539.224-.682.87-.682.754 0 .942.167.942.622 0 .562.518.693 1.047.693.8 0 1.083-.299 1.083-1.076zm8.977-.227v.107c0 2.058-1.259 2.823-2.882 2.823-1.624 0-2.895-.765-2.895-2.823v-3.17c0-2.056 1.306-2.822 3-2.822 1.989 0 2.777 1.256 2.777 2.249 0 .574-.27.753-.859.753-.506 0-.953-.132-.953-.681 0-.455-.47-.694-1.023-.694-.694 0-1.106.37-1.106 1.196v1.076c.376-.418.906-.526 1.47-.526 1.342 0 2.471.598 2.471 2.512zm-3.941.239c0 .825.4 1.184 1.059 1.184.659 0 1.047-.359 1.047-1.184v-.108c0-.873-.389-1.208-1.06-1.208-.635 0-1.046.311-1.046 1.1v.216zm5.365-.132v-3.17c0-2.056 1.259-2.822 2.882-2.822 1.624 0 2.895.766 2.895 2.823v3.17c0 2.057-1.27 2.822-2.895 2.822-1.623 0-2.882-.765-2.882-2.823zm3.941-3.17c0-.824-.4-1.195-1.059-1.195-.659 0-1.047.37-1.047 1.196v3.17c0 .825.389 1.195 1.047 1.195.66 0 1.06-.37 1.06-1.196v-3.17zm4.065-2.83c-1.536 0-2.786-1.27-2.786-2.833 0-1.562 1.25-2.832 2.787-2.832 1.536 0 2.786 1.27 2.786 2.832 0 1.562-1.25 2.833-2.786 2.833zm0-3.777a.938.938 0 00-.928.944c0 .521.416.944.929.944a.938.938 0 00.928-.944.938.938 0 00-.928-.944z"/></g><defs><clipPath id="clip0"><path fill="#fff" transform="translate(.725)" d="M0 0h31.706v32.23H0z"/></clipPath></defs></svg>