<svg version="1.1" id="_x31_" xmlns="http://www.w3.org/2000/svg" x="0" y="0" viewBox="0 0 369 369" xml:space="preserve"><style>.st1,.st2{fill-rule:evenodd;clip-rule:evenodd;fill:#5a5f9b}.st2{fill:#fff}</style><switch><g><circle transform="rotate(-45.001 168.559 196.678)" cx="168.6" cy="196.7" fill-rule="evenodd" clip-rule="evenodd" fill="#bed2eb" r="151.3"/><path class="st1" d="M357.8 286h-64v16.4h-5.7V286h-59.2v16.4h-5.7V286H164v16.4h-5.7V286h-69v16.4h-5.7V286H67.2v-5.7h16.4V29h5.7v251.3h268.5v5.7zm-233.4 34.5c5.8 0 11 2.3 14.8 6.1 3.8 3.8 6.1 9 6.1 14.8 0 5.8-2.3 11-6.1 14.8-3.8 3.8-9 6.1-14.8 6.1-5.8 0-11-2.3-14.8-6.1-3.8-3.8-6.1-9-6.1-14.8 0-5.8 2.3-11 6.1-14.8 3.7-3.8 9-6.1 14.8-6.1zM239.2 22.2l-4 4 13.6 13.6-13.6 13.6 4 4 13.6-13.6 13.6 13.6 4-4-13.6-13.6 13.6-13.6-4-4-13.6 13.6-13.6-13.6zM17.9 101.4l9.6 9.6 9.6-9.6 4 4-9.6 9.6 9.6 9.6-4 4-9.6-9.6-9.6 9.6-4-4 9.6-9.6-9.6-9.6 4-4zm117.3 229.2c-2.8-2.8-6.6-4.5-10.8-4.5s-8.1 1.7-10.8 4.5c-2.8 2.8-4.5 6.6-4.5 10.8 0 4.2 1.7 8.1 4.5 10.8 2.8 2.8 6.6 4.5 10.8 4.5 4.2 0 8.1-1.7 10.8-4.5 2.8-2.8 4.5-6.6 4.5-10.8s-1.7-8-4.5-10.8z"/><circle class="st2" cx="128.7" cy="147.7" r="19.1"/><path class="st2" d="M193.6 106c10.5 0 19.1-8.6 19.1-19.1s-8.6-19.1-19.1-19.1c-10.5 0-19.1 8.6-19.1 19.1s8.6 19.1 19.1 19.1z"/><circle class="st2" cx="258.5" cy="129.3" r="19.1"/><path class="st2" d="M106.1 196h45.2v67.5h-45.2zm64.9-54h45.2v121.5H171zm64.9 26.3h45.2v95.3h-45.2zm64.8-50.6h45.2v145.9h-45.2z"/><circle transform="rotate(-9.213 323.333 78.63)" class="st2" cx="323.4" cy="78.7" r="19.1"/><path class="st1" d="M106.1 193.2h48v73.1h-50.8v-73.1h2.8zm194.6-78.4h48.1v151.5H298V114.9h2.7v-.1zm42.4 5.7h-39.6v140.2h39.6V120.5zm-107.2 44.9h48v100.9H233V165.4h2.9zm42.4 5.7h-39.6v89.6h39.6v-89.6zM171 139.2h48v127.1h-50.8V139.2h2.8zm42.4 5.7h-39.6v115.8h39.6V144.9zm-64.9 54h-39.6v61.8h39.6v-61.8z"/><path d="M128.7 125.8c5 0 9.7 1.7 13.4 4.6l32.5-32.5c-1.9-3.2-3-7-3-11 0-6.1 2.5-11.6 6.4-15.5 4-4 9.5-6.4 15.5-6.4 6.1 0 11.6 2.5 15.5 6.4 4 4 6.4 9.5 6.4 15.5 0 4-1.1 7.7-2.9 11l29.4 17c.3-.3.6-.7 1-1 4-4 9.5-6.4 15.5-6.4 6.1 0 11.6 2.5 15.5 6.4.3.3.5.6.8.8l30.1-24c-2.2-3.4-3.5-7.6-3.5-12 0-6.1 2.5-11.6 6.4-15.5 4-4 9.5-6.4 15.5-6.4 6.1 0 11.6 2.5 15.5 6.4 4 4 6.4 9.5 6.4 15.5 0 6.1-2.5 11.6-6.4 15.5-4 4-9.5 6.4-15.5 6.4-5.7 0-10.8-2.2-14.7-5.7L278 119.3c1.5 3 2.4 6.4 2.4 10 0 6.1-2.5 11.6-6.4 15.5-4 4-9.5 6.4-15.5 6.4-6.1 0-11.6-2.5-15.5-6.4-4-4-6.4-9.5-6.4-15.5 0-3.5.8-6.9 2.3-9.8l-29.7-17.1c-4 4-9.5 6.4-15.5 6.4-6.1 0-11.5-2.5-15.5-6.4l-32 32c2.9 3.7 4.6 8.4 4.6 13.4 0 6.1-2.5 11.6-6.4 15.5s-9.5 6.4-15.5 6.4c-6.1 0-11.6-2.5-15.5-6.4-4-4-6.4-9.5-6.4-15.5 0-6.1 2.5-11.6 6.4-15.5 3.8-4.1 9.3-6.5 15.3-6.5zm206.2-58.7c-2.9-2.9-7-4.8-11.5-4.8s-8.6 1.8-11.5 4.8c-2.9 2.9-4.8 7-4.8 11.5s1.8 8.6 4.8 11.5c2.9 2.9 7 4.8 11.5 4.8s8.6-1.8 11.5-4.8c2.9-2.9 4.8-7 4.8-11.5-.1-4.4-1.9-8.5-4.8-11.5zM270 117.8c-2.9-2.9-7-4.8-11.5-4.8s-8.6 1.8-11.5 4.8c-2.9 2.9-4.8 7-4.8 11.5s1.8 8.6 4.8 11.5c2.9 2.9 7 4.8 11.5 4.8s8.6-1.8 11.5-4.8c2.9-2.9 4.8-7 4.8-11.5s-1.9-8.6-4.8-11.5zm-64.9-42.5c-2.9-2.9-7-4.8-11.5-4.8s-8.6 1.8-11.5 4.8c-2.9 2.9-4.8 7-4.8 11.5s1.8 8.6 4.8 11.5c2.9 2.9 7 4.8 11.5 4.8s8.6-1.8 11.5-4.8c2.9-2.9 4.8-7 4.8-11.5s-1.8-8.5-4.8-11.5zm-64.8 60.9c-2.9-2.9-7-4.8-11.5-4.8s-8.6 1.8-11.5 4.8c-2.9 2.9-4.8 7-4.8 11.5s1.8 8.6 4.8 11.5c2.9 2.9 7 4.8 11.5 4.8s8.6-1.8 11.5-4.8c2.9-2.9 4.8-7 4.8-11.5-.1-4.5-1.9-8.6-4.8-11.5z" fill-rule="evenodd" clip-rule="evenodd" fill="#7f37b9"/></g></switch></svg>