<svg version="1.1" id="_x31_" xmlns="http://www.w3.org/2000/svg" x="0" y="0" viewBox="0 0 369 369" xml:space="preserve"><style>.st1{fill:#fefefe}.st1,.st3,.st4{fill-rule:evenodd;clip-rule:evenodd}.st3{fill:#5a5f9b}.st4{fill:#fff}</style><switch><g><circle transform="rotate(-45.001 179.379 196.678)" cx="179.4" cy="196.7" fill-rule="evenodd" clip-rule="evenodd" fill="#bed2eb" r="151.3"/><path class="st1" d="M233.5 73.3c-19.4-19.5-50.9-19.5-70.3-.1-14.8 14.7-18.4 36.4-10.8 54.5l-5.5 5.5v14.1h-14.1l-.2.2v14.1h-14.1l-.2.2v14.1h-14.1l-.2.2-.1 26.5 26.5.1 48.5-48.3c18.1 7.7 39.8 4.2 54.5-10.6 19.4-19.6 19.5-51 .1-70.5zm-11.1 11.1c7 7.1 7 18.5-.1 25.5s-18.5 7-25.5-.1-7-18.5.1-25.5c7-7 18.4-6.9 25.5.1z"/><path d="M231.5 75.3c-9.1-9.2-21.1-13.8-33.1-13.8s-24 4.5-33.2 13.7c-6.9 6.8-11.2 15.2-12.9 24.1-1.8 9.1-.9 18.6 2.7 27.3l.7 1.7-1.4 1.3-4.7 4.6V150h-14.3v14.3H121v14.3h-14.3v21.1h22.5l47.7-47.5 1.3-1.3 1.7.7c8.6 3.7 18.2 4.6 27.3 2.9 8.8-1.7 17.3-6 24.1-12.8 9.2-9.1 13.8-21.1 13.8-33.1.1-12.1-4.4-24.1-13.6-33.3zm-60.3 71l-44.1 43.9-4-4 44.1-43.9 4 4zm27.2-90.5c13.5 0 26.9 5.2 37.1 15.5 10.2 10.3 15.3 23.7 15.3 37.2 0 13.4-5.2 26.9-15.5 37.1-7.7 7.7-17.1 12.4-27 14.4-9.6 1.9-19.6 1-28.8-2.5l-47.2 47-.8.8h-1.2l-26.5-.1H101v-2.8l.1-26.5v-1.2l.8-.8.2-.2.8-.8h12.5v-12.5l.8-.8.2-.1.8-.8h12.5v-12.5l.8-.8.2-.1.8-.8H144V132l.8-.8 4.2-4.2c-3.5-9.2-4.3-19.2-2.4-28.8 2-9.9 6.8-19.3 14.5-27 10.4-10.3 23.8-15.4 37.3-15.4zm22 30.6c3 3 4.4 6.9 4.4 10.8 0 3.9-1.5 7.8-4.5 10.7-3 3-6.9 4.4-10.8 4.4-3.9 0-7.8-1.5-10.7-4.5-3-3-4.4-6.9-4.4-10.8 0-3.9 1.5-7.8 4.5-10.7 3-3 6.9-4.4 10.8-4.4 3.8 0 7.7 1.5 10.7 4.5zm-10.8-10.1c5.3 0 10.7 2.1 14.7 6.1 4.1 4.1 6.1 9.4 6.1 14.7 0 5.3-2.1 10.7-6.1 14.7-4.1 4.1-9.4 6.1-14.7 6.1-5.3 0-10.7-2.1-14.7-6.1-4.1-4.1-6.1-9.4-6.1-14.7 0-5.3 2.1-10.7 6.1-14.7 4.1-4.1 9.4-6.1 14.7-6.1z" fill-rule="evenodd" clip-rule="evenodd" fill="#7f37b9"/><path class="st3" d="M196.1 90.2c8.6-.3 16.5-3.4 22.8-8.6 7.6-6.2 12.8-15.3 13.9-25.8 1.1-10.5-2.2-20.5-8.4-28.1-6.2-7.6-15.3-12.8-25.8-13.9-10.5-1.1-20.5 2.2-28.1 8.4-7.6 6.2-12.8 15.3-13.9 25.8-.5 5.3 0 10.5 1.5 15.3.8 2.6 1.9 5.2 3.3 7.5l-.3.3c-1.3 1.3-2.6 2.7-3.7 4.1-2-3.2-3.6-6.6-4.7-10.2-1.7-5.4-2.4-11.3-1.8-17.3v-.2c1.2-12.1 7.2-22.5 16-29.6 8.7-7.1 20-10.8 32-9.7h.2c12.1 1.2 22.5 7.2 29.6 16 7.1 8.7 10.9 20.1 9.7 32.2-1.2 12.1-7.2 22.5-16 29.6-7.7 6.3-17.5 10-28 9.9.2-2 .8-3.9 1.7-5.7z"/><path class="st4" d="M85.9 261.7l159.4-75.3c9.8-4.7 21.7-.6 26.5 9.2 4.7 9.8.6 21.7-9.2 26.5l-159.4 75.3c-9.8 4.7-21.7.6-26.5-9.2-4.8-9.8-.6-21.7 9.2-26.5z"/><path class="st3" d="M84.7 259.2l159.4-75.3c5.6-2.7 11.8-2.9 17.3-1s10.2 5.9 12.9 11.5l.3.6c2.4 5.4 2.5 11.4.7 16.7-1.9 5.5-5.9 10.2-11.5 12.9l-159.4 75.3c-5.6 2.7-11.8 2.9-17.3 1s-10.2-5.9-12.9-11.5l-.3-.6c-2.4-5.4-2.5-11.4-.7-16.7 1.9-5.5 5.9-10.2 11.5-12.9zM246.5 189L87.1 264.3c-4.2 2-7.2 5.6-8.6 9.7-1.4 4.1-1.3 8.8.7 13 2 4.2 5.6 7.2 9.7 8.6 4.1 1.4 8.8 1.3 13-.7l159.4-75.3c4.2-2 7.2-5.6 8.6-9.7 1.4-4.1 1.3-8.8-.7-13-2-4.2-5.6-7.2-9.7-8.6-4.1-1.5-8.8-1.4-13 .7z"/><path class="st4" d="M114.1 269.5l163.2-77.1c10-4.9 22.2-.6 27.1 9.4 4.9 10 .6 22.2-9.4 27.1L131.7 306c-10 4.9-22.2.6-27.1-9.4-4.8-10.1-.6-22.3 9.5-27.1z"/><path class="st3" d="M112.9 266.9L276 189.8c5.7-2.8 12-2.9 17.6-1 5.6 1.9 10.4 6 13.2 11.7l.3.6c2.5 5.6 2.6 11.6.7 17-1.9 5.6-6 10.4-11.7 13.2l-.6.3-162.6 76.8c-5.7 2.8-12 2.9-17.6 1-5.4-1.9-10.2-5.8-13-11.3l-.5-.5v-.6c-2.5-5.6-2.6-11.6-.7-17 2-5.4 6-10.3 11.8-13.1zm165.6-72L115.3 272c-4.3 2.1-7.4 5.8-8.8 10-1.5 4.2-1.3 9 .7 13.3 2.1 4.3 5.8 7.4 10 8.9 4.1 1.4 8.8 1.3 13-.6l.3-.2 163.2-77.1c4.3-2.1 7.4-5.7 8.8-10 1.5-4.2 1.3-9-.7-13.3-2.1-4.3-5.7-7.4-10-8.8-4.2-1.5-9-1.4-13.3.7zM107.2 295.3zm0 0z"/><path class="st4" d="M145 280.1l165-77.9c10.2-4.9 22.5-.6 27.4 9.5 4.9 10.2.6 22.5-9.5 27.4l-165 77.9c-10.2 4.9-22.5.6-27.4-9.5-5-10.2-.7-22.5 9.5-27.4z"/><path class="st3" d="M143.7 277.6l165-77.9c5.8-2.8 12.2-3 17.8-1 5.6 2 10.5 6.1 13.3 11.9l.3.6c2.5 5.6 2.6 11.8.7 17.2-2 5.6-6.1 10.5-11.9 13.3l-.6.3L164 319.6c-5.8 2.8-12.2 3-17.8 1-5.6-2-10.5-6.1-13.3-11.9l-.3-.6c-2.5-5.6-2.6-11.8-.7-17.2 1.9-5.6 6-10.5 11.8-13.3zm167.4-72.9l-165 77.9c-4.4 2.1-7.5 5.8-9 10.1s-1.4 9.1.8 13.5c2.1 4.4 5.8 7.5 10.1 9s9.1 1.4 13.5-.8l165-77.9c4.4-2.1 7.5-5.8 8.9-10.1 1.5-4.3 1.4-9.1-.8-13.5-2.1-4.4-5.8-7.5-10.1-8.9-4.1-1.5-9-1.4-13.4.7z"/><path class="st1" d="M140.6 257.3l86.4 11.5 107.1-51.5c9.9-4.7 23.8.8 27.7 11.4 4.8 13.4-2.8 23.6-10.9 27.3l-124.6 56c-25.5 11.5-49.9 15.2-75.6 15.3l-128.3.4-.2-38.9c-.1-28.2 21.4-74.7 75-74.8l169.9-.2.1 9.2c.1 13.3-8.1 27.4-25.2 28.4l-101.4 5.9z"/><path class="st3" d="M170.4 258.4l56.2 7.5 106.3-51.1c.6-.3 1.2-.5 1.8-.7 5.3-1.9 11.3-1.5 16.6.6 5.3 2.2 9.9 6.1 12.4 11.3.3.6.6 1.2.8 1.8 2.4 6.7 2 12.8 0 17.8-2.5 6.2-7.4 10.7-12.4 13l-124.6 56c-13 5.8-25.7 9.7-38.4 12.1-12.7 2.4-25.3 3.4-38.4 3.4l-128.3.4h-2.8v-2.8l-.2-38.9v-.2c0-14.6 5.5-33.9 18-49.5 12.5-15.7 31.9-27.7 59.4-27.9h.4l169.9-.2h2.8v2.8l.1 9.2c.1 7.8-2.5 15.9-7.8 21.9-4.6 5.2-11.3 8.9-20.1 9.4l-71.7 4.1zm56.3 13.2l-86.4-11.5-29.4-3.9 29.6-1.7 101.3-5.9c7.1-.4 12.4-3.3 16.1-7.5 4.4-4.9 6.5-11.6 6.4-18.1l-.1-6.4-167.1.2h-.4c-25.6.1-43.5 11.3-55 25.8-11.6 14.6-16.8 32.4-16.7 46v.2l.2 36.1 125.5-.4c12.7 0 25-1 37.3-3.3 12.3-2.3 24.5-6.1 37.1-11.7l124.6-56c3.9-1.7 7.6-5.2 9.5-9.9 1.5-3.8 1.8-8.5-.1-13.8-.2-.5-.4-.9-.5-1.3-1.9-3.9-5.4-6.8-9.5-8.5-4.1-1.7-8.6-2-12.6-.6-.4.2-.9.3-1.3.5l-107.1 51.5-.8.4-.6-.2zM312.6 133l9.6 9.6 9.6-9.6 4 4-9.6 9.6 9.6 9.6-4 4-9.6-9.6-9.6 9.6-4-4 9.6-9.6-9.6-9.6 4-4zM96.5 18.7l13.6 13.6 13.6-13.6 4 4-13.6 13.6 13.6 13.6-4 4-13.6-13.6-13.6 13.5-4-4L106 36.3 92.5 22.7l4-4zM35.6 146.6c6.5 0 12.5 2.7 16.8 6.9 4.3 4.3 6.9 10.2 6.9 16.8 0 6.5-2.7 12.5-6.9 16.8-4.3 4.3-10.2 6.9-16.8 6.9-6.5 0-12.5-2.7-16.8-6.9-4.3-4.3-6.9-10.2-6.9-16.8 0-6.5 2.7-12.5 6.9-16.8 4.3-4.3 10.2-6.9 16.8-6.9zm12.7 10.9c-3.3-3.3-7.8-5.3-12.8-5.3-5 0-9.5 2-12.8 5.3-3.3 3.3-5.3 7.8-5.3 12.8 0 5 2 9.5 5.3 12.8 3.3 3.3 7.8 5.3 12.8 5.3 5 0 9.5-2 12.8-5.3 3.3-3.3 5.3-7.8 5.3-12.8 0-5-2-9.5-5.3-12.8z"/></g></switch></svg>