<svg version="1.1" id="_x31_" xmlns="http://www.w3.org/2000/svg" x="0" y="0" viewBox="0 0 369 369" xml:space="preserve"><style>.st0{fill:#bed2eb}.st0,.st1,.st2{fill-rule:evenodd;clip-rule:evenodd}.st1{fill:#fff}.st2{fill:#5a5f9b}</style><switch><g><circle transform="rotate(-45.001 155.699 196.678)" class="st0" cx="155.7" cy="196.7" r="151.3"/><path class="st1" d="M241.2 126.3h102.7c11.3 0 20.5 9.2 20.5 20.5s-9.2 20.5-20.5 20.5H241.2c-11.3 0-20.5-9.2-20.5-20.5-.1-11.2 9.2-20.5 20.5-20.5z"/><path class="st2" d="M241.2 123.5h102.7c6.4 0 12.3 2.6 16.5 6.9 4.2 4.2 6.9 10.1 6.9 16.5s-2.6 12.3-6.9 16.5c-4.2 4.2-10.1 6.9-16.5 6.9H241.2c-6.4 0-12.3-2.6-16.5-6.9-4.2-4.2-6.9-10.1-6.9-16.5s2.6-12.3 6.9-16.5c4.2-4.3 10-6.9 16.5-6.9zm102.7 5.7H241.2c-4.9 0-9.3 2-12.5 5.2-3.2 3.2-5.2 7.6-5.2 12.5s2 9.3 5.2 12.5c3.2 3.2 7.6 5.2 12.5 5.2h102.7c4.9 0 9.3-2 12.5-5.2 3.2-3.2 5.2-7.6 5.2-12.5s-2-9.3-5.2-12.5c-3.2-3.2-7.6-5.2-12.5-5.2z"/><path class="st1" d="M166.5 107.9c-9.1 6.7-11 19.7-4.3 28.7 6.7 9.1 19.7 11 28.7 4.3l13.6-10.1c1 .1 2 .2 3 .2l42.5-4.8h5.8v10c7.4 14.4 11.5 30.8 11.5 48.1s-4.2 33.7-11.5 48.1L225 290.2h-63.3c-88.9 0-131.1-127.5-50.1-189.6l93.3-72 12.2 16.5c6.7 9.1 3.3 23.1-5.7 29.8l-44.9 33z"/><path class="st2" d="M168.1 110.3c-3.8 2.9-6.2 7.1-6.8 11.5-.7 4.5.4 9.3 3.3 13.2l.1.1v.1c2.9 3.8 7.1 6.1 11.5 6.8 4.5.7 9.3-.4 13.2-3.3l.8-.6 12.8-9.5.9-.7 1.1.2c.4.1.9.1 1.3.1h1.2l42.3-4.7h8.9v12.1c3.7 7.3 6.6 15.1 8.5 23.3 2 8.2 3 16.7 3 25.4s-1 17.2-3 25.4c-2 8.4-5 16.4-8.9 23.9l-30.9 57.7-.8 1.5h-64.9c-22.2 0-41.5-7.7-57-20.2-15.6-12.7-27.2-30.4-33.6-50.2-6.4-19.7-7.5-41.5-2.4-62.5 5.6-22.9 18.8-44.7 41-61.7L203 26.3l2.3-1.8 1.7 2.3 12.2 16.5c3.8 5.1 4.8 11.5 3.6 17.7-1.2 6.3-4.8 12.3-10 16.1l-44.7 33.2zm-3.1-4.7l44.7-32.9c4.1-3 6.8-7.7 7.8-12.7.9-4.6.2-9.5-2.6-13.2l-10.5-14.2-91 70.2c-21.1 16.2-33.6 36.9-39 58.6-4.9 19.9-3.8 40.7 2.3 59.4 6 18.7 17 35.5 31.7 47.5 14.5 11.8 32.6 19 53.4 19h61.6l30.1-56.2c3.6-7.1 6.5-14.7 8.4-22.6 1.8-7.7 2.8-15.8 2.8-24.1s-1-16.4-2.8-24.1c-1.9-8-4.7-15.6-8.4-22.7l-.5-.6v-7.9h-2.9l-42.3 4.7h-.3c-.5 0-1.1 0-1.7-.1h-.5l-12.7 9.4-.8.6c-5 3.4-10.9 4.6-16.5 3.8-5.9-.9-11.5-4-15.4-9.2l-.1-.1-.5-.6c-3.4-5-4.6-10.9-3.8-16.5.9-5.9 4-11.5 9.2-15.4l.3-.1z"/><circle transform="rotate(-18.377 210.72 205.568)" class="st1" cx="210.7" cy="205.5" r="94.2"/><circle transform="rotate(-13.22 210.712 205.53)" class="st0" cx="210.7" cy="205.5" r="77.2"/><path class="st2" d="M213.5 108.5c15.6.4 30.3 4.6 43.2 11.6l6-10.5-5.8-3.3 2.8-4.9 16.4 9.5-2.8 4.9-5.8-3.3-6.1 10.5c6.4 4 12.3 8.7 17.7 14 17.6 17.6 28.4 41.8 28.4 68.6 0 26.8-10.9 51.1-28.4 68.6-17.6 17.6-41.8 28.4-68.6 28.4-26.8 0-51.1-10.9-68.6-28.4-17.6-17.6-28.4-41.8-28.4-68.6 0-26.8 10.9-51.1 28.4-68.6 16.9-16.9 40.1-27.6 65.8-28.4V96.4h-13.6v-5.7h32.8v5.7h-13.6v12.1h.2zm-39.8 138.1l-4-4-12.5 12.5 4 4 12.5-12.5zm39.8 14.1h-5.7v17.7h5.7v-17.7zm-5.6-110.3h5.7v-17.7h-5.7v17.7zm-38.2 18.1l4-4-12.5-12.5-4 4 12.5 12.5zm-14.2 39.9v-5.7h-17.7v5.7h17.7zm119.8-67.5c-16.5-16.5-39.4-26.8-64.6-26.8-25.2 0-48.1 10.2-64.6 26.8-16.5 16.5-26.8 39.4-26.8 64.6 0 25.2 10.2 48.1 26.8 64.6 16.5 16.5 39.4 26.8 64.6 26.8 25.2 0 48.1-10.2 64.6-26.8 16.5-16.5 26.8-39.4 26.8-64.6 0-25.2-10.2-48-26.8-64.6z"/><path class="st1" d="M279.3 167.4h28.6c11.3 0 20.5 9.2 20.5 20.5s-9.2 20.5-20.5 20.5h-28.6c-11.3 0-20.5-9.2-20.5-20.5-.1-11.2 9.2-20.5 20.5-20.5z"/><path class="st2" d="M279.3 164.6h28.6c6.4 0 12.3 2.6 16.5 6.9 4.2 4.2 6.9 10.1 6.9 16.5s-2.6 12.3-6.9 16.5c-4.2 4.2-10.1 6.9-16.5 6.9h-28.6c-6.4 0-12.3-2.6-16.5-6.9-4.2-4.2-6.9-10.1-6.9-16.5s2.6-12.3 6.9-16.5c4.2-4.3 10-6.9 16.5-6.9zm28.6 5.7h-28.6c-4.9 0-9.3 2-12.5 5.2-3.2 3.2-5.2 7.6-5.2 12.5s2 9.3 5.2 12.5c3.2 3.2 7.6 5.2 12.5 5.2h28.6c4.9 0 9.3-2 12.5-5.2 3.2-3.2 5.2-7.6 5.2-12.5s-2-9.3-5.2-12.5c-3.2-3.2-7.6-5.2-12.5-5.2z"/><path class="st1" d="M279.3 208.5h28.6c11.3 0 20.5 9.2 20.5 20.5s-9.2 20.5-20.5 20.5h-28.6c-11.3 0-20.5-9.2-20.5-20.5-.1-11.2 9.2-20.5 20.5-20.5z"/><path class="st2" d="M279.3 205.7h28.6c6.4 0 12.3 2.6 16.5 6.9 4.2 4.2 6.9 10.1 6.9 16.5s-2.6 12.3-6.9 16.5c-4.2 4.2-10.1 6.9-16.5 6.9h-28.6c-6.4 0-12.3-2.6-16.5-6.9-4.2-4.2-6.9-10.1-6.9-16.5s2.6-12.3 6.9-16.5c4.2-4.3 10-6.9 16.5-6.9zm28.6 5.7h-28.6c-4.9 0-9.3 2-12.5 5.2-3.2 3.2-5.2 7.6-5.2 12.5s2 9.3 5.2 12.5c3.2 3.2 7.6 5.2 12.5 5.2h28.6c4.9 0 9.3-2 12.5-5.2 3.2-3.2 5.2-7.6 5.2-12.5s-2-9.3-5.2-12.5c-3.2-3.2-7.6-5.2-12.5-5.2z"/><path class="st1" d="M253.1 249.6h27.3c10.8 0 19.6 8.8 19.6 19.6s-8.8 19.6-19.6 19.6h-27.3c-10.8 0-19.6-8.8-19.6-19.6s8.8-19.6 19.6-19.6z"/><path class="st2" d="M253.1 246.8h27.3c6.2 0 11.8 2.5 15.8 6.6 4.1 4.1 6.6 9.7 6.6 15.8 0 6.2-2.5 11.8-6.6 15.8-4.1 4.1-9.7 6.6-15.8 6.6h-27.3c-6.2 0-11.8-2.5-15.8-6.6-4.1-4.1-6.6-9.7-6.6-15.8 0-6.2 2.5-11.8 6.6-15.8 4-4.1 9.6-6.6 15.8-6.6zm27.3 5.7h-27.3c-4.6 0-8.8 1.9-11.8 4.9-3 3-4.9 7.2-4.9 11.8 0 4.6 1.9 8.8 4.9 11.8 3 3 7.2 4.9 11.8 4.9h27.3c4.6 0 8.8-1.9 11.8-4.9 3-3 4.9-7.2 4.9-11.8 0-4.6-1.9-8.8-4.9-11.8-3-3-7.2-4.9-11.8-4.9z"/><path d="M210.7 222.1c9.1 0 16.6-7.4 16.6-16.6 0-9.1-7.4-16.6-16.6-16.6-9.1 0-16.6 7.4-16.6 16.6 0 9.2 7.5 16.6 16.6 16.6z" fill-rule="evenodd" clip-rule="evenodd" fill="#fefefe"/><path class="st2" d="M72.1 40.2c6.5 0 12.5 2.7 16.8 6.9 4.3 4.3 6.9 10.2 6.9 16.8 0 6.5-2.7 12.5-6.9 16.8-4.3 4.3-10.2 6.9-16.8 6.9-6.5 0-12.5-2.7-16.8-6.9-4.3-4.3-6.9-10.2-6.9-16.8 0-6.5 2.7-12.5 6.9-16.8 4.3-4.3 10.2-6.9 16.8-6.9zM162 333.6l9.6 9.6 9.6-9.6 4 4-9.6 9.6 9.6 9.6-4 4-9.6-9.6-9.6 9.6-4-4 9.6-9.6-9.6-9.6 4-4zM230.7 4.2l9.6 9.6 9.6-9.6 4 4-9.6 9.6 9.6 9.6-4 4-9.6-9.6-9.6 9.6-4-4 9.6-9.6-9.6-9.6 4-4zm68 50.9c5.3 0 10.1 2.1 13.5 5.6 3.5 3.5 5.6 8.2 5.6 13.5 0 5.3-2.1 10.1-5.6 13.5-3.5 3.5-8.2 5.6-13.5 5.6-5.3 0-10.1-2.1-13.5-5.6-3.5-3.5-5.6-8.2-5.6-13.5 0-5.3 2.1-10.1 5.6-13.5 3.4-3.5 8.2-5.6 13.5-5.6zm9.5 9.6c-2.4-2.4-5.8-3.9-9.5-3.9s-7.1 1.5-9.5 3.9c-2.4 2.4-3.9 5.8-3.9 9.5s1.5 7.1 3.9 9.5c2.4 2.4 5.8 3.9 9.5 3.9s7.1-1.5 9.5-3.9c2.4-2.4 3.9-5.8 3.9-9.5s-1.5-7.1-3.9-9.5zM84.8 51.1c-3.3-3.3-7.8-5.3-12.8-5.3-5 0-9.5 2-12.8 5.3C56 54.4 54 58.9 54 63.9c0 5 2 9.5 5.3 12.8C62.6 80 67.1 82 72.1 82c5 0 9.5-2 12.8-5.3 3.3-3.3 5.3-7.8 5.3-12.8-.1-5-2.1-9.5-5.4-12.8z"/><path d="M249.2 144.6l-26.4 45.8c.6.5 1.1 1 1.7 1.5 3.5 3.5 5.7 8.4 5.7 13.7 0 5.4-2.2 10.2-5.7 13.7s-8.4 5.7-13.7 5.7c-2.5 0-4.9-.5-7.2-1.4l-6.3 10.9-4.9-2.8 6.3-10.9c-.6-.5-1.1-1-1.7-1.5-3.5-3.5-5.7-8.4-5.7-13.7 0-5.4 2.2-10.2 5.7-13.7s8.4-5.7 13.7-5.7c2.5 0 4.9.5 7.2 1.4l26.4-45.8 4.9 2.8zm-28.8 51.2c-2.5-2.5-5.9-4-9.7-4-3.8 0-7.2 1.5-9.7 4-2.5 2.5-4 5.9-4 9.7 0 3.8 1.5 7.2 4 9.7 2.5 2.5 5.9 4 9.7 4 3.8 0 7.2-1.5 9.7-4 2.5-2.5 4-5.9 4-9.7 0-3.8-1.5-7.2-4-9.7z" fill-rule="evenodd" clip-rule="evenodd" fill="#7f37b9"/></g></switch></svg>