<svg version="1.0" xmlns="http://www.w3.org/2000/svg" width="333.333" height="333.333" viewBox="0 0 250 250"><path d="M108.5 1.1C60.6 7.7 21.1 40.8 6.1 87 3 96.5 2.6 98.3 1.2 107.5-.1 116.8.5 140 2.4 149c4.5 21.7 13.9 40.9 28 57.5 2.8 3.3 6.5 7.2 8.1 8.6 1.7 1.5 4.5 4.1 6.4 5.8 4.4 3.9 14.9 11 22.1 14.9 8 4.2 26 10.6 33.4 11.8 2.1.3 4.8.8 6 1.1 3.7.8 30.7 1.1 34.5.2 2-.4 5.7-1 8.3-1.3 17.9-2.3 44.5-15.9 60.9-31.1 17.9-16.6 32.9-42.9 37-64.8.5-2.9 1.2-6.3 1.5-7.7 1-4.5 1.2-28.3.3-35.5-.8-5.8-1.8-10.5-4.3-20-.3-1.1-.8-2.3-3.9-10.5-7.2-19.1-23.3-39.8-41.5-53.5-11.2-8.4-30.6-17.9-40.9-20-3.8-.8-5.8-1.3-5.8-1.5 0-.1-1.1-.3-2.5-.5s-3.8-.6-5.5-1c-4.7-1-29.4-1.3-36-.4z"/></svg>