<svg width="20" height="20" fill="none" xmlns="http://www.w3.org/2000/svg"><circle cx="10.909" cy="10.909" r="7.273" fill="#fff"/><path d="M1.737 5.006c.309-.43.595-.876.943-1.28a9.729 9.729 0 012.167-1.883A9.55 9.55 0 0111.14.384a9.452 9.452 0 012.828.77c.545.245 1.058.548 1.56.876 1.014.66 1.826 1.52 2.504 2.503.725 1.05 1.196 2.217 1.454 3.47.181.879.258 1.766.18 2.66-.096 1.1-.34 2.163-.797 3.184a9.74 9.74 0 01-1.475 2.372 9.53 9.53 0 01-2.046 1.818 9.242 9.242 0 01-1.657.88c-.971.38-1.978.638-3.032.684-.741.032-1.48.019-2.21-.11a10.384 10.384 0 01-1.843-.5 9.175 9.175 0 01-1.669-.806 9.83 9.83 0 01-2.03-1.707 9.587 9.587 0 01-1.63-2.454 9.762 9.762 0 01-.895-4.017c-.006-.527.054-1.05.124-1.571.006-.037 0-.076 0-.114.061-.038.056-.105.067-.163.156-.82.42-1.602.777-2.356.126-.267.3-.51.386-.797zm11.27 5.175c.26-.14.51-.219.706-.394.756-.676.958-2.267-.27-3.034-.383-.239-.791-.415-1.231-.596.073-.59.308-1.14.385-1.744-.363-.09-.703-.21-1.057-.248l-.427 1.674c-.271-.083-.55-.076-.806-.22.092-.575.311-1.114.37-1.692-.372-.058-.688-.204-1.05-.22l-.423 1.69c-.718-.11-1.377-.358-2.101-.49-.16.356-.23.732-.293 1.132l.646.153c.519.12.66.403.538.857-.088.322-.167.647-.248.972-.29 1.166-.577 2.333-.869 3.499-.065.263-.229.348-.495.31-.263-.04-.51-.157-.8-.149-.126.402-.375.755-.464 1.198l2.054.524c-.052.608-.304 1.165-.379 1.777l1.022.245c.226-.562.278-1.152.489-1.733.254.13.536.093.784.257l-.407 1.683c.36.129.71.181 1.07.27l.424-1.695a.276.276 0 01.205-.023c.565.121 1.136.15 1.707.086.495-.055.934-.243 1.286-.615.392-.413.589-.918.684-1.461.077-.443.057-.891-.203-1.283-.204-.307-.483-.541-.848-.73zm-4.082 2.306c.697.173 1.392.358 2.12.225.39-.071.682-.27.8-.66.111-.369.047-.704-.227-.995-.284-.303-.65-.461-1.027-.593-.45-.157-.907-.3-1.4-.339l-.558 2.272c.119.037.204.068.292.09zm2.46-3.213c.385-.055.705-.31.798-.656.115-.423-.013-.794-.356-1.047-.388-.286-.836-.432-1.299-.533-.172-.038-.341-.139-.55-.07l-.504 2.048c.659.166 1.265.35 1.911.258z" fill="#F39321"/></svg>