<svg xmlns="http://www.w3.org/2000/svg" viewBox="0 0 373.2 373.2"><path d="M187.5 0c-.1.1-.3.1-.6.1C85.7.1 3.4 82.4 3.4 183.6c0 41.3 14.1 81.4 39.9 113.7l-26.7 62c-2.2 5.1.2 11 5.2 13.1 1.8.8 3.8 1 5.7.7l97.9-17.2c19.6 7.1 40.2 10.7 61 10.6 101.2 0 183.5-82.3 183.5-183.5C370.1 82.1 288.4.1 187.5 0zm-1 346.6c-19.3 0-38.4-3.5-56.5-10.3-1.7-.7-3.5-.8-5.3-.5l-82.4 14.4 21.8-50.7c1.5-3.5.9-7.6-1.6-10.5-11.8-13.7-21.2-29.3-27.8-46.2-7.4-18.9-11.2-39-11.2-59.3C23.5 93.3 96.9 20 187 20c89.9-.2 162.9 72.5 163 162.4v.6c0 90.3-73.4 163.6-163.5 163.6z" fill="#fff"/></svg>