<svg xmlns="http://www.w3.org/2000/svg" width="24" height="24"><path d="M16.992 7.688v-.047L12 .75 7.008 7.641 4.57 18.821l7.43 4.43 7.43-4.453zm-3.797 10.804h-2.367L8.859 12.07l3.188-5.625 3.188 5.625zm2.297-5.883l3.328 5.883h-5.18l1.852-5.883zm-2.437 6.282L12 22.243l-1.055-3.352h2.109zm-2.696-.399h-5.18l3.328-5.883zM12.234 5.93V1.805l4.313 5.953-1.172 3.727zm-.468 0l-3.141 5.555-1.172-3.727 4.313-5.953V5.93zM8.32 12l-3 5.297 1.922-8.719L8.32 12zm2.18 6.891l1.125 3.609-6-3.609H10.5zm3 0h4.875l-6 3.609zm5.133-1.594l-3-5.297 1.102-3.422 1.898 8.719z" fill="#fff"/></svg>