<svg xmlns="http://www.w3.org/2000/svg" width="1025.219" height="612.25"><g fill-rule="evenodd"><path d="M307.906 0C137.844 0 0 137.055 0 306.125S137.844 612.25 307.906 612.25c78.576 0 150.282-29.28 204.688-77.438a305.142 305.142 0 0012.625-11.843 310.78 310.78 0 004.062-4.094h-33.375a308.028 308.028 0 01-16.844-18.813h67.032a309.104 309.104 0 0013.625-17.78h-94.25a306.34 306.34 0 01-14.844-23.063 304.02 304.02 0 01-16.125-31.844 302.194 302.194 0 01-3.781-9.094 303.959 303.959 0 01-3.469-9.219 302.565 302.565 0 01-6.094-18.812h182.906a302.983 302.983 0 004.625-18.281H416.531a303.443 303.443 0 01-4.781-27.688c-.12-.963-.232-1.94-.344-2.906.114.974.22 1.935.344 2.906.377 2.967.793 5.93 1.25 8.875h199.219a303.808 303.808 0 002.25-17.812H410.75a307.774 307.774 0 01-1.313-24c-.029-1.738-.062-3.474-.062-5.219 0 1.747.03 3.48.063 5.219.032 1.739.066 3.485.125 5.219h206.093c.052-1.547.094-3.106.125-4.657.003-.187-.003-.375 0-.562.001-.063 0-.125 0-.188.03-1.677.063-3.346.063-5.031a307.734 307.734 0 00-2.563-39.406H411.937a309.474 309.474 0 00-1.906 19.531c-.108 1.643-.2 3.288-.281 4.938-.068 1.37-.138 2.75-.188 4.125.049-1.378.122-2.752.188-4.125.08-1.651.175-3.294.281-4.938a303.966 303.966 0 019.063-56.625 302.049 302.049 0 015.531-18.813h175.969c-1.922-5.833-3.992-11.608-6.25-17.28H430.875a302.638 302.638 0 0110.719-23.845 311.418 311.418 0 00-2.469 5.032h146.969a313.206 313.206 0 00-3.375-6.813c-.546-1.069-1.068-2.125-1.625-3.187-.143-.273-.294-.54-.438-.813-.165-.312-.333-.625-.5-.937a298.304 298.304 0 00-2.5-4.625c-.645-1.162-1.308-2.317-1.968-3.469H449.53a306.042 306.042 0 0114.656-23.094c.985-1.41 1.993-2.826 3-4.219a305.73 305.73 0 016.188-8.28 308.85 308.85 0 0115.813-18.782H536a313.14 313.14 0 00-5.625-6 307.702 307.702 0 00-17.781-17.063C458.188 29.28 386.482 0 307.906 0zm165.469 119.281a297.138 297.138 0 00-6.188 8.281 312.105 312.105 0 00-5.937 8.5h102.688a307.377 307.377 0 00-12.125-16.78h-78.438zm-54.281 110.344a304.406 304.406 0 00-4.125 18.281H610.25a304.417 304.417 0 00-4.125-18.281H419.094zm8.156 179.438c1.113 3.1 2.26 6.166 3.469 9.218a301.544 301.544 0 003.781 9.094h156.219a303.004 303.004 0 007.25-18.313H427.25zm23.375 50.156c.83 1.426 1.68 2.838 2.531 4.25h118.906a305.253 305.253 0 009.688-17.281H443.469a302.878 302.878 0 007.156 13.03zM540.5 105.53zm26.281 34.781c.595.915 1.197 1.829 1.782 2.75-.587-.924-1.186-1.832-1.782-2.75zm4.25 6.75zm16.938 31.625zM579 451.408c-.359.66-.73 1.31-1.094 1.968.363-.656.736-1.31 1.094-1.969zm-10.625 18.03c-.53.834-1.056 1.673-1.594 2.5.538-.828 1.064-1.666 1.594-2.5zm-25.656 34.72zm-4.844 5.53zm-6.031 6.563c-.681.717-1.375 1.415-2.063 2.125.687-.71 1.382-1.409 2.063-2.125z" fill="#ff0018"/><path d="M717.313 0C638.736 0 567.03 29.28 512.625 77.438 520.83 84.7 528.618 92.412 536 100.5h-46.813a308.285 308.285 0 00-15.78 18.781h78.406a307.377 307.377 0 0112.125 16.781H461.25a306.017 306.017 0 00-11.719 18.813h126.156a304.224 304.224 0 0110.407 19.844H439.125a303.686 303.686 0 00-8.25 18.812h163.469c2.258 5.673 4.328 11.448 6.25 17.281H424.625a302.572 302.572 0 00-9.656 37.094 304.406 304.406 0 014.125-18.281h187.031a304.417 304.417 0 014.125 18.281H414.969a303.466 303.466 0 00-3.625 23.656c.184-1.62.384-3.231.594-4.843H613.28a306.247 306.247 0 012.563 39.406c0 3.495-.07 6.97-.188 10.438H409.563a306.02 306.02 0 001.218 18.78H614.47a303.808 303.808 0 01-2.25 17.813H413a302.554 302.554 0 003.531 18.813h192.156a302.983 302.983 0 01-4.625 18.281H421.156a302.042 302.042 0 006.094 18.813h170.719a303.004 303.004 0 01-7.25 18.312H434.5a304.423 304.423 0 0018.656 36.094 305.56 305.56 0 01-9.687-17.281H581.75a305.253 305.253 0 01-9.688 17.28H453.156a306.662 306.662 0 0012.313 18.813h94.25a309.104 309.104 0 01-13.625 17.781h-67.032a308.76 308.76 0 0016.844 18.813h33.375a306.476 306.476 0 01-16.656 15.938c54.405 48.157 126.112 77.437 204.688 77.437 170.062 0 307.906-137.055 307.906-306.125S887.375 0 717.312 0zM465.469 482.281zM434.5 427.375zm-24.938-110.813zm-.125-5.218c-.032-1.74-.062-3.472-.062-5.219 0 1.747.033 3.478.063 5.219zm1.907-39.781zm-.938 9.78zm14.219-70.53zm6.25-17.282c-.462 1.16-.896 2.333-1.344 3.5.446-1.166.883-2.341 1.344-3.5zm30.375-57.469zm2.938-4.28zm-20.032 32.905c-.787 1.5-1.55 3.017-2.312 4.532a308.368 308.368 0 012.312-4.531zM429 198.407zm-19.25 92.78c-.076 1.573-.167 3.14-.219 4.72.054-1.574.142-3.153.219-4.72zm2 53.094c.119.95.248 1.897.375 2.844-.13-.948-.254-1.893-.375-2.844zm4.813 27.844zm2.156 9.031c.37 1.46.734 2.924 1.125 4.375-.39-1.451-.756-2.914-1.125-4.375zM496.28 519.25z" fill="#ffaa18"/></g><path d="M991.343 480.969c2.434 0 4.833.625 7.146 1.896 2.333 1.23 4.147 3.039 5.448 5.382 1.306 2.328 1.947 4.752 1.947 7.288 0 2.506-.64 4.925-1.927 7.237-1.275 2.313-3.07 4.127-5.382 5.403-2.307 1.27-4.726 1.91-7.237 1.91-2.531 0-4.95-.64-7.263-1.91-2.307-1.286-4.096-3.09-5.377-5.403-1.301-2.312-1.936-4.731-1.936-7.237 0-2.536.645-4.96 1.951-7.288 1.312-2.343 3.131-4.142 5.454-5.382 2.343-1.271 4.742-1.896 7.176-1.896m0 2.399c-2.038 0-4.03.528-5.977 1.59-1.941 1.037-3.45 2.537-4.544 4.499-1.087 1.936-1.636 3.964-1.636 6.068 0 2.104.528 4.117 1.59 6.038a11.585 11.585 0 004.53 4.503c1.92 1.057 3.928 1.59 6.037 1.59 2.094 0 4.117-.533 6.038-1.59a11.528 11.528 0 004.493-4.503c1.072-1.937 1.596-3.934 1.596-6.038s-.544-4.132-1.632-6.068c-1.082-1.962-2.592-3.462-4.543-4.498-1.932-1.058-3.909-1.591-5.952-1.591m-6.378 20.207v-15.669h5.392c1.835 0 3.177.148 3.99.448.823.28 1.469.782 1.972 1.51.493.72.742 1.478.742 2.291 0 1.144-.417 2.145-1.24 2.989-.803.843-1.886 1.331-3.238 1.423.539.234.986.513 1.332.828.625.62 1.397 1.657 2.312 3.106l1.916 3.07h-3.095l-1.377-2.466c-1.098-1.946-1.977-3.156-2.648-3.649-.463-.36-1.139-.539-2.028-.539h-1.48v6.663l-2.55-.005m2.53-8.817h3.07c1.47 0 2.46-.219 2.989-.656.534-.427.813-1.011.813-1.738 0-.463-.127-.88-.381-1.23-.26-.376-.62-.646-1.083-.834-.462-.178-1.29-.27-2.53-.27H987.5v4.728" fill="#ffaa18"/><path d="M991.343 355.908c2.434 0 4.833.625 7.146 1.896 2.333 1.23 4.147 3.04 5.448 5.382 1.306 2.328 1.947 4.752 1.947 7.288 0 2.506-.64 4.925-1.927 7.238-1.275 2.312-3.07 4.126-5.382 5.402-2.307 1.27-4.726 1.911-7.237 1.911-2.531 0-4.95-.64-7.263-1.91-2.307-1.287-4.096-3.091-5.377-5.403-1.301-2.313-1.936-4.732-1.936-7.238 0-2.536.645-4.96 1.951-7.288 1.312-2.343 3.131-4.142 5.454-5.382 2.343-1.27 4.742-1.896 7.176-1.896m0 2.399c-2.038 0-4.03.529-5.977 1.59-1.941 1.038-3.45 2.537-4.544 4.499-1.087 1.936-1.636 3.964-1.636 6.068 0 2.104.528 4.117 1.59 6.038a11.585 11.585 0 004.53 4.503c1.92 1.057 3.928 1.59 6.037 1.59 2.094 0 4.117-.533 6.038-1.59a11.528 11.528 0 004.493-4.503c1.072-1.936 1.596-3.934 1.596-6.038s-.544-4.132-1.632-6.068c-1.082-1.962-2.592-3.461-4.543-4.498-1.932-1.057-3.909-1.591-5.952-1.591m-6.378 20.208v-15.67h5.392c1.835 0 3.177.148 3.99.448.823.28 1.469.782 1.972 1.51.493.72.742 1.478.742 2.291 0 1.144-.417 2.145-1.24 2.989-.803.844-1.886 1.331-3.238 1.423.539.234.986.513 1.332.828.625.62 1.397 1.657 2.312 3.106l1.916 3.07h-3.095l-1.377-2.466c-1.098-1.946-1.977-3.156-2.648-3.649-.463-.36-1.139-.538-2.028-.538h-1.48v6.663l-2.55-.005m2.53-8.818h3.07c1.47 0 2.46-.219 2.989-.656.534-.427.813-1.011.813-1.738 0-.463-.127-.88-.381-1.23-.26-.376-.62-.646-1.083-.834-.462-.177-1.29-.269-2.53-.269H987.5v4.727m-571.03 9.495l4.03-23.374c-2.2 0-5.44.805-8.295.805-11.206 0-12.441-5.09-11.728-8.852l9.053-47.691h17.03l4.112-25.854h-16.058l3.269-16.078h-32.191c-.71.606-19.003 90.424-19.003 101.36 0 16.192 10.643 23.403 25.65 23.287 11.752-.085 20.903-2.863 24.131-3.603zm10.2-44.564c0 38.86 30.027 48.094 55.608 48.094 23.613 0 34.003-4.51 34.003-4.51l5.67-26.52s-17.961 6.759-34.183 6.759c-34.565 0-28.512-22.016-28.512-22.016h65.419s4.224-17.817 4.224-25.078c0-18.118-10.557-40.195-45.9-40.195-32.37.006-56.33 29.798-56.33 63.466zm56.45-38.839c18.168 0 14.817 17.44 14.817 18.85h-35.74c0-1.801 3.378-18.85 20.924-18.85zm203.847 83.391l5.76-29.978s-15.796 6.765-26.636 6.765c-22.835 0-31.993-14.894-31.993-30.896 0-32.462 19.647-50.32 41.52-50.32 16.402 0 29.566 7.866 29.566 7.866l5.255-29.127s-19.521-6.747-36.255-6.747c-37.162 0-73.314 27.538-73.314 79.258 0 34.295 19.52 56.945 57.936 56.945 10.86.003 28.16-3.766 28.16-3.766zM239.42 271.59c-22.073 0-38.994 6.06-38.994 6.06l-4.671 23.689s13.966-4.847 35.077-4.847c11.987 0 20.757 1.151 20.757 9.473 0 5.054-1.075 6.92-1.075 6.92s-9.455-.677-13.833-.677c-27.84 0-57.087 10.15-57.087 40.748 0 24.111 19.187 29.643 31.079 29.643 22.711 0 32.501-12.589 33.023-12.626l-1.061 10.507h28.345l12.646-75.728c0-32.126-32.809-33.161-44.205-33.161zm6.897 61.66c.614 4.625-3.395 26.308-22.777 26.308-9.998 0-12.598-6.523-12.598-10.382 0-7.526 4.788-16.562 28.376-16.562 5.487.006 6.074.507 6.999.636zm67.435 48.795c7.251 0 48.703 1.574 48.703-34.962 0-34.158-38.37-27.41-38.37-41.133 0-6.832 6.254-8.983 17.685-8.983 4.538 0 21.999 1.233 21.999 1.233l4.06-24.28c0 .003-11.301-2.16-29.7-2.16-23.814 0-47.986 8.12-47.986 35.904 0 31.482 40.305 28.323 40.305 41.585 0 8.852-11.26 9.572-19.937 9.572-15.017 0-28.54-4.402-28.588-4.192l-4.292 24.035c.778.204 9.117 3.381 36.121 3.381zm639.862-132.242l-6.944 36.805s-12.117-14.297-31.085-14.297c-29.495 0-54.08 30.377-54.08 65.282 0 22.53 13.113 44.607 39.92 44.607 19.282 0 29.972-11.484 29.972-11.484l-1.416 9.808h31.31l24.592-130.765-32.269.044zm-14.949 71.761c0 14.525-8.418 33.925-25.871 33.925-11.585 0-17.014-8.307-17.014-21.345 0-21.318 11.21-35.385 25.353-35.385 11.588-.003 17.532 6.798 17.532 22.805zM65.121 380.638l19.597-98.723 2.876 98.723h22.18l41.373-98.723-18.327 98.723h32.955l25.38-130.94h-50.962l-31.737 80.34-1.651-80.34H59.829l-25.745 130.94H65.12zm495.972.18c9.37-45.516 11.107-82.475 33.467-75.71 3.914-17.617 7.692-24.432 11.964-31.888 0 0-2.003-.358-6.207-.358-14.417 0-25.097 16.824-25.097 16.824l2.87-15.451h-29.973l-20.081 106.583h33.057zM761.244 271.59c-22.073 0-38.994 6.06-38.994 6.06l-4.668 23.689s13.966-4.847 35.077-4.847c11.987 0 20.75 1.151 20.75 9.473 0 5.054-1.068 6.92-1.068 6.92s-9.455-.677-13.837-.677c-27.837 0-57.083 10.15-57.083 40.748 0 24.111 19.184 29.643 31.075 29.643 22.712 0 32.502-12.589 33.02-12.626l-1.054 10.507h28.345l12.643-75.728c.003-32.126-32.809-33.161-44.206-33.161zm6.907 61.66c.614 4.625-3.399 26.308-22.787 26.308-9.998 0-12.591-6.523-12.591-10.382 0-7.526 4.787-16.562 28.372-16.562 5.487.006 6.07.507 7.006.636zm63.206 47.568c9.373-45.516 11.11-82.475 33.463-75.71 3.921-17.617 7.702-24.432 11.97-31.888 0 0-2.003-.358-6.206-.358-14.417 0-25.097 16.824-25.097 16.824l2.87-15.451h-29.973l-20.081 106.583h33.054z" fill="#fff"/></svg>