<svg xmlns="http://www.w3.org/2000/svg" viewBox="0 0 113.9 45.8"><path d="M101.5 23c-.6.4-1.4.6-2.6.6h-1.1l.9-4.7h.7c1 0 1.7.2 2.1.5.4.2.8.7.8 1.6.1 1.1-.4 1.7-.8 2zm-68.6 5.9H24l.6-3.1h5.6l.6-3.5h-5.5l.5-3h8.9l-1.8 9.6zm73.3-12.2c-1.3-.9-3.3-1.3-5.9-1.3h-6.8L91 28.9h-8.9l.6-3.1h5.4l.6-3.4h-5.4l.6-3.1h5.5l.7-4H79l-2.4 12.8h-4.1l2.4-12.8H69l-2.4 12.8h-4L65 15.4h-5.9l-2.5 13.5h-9l.6-3.1h5.4l.6-3.4h-5.4l.6-3.1H55l.7-4h-35l-2 10.7-4-10.7h-6L5.5 32.8h5.8l2-11 3.8 11h20.8l2.5-13.5h3.3l-2.5 13.5H96l1.6-8.5 2.6 8.5h5.8l-2.7-7 .6-.1c1.3-.3 2.4-.9 3.1-1.8.7-.9 1.1-2.1 1.1-3.5 0-1.6-.6-2.8-1.9-3.7z" fill-rule="evenodd" clip-rule="evenodd" fill="#8dc640"/></svg>