<svg xmlns="http://www.w3.org/2000/svg" width="69.969" height="47"><path d="M54.189 37.469c.124 2.9 1.822 4.826 4.805 4.826a4.206 4.206 0 004.017-2.331H69.6C68.313 44.872 63.716 47 58.91 47c-7 0-11.763-4.172-11.763-11.289 0-6.5 5.26-11.166 11.6-11.166 7.7 0 11.556 5.726 11.225 12.925H54.189zm8.74-3.886a4.326 4.326 0 00-4.184-4.336c-2.486 0-4.142 1.759-4.556 4.336h8.74zm-33.838 3.886c.125 2.9 1.823 4.826 4.805 4.826a4.209 4.209 0 004.019-2.331H44.5C43.216 44.872 38.619 47 33.814 47c-7 0-11.764-4.172-11.764-11.289 0-6.5 5.26-11.166 11.6-11.166 7.7 0 11.557 5.726 11.225 12.925H29.091zm8.741-3.886a4.326 4.326 0 00-4.184-4.336c-2.485 0-4.142 1.759-4.557 4.336h8.741zM6.561 41h2.565c4.086 0 4.682-3.269 4.682-5.242 0-1.325-.417-5.007-5.159-5.007H6.561V41zM0 25.359h10.767c7.1 0 9.6 5.183 9.6 10.484 0 6.45-3.46 10.543-10.886 10.543H0V25.359zm69.97-12.434C70.3 5.727 66.449 0 58.745 0c-6.338 0-11.6 4.663-11.6 11.166 0 7.117 4.763 11.289 11.763 11.289 4.806 0 9.4-2.127 10.687-7.035h-6.586a4.205 4.205 0 01-4.017 2.331c-2.983 0-4.681-1.923-4.805-4.827H69.97zM54.189 9.04c.414-2.577 2.07-4.336 4.556-4.336a4.326 4.326 0 014.184 4.336h-8.74zm-9.316 3.886c.332-7.2-3.52-12.925-11.225-12.925-6.338 0-11.6 4.663-11.6 11.166 0 7.117 4.763 11.289 11.764 11.289 4.805 0 9.4-2.127 10.687-7.035h-6.586a4.208 4.208 0 01-4.019 2.331c-2.982 0-4.68-1.923-4.805-4.827h15.782zM29.091 9.04c.415-2.577 2.072-4.336 4.557-4.336a4.326 4.326 0 014.184 4.336h-8.741zM6.561 6.2h2.088c4.742 0 5.159 3.681 5.159 5.006 0 1.973-.6 5.242-4.682 5.242H6.561V6.2zM0 21.842h9.484c7.426 0 10.886-4.093 10.886-10.543 0-5.3-2.506-10.484-9.6-10.484H0v21.027z" fill="#f5cfcf" fill-rule="evenodd"/></svg>