<svg xmlns="http://www.w3.org/2000/svg" fill="#a0c2dc" viewBox="0 0 16 13"><g data-name="Layer 2"><path d="M13.5 4H13V2.5A2.5 2.5 0 0010.5 0h-8A2.5 2.5 0 000 2.5v6a2.49 2.49 0 001.53 2.3 2.49 2.49 0 004.92.2h3.1a2.49 2.49 0 004.92-.2A2.49 2.49 0 0016 8.5v-2A2.5 2.5 0 0013.5 4zM12 2.5V4H9V1h1.5A1.5 1.5 0 0112 2.5zM4 12a1.5 1.5 0 111.5-1.5A1.5 1.5 0 014 12zm0-4a2.47 2.47 0 00-2.36 1.72A1.48 1.48 0 011 8.5v-6A1.5 1.5 0 012.5 1H8v9H6.45A2.5 2.5 0 004 8zm8 4a1.5 1.5 0 111.5-1.5A1.5 1.5 0 0112 12zm3-3.5a1.48 1.48 0 01-.64 1.22A2.47 2.47 0 0012 8a2.5 2.5 0 00-2.45 2H9V5h4.5A1.5 1.5 0 0115 6.5z" data-name="Layer 1"/></g></svg>