<svg width="18" height="18" fill="none" xmlns="http://www.w3.org/2000/svg"><path d="M17.701 9.169v-.105l-3.273-5.818a.273.273 0 00-.234-.13H3.727a.273.273 0 00-.234.13L.273 9.065v.156c0 .026 0 .052.025.078v.026c0 .026.026.052.052.078l8.468 8.519A.236.236 0 009 18c.078 0 .13-.026.182-.078l8.467-8.52c.026-.025.026-.051.052-.077v-.026c0-.026 0-.052.026-.078-.026-.026-.026-.026-.026-.052zM3.883 3.636H8.48L5.571 8.91H.948l2.935-5.273zM8.87 4l2.701 4.935H6.17L8.869 4zM1.13 9.429h4.415l2.727 7.168L1.13 9.43zm7.74 7.376L6.09 9.43h5.585L8.87 16.805zm.52.104l2.83-7.48h4.598l-7.429 7.48zm2.779-8L9.285 3.636h4.78L17 8.91h-4.831z" fill="#4F71C9"/><path d="M4.688 4.416c-.13-.078-.286-.026-.364.104L2.688 7.35c-.078.13-.026.286.104.364a.234.234 0 00.13.026.31.31 0 00.234-.13l1.636-2.83a.321.321 0 00-.104-.364z" fill="#4F71C9"/></svg>