<svg width="20" height="20" fill="none" xmlns="http://www.w3.org/2000/svg"><path d="M19.668 10.187v-.115L16.03 3.607a.303.303 0 00-.26-.144H4.142a.303.303 0 00-.26.144L.303 10.072v.173c0 .029 0 .058.029.087v.028c0 .03.028.058.057.087l9.409 9.466A.262.262 0 0010 20a.262.262 0 00.202-.087l9.408-9.466c.029-.029.029-.058.058-.087v-.028c0-.03 0-.058.029-.087-.03-.029-.03-.029-.03-.058zM4.314 4.04h5.108L6.19 9.9H1.053l3.261-5.86zm5.541.404l3.002 5.484H6.854l3.001-5.484zm-8.6 6.032h4.906l3.03 7.965-7.936-7.965zm8.6 8.196l-3.088-8.196h6.205l-3.117 8.196zm.578.116l3.145-8.312h5.109l-8.254 8.312zm3.088-8.89L10.317 4.04h5.31L18.89 9.9h-5.37z" fill="#fff"/><path d="M5.21 4.906c-.145-.087-.318-.029-.405.115L2.987 8.167c-.087.144-.029.318.115.404.058.029.087.029.145.029a.344.344 0 00.26-.144L5.324 5.31a.357.357 0 00-.116-.404z" fill="#fff"/></svg>