<svg width="17" height="17" fill="none" xmlns="http://www.w3.org/2000/svg"><circle cx="8.5" cy="8.5" r="8.5" fill="#4F71C9"/><path d="M7.564 10.088v-.375c0-.43.079-.787.235-1.072.156-.286.43-.58.82-.885.465-.367.764-.652.897-.856a1.27 1.27 0 00.205-.726c0-.328-.11-.58-.328-.756-.22-.176-.534-.264-.944-.264-.37 0-.715.053-1.031.159a7.32 7.32 0 00-.926.38L6 4.663A5.158 5.158 0 018.549 4c.765 0 1.373.188 1.822.563.45.375.674.892.674 1.552 0 .293-.043.555-.129.785a2.224 2.224 0 01-.393.65c-.171.208-.47.477-.896.81-.363.285-.607.52-.732.708-.122.188-.182.44-.182.756v.264H7.564zm-.24 1.869c0-.59.287-.885.862-.885.28 0 .496.078.644.235.149.152.223.369.223.65 0 .277-.076.498-.229.662-.148.16-.361.24-.638.24-.278 0-.49-.078-.64-.234-.148-.16-.222-.383-.222-.668z" fill="#fff"/></svg>