<svg width="18" height="18" fill="none" xmlns="http://www.w3.org/2000/svg"><path d="M9.551 4.184l2.23-2.092s0-.023.023-.023c.023-.023.023-.023.023-.046v-.161s0-.023-.023-.023v-.023L10.816.115A.241.241 0 0010.609 0H7.367a.241.241 0 00-.206.115L6.149 1.793v.023s0 .023-.023.023V2c0 .023.023.023.023.046 0 0 0 .023.023.023l2.23 2.092C4.885 4.46 2.08 7.448 2.08 11.08A6.927 6.927 0 009 18a6.927 6.927 0 006.92-6.92c0-3.632-2.805-6.597-6.369-6.896zm-.023-.598l.575-1.425h.943L9.528 3.586zm.943-3.103l.736 1.218h-1.15L9.344.483h1.127zM9.528 1.7h-1.15l.576-.965.574.965zM7.505.483h1.08L7.874 1.7h-1.08L7.505.483zM6.954 2.16h.873l.552 1.333L6.954 2.16zm1.356 0h1.287l-.643 1.586L8.31 2.16zM9 17.517c-3.54 0-6.46-2.896-6.46-6.436S5.436 4.62 9 4.62a6.465 6.465 0 016.46 6.46c0 3.563-2.92 6.436-6.46 6.436z" fill="#4F71C9"/><path d="M13.16 6.896a5.88 5.88 0 00-8.321 0 5.885 5.885 0 1010.023 4.184 5.952 5.952 0 00-1.701-4.183zm-.344 8c-2.115 2.115-5.563 2.115-7.701 0-2.092-2.091-2.092-5.54.023-7.678a5.371 5.371 0 013.839-1.586c1.448 0 2.828.575 3.839 1.586a5.371 5.371 0 011.586 3.84 5.427 5.427 0 01-1.586 3.838z" fill="#4F71C9"/></svg>