<svg xmlns="http://www.w3.org/2000/svg" width="512" height="512" viewBox="0 0 492 492"><path d="M246.104 293.392L62.04 109.336c-5.056-5.068-11.816-7.856-19.024-7.856-7.212 0-13.968 2.788-19.032 7.856l-16.12 16.128C2.792 130.524 0 137.288 0 144.496s2.792 13.964 7.864 19.028l219.144 219.148c5.08 5.084 11.868 7.868 19.084 7.848 7.248.02 14.028-2.76 19.112-7.848l218.932-218.944c5.072-5.064 7.864-11.82 7.864-19.032 0-7.208-2.792-13.964-7.864-19.032l-16.12-16.124c-10.492-10.492-27.572-10.492-38.06 0L246.104 293.392z" fill="#313131" data-original="#000000" xmlns="http://www.w3.org/2000/svg"/></svg>