<svg width="174" height="44" fill="none" xmlns="http://www.w3.org/2000/svg"><path fill-rule="evenodd" clip-rule="evenodd" d="M12.4 9.336a12.39 12.39 0 0112.4 12.4v12.138h-5.369v-1.926a12.467 12.467 0 01-7.031 2.188A12.39 12.39 0 010 21.736a12.39 12.39 0 0112.4-12.4zm56.106 0c2.626 0 5.048.817 7.032 2.189V0h5.368v21.736a12.39 12.39 0 01-12.4 12.4 12.39 12.39 0 01-12.4-12.4 12.39 12.39 0 0112.4-12.4zm0 5.369a7.035 7.035 0 00-7.031 7.031 7.035 7.035 0 007.031 7.032 7.035 7.035 0 007.032-7.032 7.035 7.035 0 00-7.032-7.031zM40.468 9.336c2.626 0 5.047.817 7.031 2.189V0h5.369v21.736a12.39 12.39 0 01-12.4 12.4 12.39 12.39 0 01-12.4-12.4 12.39 12.39 0 0112.4-12.4zm0 5.369a7.035 7.035 0 00-7.032 7.031 7.035 7.035 0 007.032 7.032 7.035 7.035 0 007.031-7.032 7.035 7.035 0 00-7.031-7.031zm-28.068 0a7.035 7.035 0 00-7.032 7.031 7.035 7.035 0 007.032 7.032 7.035 7.035 0 007.031-7.032 7.017 7.017 0 00-7.031-7.031z" fill="#F2F2F5"/><path fill-rule="evenodd" clip-rule="evenodd" d="M107.136 9.336a12.39 12.39 0 0112.4 12.4v12.138h-5.368v-1.926a12.47 12.47 0 01-7.032 2.188 12.39 12.39 0 01-12.4-12.4 12.39 12.39 0 0112.4-12.4zm37.929 0a12.39 12.39 0 0112.4 12.4h-5.368a7.035 7.035 0 00-7.032-7.031 7.035 7.035 0 00-7.031 7.031 7.035 7.035 0 007.031 7.032v5.368a12.39 12.39 0 01-12.4-12.4c0-6.856 5.573-12.4 12.4-12.4zm21.737 12.517c0-3.588 2.918-6.477 6.477-6.477v-5.368a11.867 11.867 0 00-11.875 11.874 6.48 6.48 0 01-6.477 6.477v5.369c6.565-.03 11.875-5.34 11.875-11.875zm-37.346 12.02h-5.368V0h5.368v33.874zm-22.32-19.168a7.035 7.035 0 00-7.031 7.031 7.035 7.035 0 007.031 7.032 7.035 7.035 0 007.032-7.032 7.017 7.017 0 00-7.032-7.031z" fill="url(#paint0_linear_1:2211)"/><path fill-rule="evenodd" clip-rule="evenodd" d="M85.108 21.736C85.108 9.57 94.91 0 107.019 0v5.368c-9.161 0-16.543 7.178-16.543 16.368 0 12.167-9.803 21.737-21.911 21.737v-5.368c9.132 0 16.543-7.178 16.543-16.368z" fill="url(#paint1_linear_1:2211)"/><defs><linearGradient id="paint0_linear_1:2211" x1="134.019" y1="44.344" x2="134.019" y2="-45.197" gradientUnits="userSpaceOnUse"><stop stop-color="#7D32B4"/><stop offset=".386" stop-color="#965FE1"/><stop offset="1" stop-color="#2DC873"/></linearGradient><linearGradient id="paint1_linear_1:2211" x1="87.784" y1="50.759" x2="87.784" y2=".129" gradientUnits="userSpaceOnUse"><stop stop-color="#7D32B4"/><stop offset=".466" stop-color="#965FE1"/><stop offset="1" stop-color="#2DC873"/></linearGradient></defs></svg>