<svg version="1.1" id="_x31_" xmlns="http://www.w3.org/2000/svg" x="0" y="0" viewBox="0 0 850 425" xml:space="preserve"><style>.st1{fill-rule:evenodd;clip-rule:evenodd;fill:#fff}</style><switch><g><path fill-rule="evenodd" clip-rule="evenodd" fill="#1a1a1a" d="M0-.2h850.4V425H0z"/><path class="st1" d="M170.7 169.9c23.5 0 42.5 19 42.5 42.5V254h-18.4v-6.6c-6.9 4.7-15.2 7.5-24.1 7.5-23.5 0-42.5-19-42.5-42.5s19-42.5 42.5-42.5zm192.3 0c9 0 17.3 2.8 24.1 7.5v-39.5h18.4v74.5c0 23.5-19 42.5-42.5 42.5s-42.5-19-42.5-42.5 19-42.5 42.5-42.5zm0 18.4c-13.3 0-24.1 10.8-24.1 24.1s10.8 24.1 24.1 24.1 24.1-10.8 24.1-24.1-10.8-24.1-24.1-24.1zm-96.1-18.4c9 0 17.3 2.8 24.1 7.5v-39.5h18.4v74.5c0 23.5-19 42.5-42.5 42.5s-42.5-19-42.5-42.5 19-42.5 42.5-42.5zm0 18.4c-13.3 0-24.1 10.8-24.1 24.1s10.8 24.1 24.1 24.1 24.1-10.8 24.1-24.1-10.8-24.1-24.1-24.1zm-96.2 0c-13.3 0-24.1 10.8-24.1 24.1s10.8 24.1 24.1 24.1 24.1-10.8 24.1-24.1-10.7-24.1-24.1-24.1zm324.7-18.4c23.5 0 42.5 19 42.5 42.5V254h-18.4v-6.6c-6.9 4.7-15.2 7.5-24.1 7.5-23.5 0-42.5-19-42.5-42.5s19-42.5 42.5-42.5zm130 0c23.5 0 42.5 19 42.5 42.5h-18.4c0-13.3-10.8-24.1-24.1-24.1s-24.1 10.8-24.1 24.1 10.8 24.1 24.1 24.1v18.4c-23.5 0-42.5-19-42.5-42.5s19.1-42.5 42.5-42.5zm74.5 42.9c0-12.3 10-22.2 22.2-22.2v-18.4c-22.5 0-40.7 18.2-40.7 40.7 0 12.3-10 22.2-22.2 22.2v18.4c22.5-.1 40.7-18.3 40.7-40.7zm-128 41.2h-18.4V137.9h18.4V254zm-76.5-65.7c-13.3 0-24.1 10.8-24.1 24.1s10.8 24.1 24.1 24.1 24.1-10.8 24.1-24.1-10.7-24.1-24.1-24.1z"/><path class="st1" d="M419.9 212.4c0-41.7 33.6-74.5 75.1-74.5v18.4c-31.4 0-56.7 24.6-56.7 56.1 0 41.7-33.6 74.5-75.1 74.5v-18.4c31.3 0 56.7-24.6 56.7-56.1z"/></g></switch></svg>