<svg xmlns="http://www.w3.org/2000/svg" viewBox="0 0 850 425"><switch><g><path clip-rule="evenodd" fill="none" d="M.5-.7h850.4v425.2H.5z"/><path d="M171.2 169.4c23.5 0 42.5 19 42.5 42.5v41.6h-18.4v-6.6c-6.9 4.7-15.2 7.5-24.1 7.5-23.5 0-42.5-19-42.5-42.5s19-42.5 42.5-42.5zm192.3 0c9 0 17.3 2.8 24.1 7.5v-39.5H406v74.5c0 23.5-19 42.5-42.5 42.5s-42.5-19-42.5-42.5 19-42.5 42.5-42.5zm0 18.4c-13.3 0-24.1 10.8-24.1 24.1s10.8 24.1 24.1 24.1 24.1-10.8 24.1-24.1-10.8-24.1-24.1-24.1zm-96.1-18.4c9 0 17.3 2.8 24.1 7.5v-39.5h18.4v74.5c0 23.5-19 42.5-42.5 42.5s-42.5-19-42.5-42.5 19-42.5 42.5-42.5zm0 18.4c-13.3 0-24.1 10.8-24.1 24.1s10.8 24.1 24.1 24.1 24.1-10.8 24.1-24.1-10.8-24.1-24.1-24.1zm-96.2 0c-13.3 0-24.1 10.8-24.1 24.1s10.8 24.1 24.1 24.1 24.1-10.8 24.1-24.1-10.7-24.1-24.1-24.1z" fill-rule="evenodd" clip-rule="evenodd" fill="#f2f2f5"/><linearGradient id="a" gradientUnits="userSpaceOnUse" x1="588.038" y1="289.385" x2="588.038" y2="-17.511"><stop offset="0" stop-color="#7d32b4"/><stop offset=".386" stop-color="#965fe1"/><stop offset="1" stop-color="#2dc873"/></linearGradient><path d="M495.9 169.4c23.5 0 42.5 19 42.5 42.5v41.6H520v-6.6c-6.9 4.7-15.2 7.5-24.1 7.5-23.5 0-42.5-19-42.5-42.5s19-42.5 42.5-42.5zm130 0c23.5 0 42.5 19 42.5 42.5H650c0-13.3-10.8-24.1-24.1-24.1s-24.1 10.8-24.1 24.1 10.8 24.1 24.1 24.1v18.4c-23.5 0-42.5-19-42.5-42.5s19.1-42.5 42.5-42.5zm74.5 42.9c0-12.3 10-22.2 22.2-22.2v-18.4c-22.5 0-40.7 18.2-40.7 40.7 0 12.3-10 22.2-22.2 22.2V253c22.5-.1 40.7-18.3 40.7-40.7zm-128 41.2H554V137.4h18.4v116.1zm-76.5-65.7c-13.3 0-24.1 10.8-24.1 24.1s10.8 24.1 24.1 24.1 24.1-10.8 24.1-24.1-10.7-24.1-24.1-24.1z" fill-rule="evenodd" clip-rule="evenodd" fill="url(#a)"/><linearGradient id="b" gradientUnits="userSpaceOnUse" x1="429.573" y1="311.373" x2="429.573" y2="137.841"><stop offset="0" stop-color="#7d32b4"/><stop offset=".466" stop-color="#965fe1"/><stop offset="1" stop-color="#2dc873"/></linearGradient><path d="M420.4 211.9c0-41.7 33.6-74.5 75.1-74.5v18.4c-31.4 0-56.7 24.6-56.7 56.1 0 41.7-33.6 74.5-75.1 74.5V268c31.3 0 56.7-24.6 56.7-56.1z" fill-rule="evenodd" clip-rule="evenodd" fill="url(#b)"/></g></switch></svg>