<svg width="152" height="39" fill="none" xmlns="http://www.w3.org/2000/svg"><path fill-rule="evenodd" clip-rule="evenodd" d="M10.877 8.19a10.868 10.868 0 0110.877 10.877v10.647h-4.709v-1.69a10.936 10.936 0 01-6.168 1.92A10.868 10.868 0 010 19.067 10.868 10.868 0 0110.877 8.19zm49.217 0c2.303 0 4.427.717 6.168 1.92V0h4.709v19.067a10.868 10.868 0 01-10.877 10.877 10.868 10.868 0 01-10.878-10.877A10.868 10.868 0 0160.094 8.19zm0 4.71a6.171 6.171 0 00-6.168 6.167 6.171 6.171 0 006.168 6.168 6.171 6.171 0 006.168-6.168 6.171 6.171 0 00-6.168-6.168zM35.498 8.19c2.304 0 4.428.717 6.168 1.92V0h4.71v19.067a10.868 10.868 0 01-10.878 10.877 10.868 10.868 0 01-10.877-10.877A10.868 10.868 0 0135.498 8.19zm0 4.71a6.171 6.171 0 00-6.168 6.167 6.171 6.171 0 006.168 6.168 6.171 6.171 0 006.168-6.168 6.171 6.171 0 00-6.168-6.168zm-24.62 0a6.171 6.171 0 00-6.169 6.167 6.171 6.171 0 006.168 6.168 6.171 6.171 0 006.168-6.168 6.155 6.155 0 00-6.168-6.168zM93.98 8.19a10.868 10.868 0 0110.877 10.877v10.647h-4.71v-1.69a10.933 10.933 0 01-6.168 1.92 10.868 10.868 0 01-10.877-10.877A10.868 10.868 0 0193.98 8.19zm33.271 0a10.868 10.868 0 0110.877 10.877h-4.709a6.171 6.171 0 00-6.168-6.168 6.171 6.171 0 00-6.168 6.168 6.171 6.171 0 006.168 6.168v4.71a10.868 10.868 0 01-10.877-10.878c0-6.014 4.888-10.877 10.877-10.877zm19.067 10.98A5.686 5.686 0 01152 13.488v-4.71a10.41 10.41 0 00-10.417 10.417 5.685 5.685 0 01-5.681 5.682v4.71c5.758-.026 10.416-4.684 10.416-10.417zm-32.76 10.544h-4.709V0h4.709v29.714zM93.979 12.9a6.171 6.171 0 00-6.168 6.168 6.171 6.171 0 006.168 6.168 6.17 6.17 0 006.168-6.168 6.155 6.155 0 00-6.168-6.168z" fill="#E6E6E6"/><path fill-rule="evenodd" clip-rule="evenodd" d="M74.656 19.067C74.656 8.395 83.256 0 93.877 0v4.71c-8.036 0-14.511 6.295-14.511 14.357 0 10.673-8.6 19.067-19.221 19.067v-4.709c8.01 0 14.511-6.296 14.511-14.358z" fill="#E6E6E6"/></svg>