<svg width="129" height="50" viewBox="0 0 129 50" fill="none" xmlns="http://www.w3.org/2000/svg">
<path d="M50.6522 42.5372H50.0674V40.0776H50.668C51.1314 40.0776 51.5106 40.1765 51.806 40.3725C52.1007 40.5695 52.2488 40.8734 52.2488 41.2856C52.2488 41.5154 52.201 41.7147 52.1063 41.8824C52.0112 42.0505 51.903 42.175 51.782 42.2566C51.6606 42.3378 51.5136 42.4025 51.3392 42.4507C51.166 42.4992 51.0337 42.5255 50.9446 42.5304C50.8548 42.5349 50.7574 42.5372 50.6522 42.5372Z" fill="#24BA9D"/>
<path d="M53.0068 45.2551C53.0068 45.7639 52.7911 46.1325 52.3593 46.3626C52.0323 46.5349 51.5632 46.621 50.9525 46.621H50.0674V43.9753H50.8258C51.4689 43.9753 51.9376 44.0374 52.2326 44.1619C52.7483 44.3736 53.0068 44.7373 53.0068 45.2551Z" fill="#24BA9D"/>
<path d="M0 35.8568V43.5881C0 47.1149 2.61698 49.9997 5.81576 49.9997H122.544C125.742 49.9997 128.359 47.1145 128.36 43.5881V35.8568H0ZM54.2236 47.3691C53.5806 47.8866 52.691 48.1453 51.5525 48.1453H48.0125V38.5536H50.6201C51.7683 38.5536 52.6271 38.7552 53.1961 39.158C53.8493 39.6175 54.1759 40.2794 54.1759 41.1425C54.1759 41.9958 53.7813 42.6235 52.9913 43.0262C53.5283 43.103 53.9865 43.3038 54.3661 43.6302C54.8716 44.0713 55.1245 44.6704 55.1245 45.4278C55.1241 46.2326 54.8242 46.8799 54.2236 47.3691ZM66.5031 40.1643H62.7101V42.3068H66.3452V43.9179H62.7101V46.535H66.5031V48.1453H60.6558V38.5536H66.5031V40.1643ZM77.8189 40.1643H75.4481V48.145H73.3938V40.1643H71.023V38.5532H77.8189V40.1643Z" fill="#24BA9D"/>
<path d="M10.4916 20.6543V12.674C12.3204 12.674 13.2352 11.9738 13.2352 10.5725C13.2352 9.29088 12.5369 8.65005 11.1418 8.65005C9.73124 8.65005 9.02579 9.53081 9.02579 11.292V31.1768H0.00561523V12.2284C0.00561523 10.2687 0.201804 8.66171 0.594558 7.40638C0.986935 6.1518 1.65743 4.98259 2.60643 3.89762C3.67344 2.69531 5.0073 1.74535 6.60801 1.04699C8.20871 0.348619 9.86128 0 11.5657 0C14.6484 0 17.2379 1.04059 19.3351 3.12065C21.4323 5.20071 22.4809 7.77869 22.4809 10.8542C22.4809 13.8417 21.539 16.2636 19.6561 18.1207C17.9355 19.8296 15.3403 20.684 11.8701 20.684L10.4916 20.6543Z" fill="#E03D22"/>
<path d="M35.2484 0.790527V31.1772H26.2283V0.790527H35.2484Z" fill="#E03D22"/>
<path d="M40.7432 31.1768V11.4251C40.7432 7.96597 41.7767 5.19695 43.845 3.11802C45.9132 1.03946 48.667 0 52.1071 0C55.5314 0 58.1517 1.01013 59.9682 3.02926C61.7838 5.04878 62.6923 7.95168 62.6923 11.7376V31.1764H53.6721V11.738C53.6721 9.90538 53.0091 8.98851 51.6843 8.98851C50.4034 8.98851 49.7633 9.905 49.7633 11.738V31.1768H40.7432Z" fill="#E03D22"/>
<path d="M100.939 0.790527V20.4768C100.939 23.9532 99.9048 26.7309 97.8365 28.8102C95.7683 30.8899 93.0145 31.9294 89.5752 31.9294C86.1505 31.9294 83.5301 30.9192 81.7141 28.899C79.8976 26.8787 78.99 23.9747 78.99 20.1869V0.790527H88.0102V20.1647C88.0102 22.0157 88.6724 22.9412 89.998 22.9412C91.2781 22.9412 91.9189 22.0157 91.9189 20.1647V0.790527H100.939Z" fill="#E03D22"/>
<path d="M116.325 20.6543V12.674C118.153 12.674 119.068 11.9738 119.068 10.5725C119.068 9.29088 118.37 8.65005 116.975 8.65005C115.564 8.65005 114.859 9.53081 114.859 11.292V31.1768H105.839V12.2284C105.839 10.2687 106.035 8.66171 106.428 7.40638C106.82 6.1518 107.49 4.98259 108.439 3.89762C109.506 2.69531 110.84 1.74535 112.441 1.04699C114.042 0.348619 115.694 0 117.399 0C120.481 0 123.071 1.04059 125.168 3.12065C127.265 5.20071 128.314 7.77869 128.314 10.8542C128.314 13.8417 127.372 16.2636 125.489 18.1207C123.769 19.8296 121.173 20.684 117.703 20.684L116.325 20.6543Z" fill="#E03D22"/>
</svg>
