<svg width="131" height="50" viewBox="0 0 131 50" fill="none" xmlns="http://www.w3.org/2000/svg">
<path d="M0 35.6467V43.493C0 47.0721 2.6573 50.0001 5.90484 50.0001H124.422C127.67 50.0001 130.326 47.072 130.328 43.493V35.6467H0ZM35.467 46.1611H32.7242V40.384C32.7242 40.0232 32.681 39.7736 32.5954 39.6339C32.5099 39.4942 32.3568 39.4244 32.1363 39.4244C31.7082 39.4244 31.4945 39.7445 31.4945 40.384V41.5325H32.2846V43.9649H31.4945V46.1611H28.7516V40.296C28.7516 39.1609 29.0613 38.2789 29.6801 37.6504C30.2995 37.0224 31.1703 36.7078 32.2918 36.7078C33.3727 36.7078 34.1718 36.9933 34.6899 37.563C35.2079 38.1327 35.4672 39.0121 35.4672 40.2013V46.1611H35.467ZM42.8717 46.1611H36.379L38.4327 42.0597H36.2976V39.4245H42.5607L40.493 43.5126H42.8716V46.1611H42.8717ZM49.3546 45.2113C48.6678 45.8836 47.8243 46.2195 46.8242 46.2195C45.8472 46.2195 45.0261 45.8914 44.3618 45.2343C43.6974 44.5778 43.3652 43.7688 43.3652 42.8068C43.3652 42.709 43.3744 42.5535 43.3926 42.3398H47.223C47.2814 42.5311 47.3104 42.7072 47.3104 42.8669C47.3104 43.0898 47.2704 43.3079 47.1889 43.5217H45.9052C45.9957 44.016 46.2768 44.2633 46.7499 44.2633C47.065 44.2633 47.3219 44.1303 47.5198 43.8655C47.7183 43.6006 47.8174 43.2611 47.8174 42.8469C47.8174 42.4151 47.7214 42.0659 47.5302 41.7986C47.3389 41.5314 47.0875 41.3978 46.7766 41.3978C46.5246 41.3978 46.2817 41.5229 46.0473 41.772L44.6082 40.0623C45.2792 39.5418 46.0249 39.2813 46.8446 39.2813C47.8441 39.2813 48.6846 39.6129 49.364 40.2761C50.0448 40.9393 50.3842 41.761 50.3842 42.7407C50.3845 43.7154 50.0413 44.539 49.3546 45.2113ZM54.4555 42.0172C54.28 41.9182 54.1203 41.8684 53.9764 41.8684C53.5167 41.8684 53.2872 42.2201 53.2872 42.9228V46.1186H50.7604V42.4356C50.7604 41.4627 51.0258 40.6871 51.5577 40.1083C52.089 39.5295 52.7983 39.2398 53.6855 39.2398C53.8834 39.2398 54.1404 39.2648 54.4555 39.314V42.0172ZM61.0628 45.2404C60.3742 45.9157 59.5271 46.2541 58.5227 46.2541C58.0181 46.2541 57.5262 46.1435 57.0465 45.9224C56.5668 45.7019 56.1715 45.405 55.8612 45.0308C55.3207 44.3822 55.0505 43.5417 55.0505 42.5104V36.8949H57.5773V42.4156C57.5773 43.312 57.8991 43.7602 58.5434 43.7602C58.8179 43.7602 59.0511 43.6667 59.2424 43.4796C59.4337 43.2931 59.5296 43.0666 59.5296 42.8006C59.5296 42.5261 59.4391 42.2952 59.2594 42.1082C59.0791 41.9211 58.8586 41.8276 58.5976 41.8276C58.4123 41.8276 58.201 41.909 57.9624 42.0711V39.287C58.2593 39.2597 58.4846 39.2464 58.6376 39.2464C59.5879 39.2464 60.4022 39.589 61.0799 40.2734C61.7582 40.9584 62.097 41.7826 62.097 42.7464C62.0969 43.7336 61.7521 44.5644 61.0628 45.2404ZM69.866 46.1187H67.3392V42.9969C67.3392 42.641 67.2523 42.3574 67.0793 42.1454C66.9057 41.9341 66.6724 41.8278 66.3798 41.8278C66.1144 41.8278 65.8843 41.925 65.6912 42.1187C65.4975 42.3124 65.4004 42.5421 65.4004 42.8074C65.4004 43.0868 65.4885 43.317 65.6639 43.4967C65.8394 43.6771 66.0623 43.767 66.3331 43.767C66.5536 43.767 66.7582 43.7086 66.9477 43.5915V46.2067C66.7406 46.2425 66.5512 46.2607 66.3799 46.2607C65.367 46.2607 64.5223 45.9273 63.8465 45.2604C63.1713 44.5935 62.833 43.7584 62.833 42.7533C62.833 41.7761 63.1742 40.9471 63.8567 40.2668C64.5393 39.5866 65.3688 39.2465 66.3464 39.2465C67.4364 39.2465 68.2956 39.5653 68.9236 40.2024C69.552 40.8402 69.866 41.7105 69.866 42.8146V46.1187ZM77.284 45.3959C77.284 46.517 76.9688 47.4226 76.3385 48.1119C75.5862 48.9317 74.6765 49.3417 73.609 49.3417C73.1409 49.3417 72.6744 49.2518 72.2105 49.0715V46.8753C72.5529 47.0192 72.8523 47.0915 73.1092 47.0915C73.9289 47.0915 74.4603 46.6299 74.7032 45.7062C74.2617 45.9679 73.8294 46.0985 73.4062 46.0985C72.7801 46.0985 72.2645 45.8653 71.8589 45.3989C71.4539 44.9325 71.2511 44.3391 71.2511 43.6187V39.3819H73.7779V43.0034C73.7779 43.4043 73.9442 43.6047 74.2776 43.6047C74.5976 43.6047 74.7573 43.3843 74.7573 42.9427V39.3819H77.284V45.3959H77.284ZM84.3103 45.3212C83.6575 45.9474 82.862 46.2608 81.9257 46.2608C80.9347 46.2608 80.0978 45.9158 79.4159 45.2265C78.7333 44.5378 78.3921 43.693 78.3921 42.6926C78.3921 41.7421 78.7365 40.9295 79.4256 40.2535C80.1148 39.5775 80.9413 39.2398 81.905 39.2398C82.7473 39.2398 83.4906 39.5059 84.1348 40.0373C84.7785 40.5687 85.1799 41.2465 85.3371 42.0713L82.777 42.1655C82.5559 41.8776 82.2766 41.733 81.9389 41.733C81.6505 41.733 81.4143 41.8278 81.2297 42.0173C81.0451 42.2062 80.9529 42.4455 80.9529 42.7334C80.9529 43.0261 81.0506 43.2715 81.2467 43.4701C81.4422 43.668 81.687 43.7671 81.9797 43.7671C82.4072 43.7671 82.7114 43.5174 82.8917 43.017L85.3978 42.9229C85.3263 43.8957 84.9631 44.695 84.3103 45.3212ZM93.1609 46.1187H90.6341V42.9969C90.6341 42.641 90.5473 42.3574 90.3743 42.1454C90.2006 41.9341 89.9674 41.8278 89.6747 41.8278C89.4087 41.8278 89.1792 41.925 88.9855 42.1187C88.7918 42.3124 88.6953 42.5421 88.6953 42.8074C88.6953 43.0868 88.7833 43.317 88.9589 43.4967C89.1344 43.6771 89.3572 43.767 89.6274 43.767C89.8485 43.767 90.0531 43.7086 90.2426 43.5915V46.2067C90.0349 46.2425 89.8461 46.2607 89.6748 46.2607C88.6613 46.2607 87.8166 45.9273 87.1414 45.2604C86.4656 44.5935 86.1279 43.7584 86.1279 42.7533C86.1279 41.7761 86.4691 40.9471 87.1517 40.2668C87.8336 39.5866 88.6637 39.2465 89.6407 39.2465C90.7307 39.2465 91.5899 39.5653 92.2185 40.2024C92.847 40.8402 93.1609 41.7105 93.1609 42.8146V46.1187ZM100.64 46.1187H98.1129V42.3142C98.1129 41.9268 97.9531 41.7329 97.6331 41.7329C97.318 41.7329 97.1601 41.9267 97.1601 42.3142V46.1187H94.6333V42.3616C94.6333 41.4834 94.9241 40.7436 95.5053 40.1418C96.0858 39.5405 96.7975 39.2398 97.6398 39.2398C98.6034 39.2398 99.3765 39.5891 99.957 40.2869C100.412 40.8323 100.64 41.5915 100.64 42.5645V46.1187H100.64Z" fill="#24BA9D"/>
<path d="M10.6798 20.9575V12.8639C12.5333 12.8639 13.4601 12.1557 13.4601 10.7387C13.4601 9.4427 12.7516 8.79453 11.3353 8.79453C9.9035 8.79453 9.18796 9.684 9.18796 11.4623V31.6283H0.0107422V12.4119C0.0107422 10.4224 0.210269 8.79111 0.609724 7.51729C1.00878 6.24388 1.69083 5.05697 2.65537 3.95657C3.7404 2.73576 5.09656 1.77135 6.72405 1.06283C8.35154 0.354606 10.0316 0.000244141 11.7647 0.000244141C14.8989 0.000244141 17.5323 1.05538 19.6647 3.16536C21.7968 5.27565 22.8632 7.89036 22.8632 11.0102C22.8632 14.0397 21.9061 16.4964 19.9925 18.3803C18.2442 20.1137 15.6073 20.9802 12.0811 20.9802L10.6798 20.9575Z" fill="#E03D22"/>
<path d="M35.8378 0.768677V31.6283H26.6606V0.768677H35.8378Z" fill="#E03D22"/>
<path d="M41.376 31.6283V11.5978C41.376 8.08616 42.4271 5.2754 44.5292 3.16512C46.6313 1.05514 49.4302 0 52.9265 0C56.4074 0 59.0709 1.02517 60.9169 3.0747C62.7626 5.12463 63.6858 8.07098 63.6858 11.9143V31.6283H54.5087V11.9143C54.5087 10.0305 53.838 9.0884 52.497 9.0884C51.2007 9.0884 50.5531 10.0305 50.5531 11.9143V31.6283H41.376Z" fill="#E03D22"/>
<path d="M102.519 0.768677V20.7765C102.519 24.3034 101.468 27.1219 99.3657 29.2318C97.2635 31.3421 94.4642 32.397 90.9683 32.397C87.4874 32.397 84.8236 31.3722 82.9779 29.3223C81.1318 27.2727 80.209 24.326 80.209 20.4826V0.768677H89.3861V20.46C89.3861 22.3443 90.0565 23.2859 91.3979 23.2859C92.6937 23.2859 93.3417 22.3442 93.3417 20.46V0.768677H102.519Z" fill="#E03D22"/>
<path d="M118.138 20.9574V12.8638C119.992 12.8638 120.918 12.1556 120.918 10.7386C120.918 9.44258 120.21 8.7944 118.794 8.7944C117.362 8.7944 116.646 9.68388 116.646 11.4621V31.6282H107.469V12.4118C107.469 10.4223 107.669 8.79098 108.068 7.51717C108.467 6.24376 109.149 5.05685 110.114 3.95645C111.199 2.73564 112.555 1.77123 114.183 1.06271C115.81 0.354484 117.49 0.00012207 119.223 0.00012207C122.357 0.00012207 124.991 1.05526 127.123 3.16524C129.255 5.27552 130.322 7.89024 130.322 11.0101C130.322 14.0395 129.365 16.4963 127.451 18.3802C125.703 20.1136 123.066 20.9801 119.54 20.9801L118.138 20.9574Z" fill="#E03D22"/>
</svg>
