<svg xmlns="http://www.w3.org/2000/svg" viewBox="0 0 1232.66 1232.66"><g data-name="Слой 2"><g data-name="1"><circle cx="616.33" cy="616.33" r="616.33" transform="rotate(-45 616.331 616.327)" fill="#f38f00"/><path d="M804.39 518.22a100.48 100.48 0 0031.8-62.49 141.38 141.38 0 00-14-78.53 115.16 115.16 0 00-87.31-70 326 326 0 00-130.49 11.12L562.27 202.7l-67.44 24.54 40.91 112.39-57.8 21L437 248.28 366.39 274l42.07 115.6L264 442.18l28 77.07 51.38-18.7A45.49 45.49 0 01379 498.5a36.87 36.87 0 0117.81 19l115.71 317.9.12.32a18.78 18.78 0 01-3.91 19.24c-5.25 5.55-7.3 9.93-13.72 12.27l-51.38 18.7 15.5 92.54 144.5-52.59 43.25 118.81 70.65-25.69-43.24-118.87 57.8-21 43.24 118.81L846 972.19l-43.27-118.81a700.77 700.77 0 0079.95-40 179 179 0 0054.91-49.06A212.37 212.37 0 00966.17 703a163 163 0 00-3.23-78.83 140.7 140.7 0 00-58.7-91.37 221.2 221.2 0 00-99.86-14.57zm-291.68-72L554.45 431c3.24-1.43 6.57-2.77 9.91-4a159.86 159.86 0 0147-9.47 90 90 0 0156.35 5A61.85 61.85 0 01707 460.25c.27.74.52 1.5.77 2.24.57 1.27 1.11 2.57 1.59 3.87a51.64 51.64 0 01-7.71 49.27 178.92 178.92 0 01-40 40 336.57 336.57 0 01-52.25 26.28l-45 16.38-51.69-152.09zM643.9 816.64L586.63 659.3 638 640.6c3.74-1.55 7.62-3.09 11.45-4.49a251.16 251.16 0 01124.29-12.18A62.15 62.15 0 01817.16 663c.35 1 .69 2 1 3s.73 1.8 1.06 2.69a56.42 56.42 0 01-9.22 54.77A122.82 122.82 0 01760.38 767a511 511 0 01-65.1 31z" fill="#fff" fill-rule="evenodd"/></g></g></svg>