<svg width="36" height="36" fill="none" xmlns="http://www.w3.org/2000/svg"><path d="M16.018 23.257L12.67 19.91l-1.508 4.855 4.855-1.508zm7.308-3.347l-3.347 3.347 4.855 1.508-1.508-4.855zm-3.347-7.308l3.347 3.347 1.508-4.855-4.855 1.508zM10.403 8.65l6.54 2.031V0l-7.01 7.132.47 1.518zm2.268 7.3l3.347-3.348-4.855-1.508 1.508 4.855zm.999 1.98l4.324-4.324 4.325 4.324-4.325 4.324-4.323-4.324zm5.383-7.249l6.54-2.031.472-1.518L19.053 0v10.681zm6.194 8.303l2.032 6.54 1.517.472L36 18.984H25.247zm.346 8.226l-6.54-2.032V36l7.012-7.273-.472-1.517zM10.75 16.875l-2.032-6.54-1.517-.472L0 16.875h10.75zm16.529-6.54l-2.032 6.54H36l-7.204-7.012-1.517.472zM8.718 25.525l2.032-6.54H0l7.2 7.01 1.518-.47zm8.226-.347l-6.54 2.032-.472 1.517L16.944 36V25.178z" fill="#4F71C9"/></svg>