<svg xmlns="http://www.w3.org/2000/svg" width="105" height="72"><path d="M81.3 57.4c.186 4.448 2.733 7.394 7.209 7.394a6.289 6.289 0 006.027-3.571h9.88C102.5 68.74 95.6 72 88.387 72c-10.5 0-17.649-6.391-17.649-17.294 0-9.963 7.893-17.106 17.4-17.106 11.561 0 17.341 8.772 16.841 19.8H81.3zm13.116-5.952c-.19-3.635-2.738-6.643-6.281-6.643-3.729 0-6.215 2.695-6.835 6.643h13.116zM43.648 57.4c.186 4.448 2.735 7.394 7.209 7.394a6.3 6.3 0 006.029-3.571h9.882C64.84 68.74 57.942 72 50.733 72c-10.5 0-17.65-6.391-17.65-17.294 0-9.963 7.893-17.106 17.4-17.106 11.559 0 17.339 8.772 16.842 19.8H43.648zm13.114-5.952c-.188-3.635-2.735-6.643-6.277-6.643-3.729 0-6.215 2.695-6.837 6.643h13.114zM9.844 62.8h3.849c6.13 0 7.024-5.008 7.024-8.03 0-2.031-.626-7.67-7.74-7.67H9.844v15.7zM0 38.847h16.153c10.649 0 14.408 7.94 14.408 16.061 0 9.88-5.19 16.15-16.332 16.15H0V38.847zM104.98 19.8C105.48 8.772 99.7 0 88.139 0c-9.508 0-17.4 7.143-17.4 17.106 0 10.9 7.146 17.294 17.649 17.294 7.213 0 14.113-3.258 16.033-10.777h-9.88a6.287 6.287 0 01-6.027 3.571c-4.476 0-7.023-2.945-7.209-7.394h23.676zM81.3 13.848c.62-3.948 3.106-6.642 6.835-6.642 3.543 0 6.091 3.009 6.281 6.642H81.3zM67.327 19.8C67.827 8.772 62.044 0 50.485 0c-9.509 0-17.4 7.143-17.4 17.106 0 10.9 7.147 17.294 17.65 17.294 7.209 0 14.107-3.258 16.035-10.777h-9.882a6.3 6.3 0 01-6.029 3.571c-4.474 0-7.023-2.945-7.209-7.394h23.679zm-23.679-5.953c.622-3.948 3.108-6.642 6.837-6.642 3.542 0 6.089 3.009 6.277 6.642H43.648zm-33.8-4.343h3.133c7.114 0 7.74 5.638 7.74 7.669 0 3.023-.894 8.03-7.024 8.03H9.848V9.5zM0 33.46h14.23c11.142 0 16.332-6.27 16.332-16.151 0-8.12-3.759-16.06-14.408-16.06H0V33.46z" fill-rule="evenodd"/></svg>