<svg width="279" height="56" fill="none" xmlns="http://www.w3.org/2000/svg"><path d="M84 19v9m0 9v-9m0 0h9m-9 0h-9m130-4h-18m18 8h-18" stroke="#4A4A4A" stroke-width="1.8" stroke-linecap="round" stroke-linejoin="round"/><circle cx="28" cy="28" r="27.5" fill="#fff" stroke="#CDD9D8"/><path fill-rule="evenodd" clip-rule="evenodd" d="M27.072 13.94c-8.402.714-15.102 7.853-15.102 16.53C11.97 39.586 19.384 47 28.5 47c9.116 0 16.53-7.414 16.53-16.53 0-8.677-6.7-15.761-15.212-16.475-1.217-.158-2.338-.103-2.746-.055zM13.068 30.47c0 8.457 6.975 15.377 15.432 15.377s15.43-6.865 15.43-15.377-6.919-15.432-15.43-15.432c-8.512 0-15.432 6.975-15.432 15.432z" fill="#8D9190"/><path d="M38.44 20.475a14.049 14.049 0 00-9.94-4.119 14.049 14.049 0 00-9.94 4.12c-5.546 5.49-5.546 14.442-.054 19.934a14.06 14.06 0 009.94 4.119A14.06 14.06 0 0042.504 30.47a14.22 14.22 0 00-4.064-9.995zm-.823 19.111c-5.053 5.053-13.29 5.053-18.398 0-4.997-4.997-4.997-13.235.055-18.342 2.472-2.471 5.712-3.79 9.171-3.79a12.97 12.97 0 019.172 3.79c2.47 2.471 3.789 5.711 3.789 9.171 0 3.46-1.373 6.755-3.79 9.171z" fill="#8D9190"/><rect x="23.558" y="7.909" width="7.818" height="1.303" rx=".652" transform="rotate(45 23.558 7.91)" fill="#8D9190"/><rect x="34.299" y="8.83" width="7.818" height="1.303" rx=".652" transform="rotate(135 34.299 8.83)" fill="#8D9190"/><circle cx="251" cy="28" r="27.5" fill="#fff" stroke="#CDD9D8"/><path d="M252.757 17.53l5.079-4.765s0-.052.053-.052c.052-.053.052-.053.052-.105v-.367s0-.052-.052-.052v-.052l-2.252-3.875a.55.55 0 00-.471-.262h-7.383a.55.55 0 00-.472.262l-2.304 3.822v.053s0 .052-.052.052v.367c0 .052.052.052.052.104 0 0 0 .053.053.053l5.079 4.765c-8.011.68-14.4 7.487-14.4 15.76 0 8.693 7.069 15.762 15.761 15.762 8.693 0 15.762-7.069 15.762-15.761 0-8.273-6.389-15.028-14.505-15.709zm-.052-1.361l1.309-3.247h2.147l-3.456 3.247zm2.147-7.07l1.675 2.776h-2.618L252.286 9.1h2.566zm-2.147 2.776h-2.618l1.309-2.2 1.309 2.2zM248.097 9.1h2.461l-1.623 2.775h-2.461l1.623-2.775zm-1.257 3.822h1.99l1.257 3.037-3.247-3.037zm3.09 0h2.932l-1.466 3.613-1.466-3.613zM251.5 47.9c-8.063 0-14.713-6.597-14.713-14.661s6.597-14.714 14.713-14.714c8.117 0 14.714 6.598 14.714 14.714S259.564 47.9 251.5 47.9z" fill="#8D9190"/><path d="M260.978 23.709a13.395 13.395 0 00-9.478-3.927c-3.56 0-6.964 1.413-9.477 3.927-5.289 5.236-5.289 13.771-.053 19.008a13.41 13.41 0 009.478 3.927 13.406 13.406 0 0013.405-13.405c0-3.56-1.361-6.964-3.875-9.53zm-.785 18.222c-4.818 4.817-12.672 4.817-17.542 0-4.765-4.765-4.765-12.62.053-17.49 2.356-2.355 5.445-3.612 8.744-3.612 3.299 0 6.441 1.309 8.745 3.613 2.356 2.356 3.613 5.446 3.613 8.745 0 3.298-1.309 6.44-3.613 8.744z" fill="#8D9190"/><circle cx="140" cy="28" r="27.5" fill="#fff" stroke="#CDD9D8"/><path d="M160.303 27.394v-.243l-7.636-13.575a.636.636 0 00-.545-.303h-24.425a.636.636 0 00-.545.303l-7.515 13.575v.364c0 .06 0 .121.06.182v.06c0 .061.061.122.122.182l19.757 19.88A.55.55 0 00140 48a.55.55 0 00.425-.182l19.757-19.879c.061-.06.061-.12.121-.181v-.061c0-.06 0-.121.061-.182-.061-.06-.061-.06-.061-.121zm-32.242-12.91h10.727L132 26.789h-10.788l6.849-12.303zm11.636.85L146 26.848h-12.606l6.303-11.516zM121.637 28h10.303l6.363 16.727L121.637 28zm18.06 17.212L133.212 28h13.031l-6.546 17.212zm1.212.242L147.516 28h10.727l-17.334 17.455zm6.485-18.666l-6.727-12.303h11.152l6.848 12.303h-11.273z" fill="#8D9190"/><path d="M129.94 16.303c-.303-.182-.667-.06-.849.242l-3.818 6.607c-.182.303-.061.666.242.848.122.06.182.06.303.06a.724.724 0 00.546-.302l3.818-6.606a.75.75 0 00-.242-.849z" fill="#8D9190"/></svg>