<svg xmlns="http://www.w3.org/2000/svg" viewBox="0 0 159.22 159.22"><g data-name="Слой 2"><g data-name="1"><circle cx="79.61" cy="79.61" r="79.61" transform="rotate(-45 79.608 79.615)" fill="#50b159"/><path d="M103.9 66.94a12.94 12.94 0 004.1-8.07 18.18 18.18 0 00-1-8.24 18.92 18.92 0 00-.82-1.91 14.87 14.87 0 00-11.28-9 42.14 42.14 0 00-16.86 1.43l-5.41-14.97-8.71 3.17 5.28 14.52-7.46 2.72-5.29-14.52-9.12 3.32 5.43 14.93-18.66 6.8 3.62 9.95 6.64-2.41a4 4 0 01.6-.26 5.91 5.91 0 014 0 4.78 4.78 0 012.3 2.45l14.94 41.06a2.41 2.41 0 01-.51 2.48c-.67.72-.94 1.28-1.77 1.59l-6.63 2.41 2 12 18.71-6.8 5.59 15.35 9.12-3.32-5.61-15.35 7.46-2.72 5.59 15.35 9.13-3.32-5.59-15.35a90.51 90.51 0 0010.31-5.17 23.22 23.22 0 007.09-6.33 27.51 27.51 0 003.69-7.92 20.93 20.93 0 00-.42-10.19 18.05 18.05 0 00-7.58-11.8 28.55 28.55 0 00-12.9-1.88zm-37.67-9.3l5.39-2c.42-.18.85-.35 1.28-.51a20.67 20.67 0 016.1-1.19 11.59 11.59 0 017.28.64 8 8 0 015.07 4.87c0 .1.07.2.1.29s.14.33.2.5a6.64 6.64 0 01-1 6.36 22.85 22.85 0 01-5.17 5.17 43 43 0 01-6.74 3.4l-5.81 2.11-6.7-19.64zm16.94 47.85l-7.39-20.33 6.63-2.41c.49-.2 1-.4 1.48-.58A32.5 32.5 0 01100 80.59a8 8 0 015.6 5c0 .13.09.25.13.38a3.65 3.65 0 01.14.35 7.31 7.31 0 01-1.19 7.08 15.83 15.83 0 01-6.41 5.62 66 66 0 01-8.41 4z" fill="#fff" fill-rule="evenodd"/></g></g></svg>