<svg version="1.1" id="_x31_" xmlns="http://www.w3.org/2000/svg" x="0" y="0" viewBox="0 0 850 850" xml:space="preserve"><style>.st0{fill:#4b4b78}.st0,.st1,.st2,.st3{fill-rule:evenodd;clip-rule:evenodd}.st1{fill:#622891}.st2{fill:#4d1e73}.st3{fill:#e1ebf5}.st11,.st12,.st13{fill-rule:evenodd;clip-rule:evenodd}.st4{fill:#bed2eb}.st4,.st5,.st8,.st9{fill-rule:evenodd;clip-rule:evenodd}.st5{fill:#a5b9cd}.st8{fill:#5a5f9b}.st9{fill:#f0f5fa}.st11{fill:#8c91cd}.st12{fill:#4b4e78}.st13{fill:#ebbe9e}.st14{fill:#ae63eb}.st14,.st15,.st16,.st17,.st18,.st19{fill-rule:evenodd;clip-rule:evenodd}.st15{fill:#fff}.st16{fill:#5c629e}.st17{fill:#39bc80}.st18{fill:#1e915f}.st19{fill:#7f37b9}.st20{fill:#105738}.st20,.st22,.st23{fill-rule:evenodd;clip-rule:evenodd}.st22{fill:#3d3f63}.st23{fill:#fbceae}</style><switch><g><path class="st0" d="M423.3 507.8c0 17 24.5 28.9 38.2 3.3l11.7-21.2c3.6-5.8 5.9-13.3 6-20.9 0-14.1-7.8-23.2-17.5-20.3l-7.6 2.3-.6 3.1c-1.7 1.8-3.3 4.1-4.7 6.5-5.4 9.3-25.4 40.6-25.5 47.2z"/><path class="st1" d="M422.8 504.6c0 14.1 7.8 23.1 17.4 20.2 4.5-1.3 8.6-5 11.7-10 .4-.6.8-1.3 1.2-2l14.1-25.3c3.6-5.7 5.9-13.2 5.9-20.8 0-14.1-7.8-23.1-17.4-20.2-5 1.5-9.6 5.9-12.8 11.8L431.4 478c-3.2 5.6-8.6 19.4-8.6 26.6z"/><path class="st2" d="M467.8 486.4c3.3-5.6 5.3-12.6 5.3-19.8 0-14.1-7.8-23.1-17.4-20.2-5 1.5-9.6 5.9-12.8 11.8l-6 10.4 30.9 17.8z"/><path class="st0" d="M376.3 472.8c0 15.3 22 25.9 34.3 3l10.5-19c3.3-5.2 5.3-11.9 5.4-18.8 0-12.7-7-20.9-15.7-18.3l-6.8 2-.5 2.8c-1.6 1.7-3 3.6-4.2 5.8-4.9 8.4-22.9 36.5-23 42.5z"/><path class="st1" d="M375.9 469.8c0 12.6 7 20.8 15.6 18.2 4-1.2 7.7-4.5 10.5-9 .4-.6.7-1.2 1-1.8l12.6-22.7c3.3-5.2 5.3-11.9 5.3-18.7 0-12.6-7-20.8-15.6-18.2-4.5 1.3-8.6 5.3-11.4 10.6L383.6 446c-2.9 5.1-7.7 17.4-7.7 23.8z"/><path class="st2" d="M414.9 455.9l.8-1.4c3.3-5.2 5.3-11.9 5.3-18.7 0-12.6-7-20.8-15.6-18.2-4.5 1.3-8.6 5.3-11.4 10.6l-6.7 11.6 27.6 16.1z"/><path class="st3" d="M497.5 599.2l10.9 6.3 121.5-70.1v-150l-132.4 76.5z"/><path class="st4" d="M508.4 468.1v137.4l121.5-70.1V398z"/><path class="st5" d="M508.4 468.1v12.6l121.5-70.1V398z"/><path class="st3" d="M230.9 439.2l10.9 6.3 121.5-70.1v-150l-132.4 76.5z"/><path fill-rule="evenodd" clip-rule="evenodd" fill="#7980a6" d="M241.8 308.1v137.4l121.5-70.1V238z"/><path fill-rule="evenodd" clip-rule="evenodd" fill="#a6b8cf" stroke="#4b4b78" stroke-width=".216" stroke-miterlimit="22.926" d="M241.8 308.1v12.6l121.5-70.1V238z"/><path class="st0" d="M252.7 451.8l-10.9-6.3 30.1-17.3v12.6z"/><path class="st8" d="M252.7 451.8v-12.6l-10.9 6.3z"/><path class="st0" d="M338 402.6l-10.9-6.3 30-17.3v12.6z"/><path class="st8" d="M338 402.6V390l-10.9 6.3z"/><path class="st4" d="M363.3 225.4l271.8 157V395L489 479.3 217.2 322.4v-12.6z"/><path class="st3" d="M489 466.7v12.6L206.9 316.5v-12.6z"/><path class="st9" d="M353 219.5l282.1 162.9L489 466.7 206.9 303.9z"/><path class="st4" d="M498.2 394.5l38.9 22.5-56.8 32.8-38.9-22.5zm-53-121.7l117.3 67.7v14.3l-4.8 2.8L428.3 283zm-84.2 120l-21.7-12.5 13.5-19.1c4-5.6 11.8-6.9 17.4-3 5.6 4 6.9 11.8 3 17.4L361 392.8v12.6l-24.8-14.3v-12.6l24.8 14.3zm-135.5-78.2l-2.5-4.3 80.5-46.5 11.8 20.5-71.2 41.2V338l-24.9-14.4v-.8c0-3.7 1.6-7 4.2-9.3l2.1 1.1zm246.9 50.9c9.7 0 17.6 4.5 17.6 10 0 2.6-1.7 4.9-4.5 6.7-.4.2-.7.4-1.1.7l-10.6 6.1c-3.2 2.1-7.9 3.4-13.1 3.4-9.7 0-17.6-4.5-17.6-10 0-2.9 2.1-5.5 5.5-7.3l11.3-6.5c3.1-2 7.6-3.1 12.5-3.1z"/><path class="st0" d="M355.9 290.2l59.3-34.2.7 1.2-59.3 34.2z"/><path fill-rule="evenodd" clip-rule="evenodd" fill="none" stroke="#4b4b78" stroke-width="1.417" stroke-linecap="round" stroke-miterlimit="22.926" d="M470.2 370.9l70.6-40.8"/><path class="st0" d="M467.3 363.5c7 0 13 2.3 15.7 5.7h1.6v4.1c0 2.5-1.7 4.9-4.4 6.6-.4.2-.7.4-1.1.7l-10.3 6c-3.2 2-7.8 3.3-13 3.3-9.6 0-17.4-4.4-17.4-9.9v-4.3l2-.3c.9-1 2.1-1.9 3.5-2.6l11-6.4c3.1-1.7 7.5-2.9 12.4-2.9z"/><path class="st11" d="M467.3 359.3c9.5 0 17.3 4.4 17.3 9.9 0 2.5-1.7 4.8-4.4 6.6-.4.2-.7.4-1.1.6l-10.5 6c-3.2 2-7.8 3.3-12.9 3.3-9.5 0-17.3-4.4-17.3-9.9 0-2.8 2.1-5.4 5.4-7.2l11.1-6.4c3.2-1.7 7.6-2.9 12.4-2.9z"/><path class="st0" d="M467.3 359.3c9.6 0 17.4 4.4 17.4 9.9 0 2.5-1.7 4.9-4.4 6.6-.4.2-.7.4-1.1.7l-3.4 2v-.9c0-7.4-8.9-13.5-20.9-15.2 3.1-1.9 7.5-3.1 12.4-3.1z"/><path class="st4" d="M466 284.7l54.2 31.4-40.3 23.3-54.3-31.4zm-115.6 1.8l102.9 59.3-46.7 26.9-102.8-59.3zm234 66.6l50.7 29.3-85.5 49.3-50.6-29.2z"/><path class="st12" d="M394.3 272.8c5.5 0 10.4 1.3 14.1 3.3 3.7 2.1 6 5.1 6 8.4 0 3.3-2.3 6.3-6 8.4-3.6 2.1-8.6 3.3-14.1 3.3s-10.4-1.3-14.1-3.3c-3.7-2.1-6-5.1-6-8.4 0-.6.1-1.2.2-1.8l2-1.1c-.5.9-.8 1.9-.8 3 0 2.8 2 5.3 5.3 7.2 3.4 1.9 8.1 3.1 13.4 3.1 5.2 0 9.9-1.2 13.4-3.1 3.3-1.9 5.3-4.4 5.3-7.2s-2-5.3-5.3-7.2c-3.4-1.9-8.1-3.1-13.4-3.1-5.2 0-9.9 1.2-13.4 3.1l-.2.1-5.4 3.1c1-1.7 2.7-3.2 4.9-4.4 3.7-2.1 8.7-3.4 14.1-3.4z"/><path class="st13" d="M439.5 501.3c-2.7 6.3-10.1 9.2-16.4 6.5l-44.7-19.6c-6.3-2.7-9.2-10.1-6.5-16.4 2.7-6.3 10.1-9.2 16.4-6.5l44.7 19.6c6.3 2.8 9.2 10.2 6.5 16.4z"/><path class="st0" d="M519.3 611.8l-10.9-6.3 30.1-17.3v12.6z"/><path class="st8" d="M519.3 611.8v-12.6l-10.9 6.3z"/><path class="st0" d="M604.6 562.6l-10.9-6.3 30-17.3v12.6z"/><path class="st8" d="M604.6 562.6V550l-10.9 6.3z"/><path class="st12" d="M237 436.4l41.6-20.6c2.4-1.2 5.4-1.9 8.1-1.9 2.7 0 4.8.6 6.9 1.6l74.2 30h.1l.3.1c6.6 2.9 11.1 9.5 11 17.1-.1 10.2-8.5 18.3-18.6 18.1-2.4 0-4.7-.5-6.8-1.4-.3-.1-.5-.2-.8-.3l-60-25.8-63.1 35.6c-.4.2-.8.5-1.2.7l-.1.1c-4.9 2.6-4.1 4.1-16.4 4-12.3-.2-33.5-15.6-33.3-34.2.3-18.6 20.2-33.5 34.2-33.3 14.1.1 17.8 4 23.9 10.2z"/><path class="st14" d="M566.5 357.8l46 26.6-61.5 35.5-46-26.6z"/><path class="st1" d="M612.5 372v12.4L551 419.9v-12.4z"/><path class="st15" d="M510.4 380.5v12.3l40.6 23.4v-12.3z"/><path class="st14" d="M566.5 345.4l46 26.6-61.5 35.5-46-26.6z"/><path class="st0" d="M457 284.5l48.7 28.2v5.6l-26 15-48.8-28.1v-5.6z"/><path class="st11" d="M457.1 284.4l48.8 28.2-26.2 15.1-48.8-28.1z"/><path class="st16" d="M479.7 327.7v5.6l-48.8-28.1v-5.6zm-4.8-38.3l6.5 10.7v6.5l-6.5 3.8-13.2-7.7v-20.9z"/><path class="st0" d="M474.9 289.4v21l6.5-3.8v-20.9z"/><path class="st16" d="M544.2 221.4v109.4l-4.8 2.8L410 259V149.5l4.9-2.8z"/><path class="st0" d="M539.4 224.2v109.4l4.8-2.8V221.4z"/><path class="st11" d="M539.4 224.2L410 149.5l4.9-2.8 129.3 74.7z"/><path class="st9" d="M532.7 226.8V322l-116.5-67.2v-95.2z"/><path class="st17" d="M566.5 339.1l46.1 26.6-61.5 35.5-46.1-26.6z"/><path class="st18" d="M612.6 353.3v12.4l-61.5 35.5v-12.4z"/><path class="st15" d="M510.5 361.7v12.4l40.6 23.4v-12.3z"/><path class="st17" d="M566.5 326.7l46.1 26.6-61.5 35.5-46.1-26.6z"/><path class="st0" d="M360.7 292.4l82.6 47.7v5.6l-37.1 21.4-82.5-47.6v-5.7z"/><path class="st11" d="M345.5 283.6l97.8 56.5-37.1 21.4-97.8-56.5z"/><path class="st16" d="M406.2 361.5v5.6l-97.8-56.4V305z"/><path class="st0" d="M345.9 288.7l7.5 4.3-7.5 4.3-7.5-4.3 7.5-4.3zm29.7 42.8l-7.5 4.3-29.7-17.1 7.5-4.3 29.7 17.1zM357 295.1l-7.5 4.3 7.5 4.3 7.5-4.3-7.5-4.3zm11.1 6.4l7.5 4.3-7.5 4.3-7.5-4.3 7.5-4.3zm11.1 6.5l-7.5 4.3 7.5 4.3 7.5-4.3-7.5-4.3zm11.1 6.4l7.5 4.3-7.5 4.3-7.5-4.3 7.5-4.3zm11.2 6.4l-7.5 4.3 7.5 4.3 7.5-4.3-7.5-4.3zm11.1 6.4l7.5 4.3-7.5 4.3-7.5-4.3 7.5-4.3zm11.1 6.4l-7.5 4.3 7.5 4.3 7.5-4.3-7.5-4.3zm-11.1 15.1l-7.5-4.3 7.5-4.3 7.5 4.3-7.5 4.3zm-11.1-6.5l7.5-4.3-7.5-4.3-7.5 4.3 7.5 4.3zm-11.2-6.4l-7.5-4.3 7.5-4.3 7.5 4.3-7.5 4.3zm-11.1-6.4l7.5-4.3-7.5-4.3-7.5 4.3 7.5 4.3zm-11.1-6.4l7.5-4.3-7.5-4.3-7.5 4.3 7.5 4.3zm-11.1-6.4l7.5-4.3-7.5-4.3-7.5 4.3 7.5 4.3zm-11.1-6.4l-7.5-4.3 7.5-4.3 7.5 4.3-7.5 4.3zm-11.1-6.4l7.5-4.3-7.5-4.3-7.5 4.3 7.5 4.3zm66.7 51.3l7.5-4.3-7.5-4.3-7.5 4.3 7.5 4.3zm-11.2-6.4l-7.5-4.3 7.5-4.3 7.5 4.3-7.5 4.3zm-11.1-6.5l7.5-4.3-7.5-4.3-7.5 4.3 7.5 4.3zm-44.4-25.6l7.5-4.3-7.5-4.3-7.5 4.3 7.5 4.3zm-11.1-6.4l-7.5-4.3 7.5-4.3 7.5 4.3-7.5 4.3z"/><path class="st14" d="M628.8 514.9l67.1 38.7-67.1 38.7-67.1-38.7z"/><path class="st1" d="M628.8 520.6l57.2 33-57.2 33-57.2-33z"/><path class="st0" d="M675.3 559.8l-46.5 26.8-46.6-26.8 46.6-26.9z"/><path class="st19" d="M561.7 553.6l23.2 76.9 43.9 25.3 43.9-25.3 23.2-76.9-67.1 38.7z"/><path class="st1" d="M695.9 553.6l-23.2 76.9-43.9 25.3v-63.5z"/><path class="st18" d="M676.3 416.5c-20.6-32 78-29.8 84.2 53.2-10-17.7-30.2-26.8-55.9-22.3-45.1 8.1-47.1-23-28.3-30.9z"/><path class="st20" d="M689.6 475.6c-3.2-11.1 15.5-15.2 22.8 3.6 2.7 6.8 4.7 18.1 5.9 28.6-7.2-8.7-22.5-10.5-33.4-11.3-15.9-1.3-14.6-26.3 4.7-20.9z"/><path class="st17" d="M691.5 601.8c10.6-26.2 15.4-40.2 15.6-57.6.4-45.1-33.6-58.4-47-38.3-38.1-.4-36.2 32.9-7 46.8 17.7 8.5 37.8 31.5 38.4 49.1z"/><path d="M630.3 559.8c-5.5-105.3 14.2-143 53.7-143.9m-54.2 92.4c5.3-19 26.5-13.7 30.3-2.3m-22.7-49.3c3.2-13.9-15.7-25.5-31.4-10.5m62.7 18.3c-20.5 9.6-31.8 19.1-38 37.4" fill="none" stroke="#1e915f" stroke-width="2.835" stroke-miterlimit="22.926" fill-rule="evenodd" clip-rule="evenodd"/><path class="st18" d="M649.7 474.6c-25.7-5.4 3.6-26.9 38.2-17.8-3.8 1.8-9.9 14.2-13.6 21-7.1 13.3-29.6 13-24.6-3.2z"/><path class="st17" d="M540.3 505.2c1.2-22.1 4.5-37.7 11.9-53.4 19.3-40.8 55.6-33.7 59-9.7 34.4 16.2 11.1 45.1-10.8 43.6-35.9-2.5-51.8 3.8-60.1 19.5zm151.2 96.6l.1-.1c1.3-6.5 1.9-13.2 1.9-20 0-30-12.8-57-33.3-75.9 0 .1-.1.1-.1.2-38.1-.4-36.2 32.9-7 46.8 17.7 8.4 37.8 31.4 38.4 49z"/><path transform="rotate(-30.031 269.136 281.327)" class="st13" d="M222.7 269.5h93v23.7h-93z"/><path class="st19" d="M236.9 398.2v39.3l72 41.6v19.1l-88.5 51.1-76.5-44.2V363.6l16.5-9.6z"/><path class="st14" d="M236.9 437.5l72 41.6-72 41.6z"/><path class="st16" d="M254.7 455.3l44.4-22.8c2.6-1.4 5.5-2.2 8.6-2.2 2.7 0 5.2.6 7.5 1.6L418 473.8h.1l.3.1c7.1 3 12.1 10 12.1 18.2 0 10.9-8.8 19.8-19.8 19.8-2.6 0-5.1-.5-7.3-1.4-.3-.1-.6-.2-.8-.4l-87.3-37.6-67.3 39.2c-.4.3-.8.5-1.3.7l-.1.1c-5.2 2.9-11.2 4.5-17.5 4.5-20 0-36.3-16.2-36.3-36.3 0-20 16.2-36.3 36.3-36.3 9.9.2 19.1 4.3 25.6 10.9z"/><path class="st17" d="M172 479.6l.4-41.5h1v-99.9c0-20.2 20.6-29 27-26.1l41.8 19.1c7.4 2.4 11.3 5.7 17.2 11.7l29.8 30.4-25.2 23.5.3 74.4c0 14-22.4 25.4-44.5 25.4-22.2 0-36.5-7.3-42.3-17.5l-5.5.5z"/><path class="st18" d="M280.6 386.9l-16.5 9.9.3 74.4c0 10.3-12.2 19.3-27.5 23.2V378l21.1 26 22.6-17.1z"/><path class="st12" d="M184.4 574.1c0 1.9-.4 3.8-1.2 5.4v9.3l-8.9-5.2c-2.1-1.3-3.6-4.1-3.6-7.6 0-5.1 3.1-9.7 6.8-10.2 3.8-.5 6.9 3.2 6.9 8.3z"/><path class="st22" d="M193.2 579.2c0 5.1-3.1 9.7-6.8 10.2-3.8.5-6.8-3.2-6.8-8.3 0-5.1 3.1-9.7 6.8-10.2 3.8-.5 6.8 3.2 6.8 8.3z"/><path class="st12" d="M184.4 633.8c0 1.9-.4 3.8-1.2 5.4v9.3l-8.9-5.2c-2.1-1.3-3.6-4.1-3.6-7.6 0-5.1 3.1-9.7 6.8-10.2 3.8-.5 6.9 3.2 6.9 8.3z"/><path class="st22" d="M193.2 638.9c0 5.1-3.1 9.7-6.8 10.2-3.8.5-6.8-3.2-6.8-8.3 0-5.1 3.1-9.7 6.8-10.2 3.8-.5 6.8 3.2 6.8 8.3z"/><path class="st17" d="M192.4 310.3c10.8 0 19.5 8.7 19.5 19.5 0 8.1-4.9 15-11.8 18V368h-27.2v-38.2c-.1-10.8 8.7-19.5 19.5-19.5z"/><path class="st12" d="M285.8 574.1c0 1.9-.4 3.8-1.2 5.4v9.3l-8.9-5.2c-2.1-1.3-3.6-4.1-3.6-7.6 0-5.1 3.1-9.7 6.8-10.2 3.9-.5 6.9 3.2 6.9 8.3z"/><path class="st22" d="M294.7 579.2c0 5.1-3.1 9.7-6.8 10.2-3.8.5-6.8-3.2-6.8-8.3 0-5.1 3.1-9.7 6.8-10.2 3.7-.5 6.8 3.2 6.8 8.3z"/><path class="st12" d="M285.8 633.5c0 1.9-.4 3.8-1.2 5.4v9.3l-8.9-5.2c-2.1-1.3-3.6-4.1-3.6-7.6 0-5.1 3.1-9.7 6.8-10.2 3.9-.5 6.9 3.2 6.9 8.3z"/><path class="st22" d="M294.7 638.6c0 5.1-3.1 9.7-6.8 10.2-3.8.5-6.8-3.2-6.8-8.3 0-5.1 3.1-9.7 6.8-10.2 3.7-.5 6.8 3.2 6.8 8.3z"/><path class="st11" d="M293.8 619.6v9.8l-12.1 6.9-50.6-29.3-50.9 29.3-12.1-6.9v-9.8l42.5-24.5-42.2-24.4V561l12.1-7 50.6 29.2 50.7-29.2 12.1 7-5.7 13-36.5 21.1z"/><path class="st16" d="M180.2 636.3v-9.7l-12.1-7v9.8z"/><path class="st12" d="M281.7 636.3v-9.7l12.1-7v9.8z"/><path class="st16" d="M242.6 590c0 3.6-5.1 6.5-11.4 6.5-6.3 0-11.4-2.9-11.4-6.5v-17.3h22.9V590z"/><path class="st11" d="M231.1 579.2c6.3 0 11.4-2.9 11.4-6.5s-5.1-6.5-11.4-6.5-11.4 2.9-11.4 6.5 5.1 6.5 11.4 6.5z"/><path class="st4" d="M237.9 570.8v-34.7h-13.6v34.7c0 2.1 3 3.9 6.8 3.9s6.8-1.8 6.8-3.9z"/><path class="st5" d="M237.9 552.5v-16.4h-13.6v16.4c1.9.8 4.2 1.3 6.8 1.3 2.6-.1 4.9-.5 6.8-1.3z"/><path class="st13" d="M364.1 350.7c-1.2 1.9-3.7 2.6-5.6 1.5l-11.8-7.1c-1.9-1.2-2.6-3.7-1.5-5.6 1.1-1.9 3.7-2.6 5.6-1.5l11.8 7.1c2 1.1 2.6 3.6 1.5 5.6z"/><path class="st16" d="M281.7 636.3v-9.8l-50.6-29.4v9.8l50.6 29.4zM219 590.2L168.4 561v9.8l42.2 24.4 8.4-5z"/><path class="st12" d="M180.2 636.3v-9.8l50.9-29.4v9.8l-50.9 29.4zm63-46.1l50.6-29.2v9.8l-42.2 24.4-8.4-5z"/><path class="st13" d="M353.8 356.3c0 2.3-1.9 4.1-4.2 4.1l-2.6-.2c-2.3 0-4.1-1.9-4.1-4.2 0-2.3 1.9-4.1 4.2-4.1l2.6.2c2.3.1 4.1 1.9 4.1 4.2z"/><path class="st19" d="M236.9 378.2v142.5l72-41.6v19.1l-88.5 51.1-76.5-44.2V343.5l16.5-9.5z"/><path class="st13" d="M242.3 331.1c-25.4 30.6-71.7-9.4-29.8-14.3l29.8 14.3z"/><path class="st17" d="M340.1 329.8H327v4.7h13.1c1.1 0 2 .4 2.7 1.1.7.7 1.1 1.7 1.1 2.7v12.8c0 1.1-.4 2-1.1 2.7-.7.7-1.7 1.1-2.7 1.1H327v4.7h13.1c2.4 0 4.5-1 6.1-2.5 1.6-1.6 2.5-3.7 2.5-6.1v-12.8c0-2.4-1-4.5-2.5-6.1-1.6-1.3-3.8-2.3-6.1-2.3z"/><path class="st17" d="M295.6 362.8c0 6.1 8.7 11.1 19.4 11.1s19.4-4.9 19.4-11.1v-36.7h-38.8v36.7z"/><path class="st18" d="M314.9 337.2c10.7 0 19.4-5 19.4-11.1s-8.7-11.1-19.4-11.1-19.4 5-19.4 11.1c.1 6.1 8.8 11.1 19.4 11.1z"/><path class="st0" d="M296.8 330c2.8 4.2 9.8 7.1 18.1 7.1s15.3-3 18.1-7.1c-2.8-4.2-9.8-7.1-18.1-7.1-8.2 0-15.3 3-18.1 7.1z"/><path class="st23" d="M349.4 341c0 2.3-1.9 4.1-4.2 4.1l-2.6-.2c-2.3 0-4.1-1.9-4.1-4.2 0-2.3 1.9-4.1 4.2-4.1l2.6.2c2.3.1 4.1 1.9 4.1 4.2z"/><path class="st8" d="M478.9 644.5c0 12-17.1 21.7-38.1 21.7s-38.1-9.7-38.1-21.7v-74.7h76.2v74.7z"/><ellipse class="st0" cx="440.8" cy="569.8" rx="38.1" ry="21.7"/><path class="st4" d="M464 587.1c-6.3 2.8-14.2 4.4-22.8 4.5-7.3-6-12.4-13-14.3-19.4l30.9-8.3 6.2 23.2z"/><path class="st9" d="M460.7 588.4c-5.8 2-12.6 3.2-19.9 3.2-13.8 0-26-4.2-32.6-10.5l22.6-22.6 29.9 29.9z"/><path class="st0" d="M291.3 228.2h28.2c2.7 0 4.8 2.2 4.8 4.8v54c0 2.7-2.2 4.8-4.8 4.8h-28.2c-2.7 0-4.8-2.2-4.8-4.8v-54c0-2.7 2.2-4.8 4.8-4.8z"/><path class="st9" d="M293.8 231.8H317c2.2 0 4 1.8 4 4v44.4c0 2.2-1.8 4-4 4h-23.2c-2.2 0-4-1.8-4-4v-44.4c.1-2.3 1.9-4 4-4z"/><path class="st23" d="M216.5 296.5c6.9 0 12.5 5.6 12.5 12.5v18.9c0 3.9-5.6 7.1-12.5 7.1s-12.5-3.2-12.5-7.1V309c0-6.9 5.6-12.5 12.5-12.5z"/><path class="st23" d="M220.7 211.8c20.5 0 37.3 16.8 37.3 37.3v31.7c0 20.5-16.8 37.3-37.3 37.3-4.8 0-9.4-.9-13.6-2.6 4.1-2.7 6.8-7.4 6.8-12.6V290c0-8.4-6.9-15.2-15.2-15.2-7.2 0-13.2 5-14.8 11.7-.3-1.8-.4-3.7-.4-5.6v-31.7c0-20.6 16.7-37.4 37.2-37.4z"/><path class="st12" d="M220.8 275c10.6 14.5 1.6 35.7-17 35.7-10.4 0-28.8-11.3-21.1-32.2-10.6-6.5-8-19.6-.1-23-20-23 3.8-53.2 29.2-43.4 5.3-7.8 22.5-13.7 33.8-.1 7.9 9.4 18.6 8.6 24.4 1.3 8.4 10.9 2.3 24.2-6.5 28.5-6.4 3.1-14.6 2.6-21.2-3.2-4.1 9.4-1.4 20.5 5.7 27l-13.4 1.6-13.8 7.8z"/><path class="st23" d="M228.6 251.9c5.3 0 9.6 4.3 9.6 9.6v8.1c0 5.3-4.3 9.6-9.6 9.6s-9.6-4.3-9.6-9.6v-8.1c.1-5.3 4.4-9.6 9.6-9.6zm128.8 92.2c7.7 0 13.9 6.2 13.9 13.9s-6.2 13.9-13.9 13.9-8.5-9-8.5-13.9.4-3.9 1.2-5.6h-7.4c-2.3 0-4.1-1.8-4.2-4.1 0-2.3 1.8-4.1 4.1-4.2l13.8-.1h.5c.2.1.3.1.5.1z"/><path class="st17" d="M249.5 357.4c9.3-6.4 20.4-5.8 24.6 1.3 4.2 7.2.1 18.2-9.2 24.6-9.3 6.4-20.4 5.8-24.6-1.3-4.3-7.1-.2-18.2 9.2-24.6z"/><path class="st20" d="M264.7 376.7c9-8 20.6-9 25.7-2.2 5.2 6.8 2 18.8-7 26.8s-20.6 9-25.7 2.2c-5.2-6.7-2.1-18.7 7-26.8z"/><path class="st23" d="M304.1 433.7l-34.8-34.2c-4.8-4.7-5-12.8-.2-17.6 4.8-4.9 12.7-5 17.6-.2l24.4 24 36.6-51.7c4-5.6 11.8-6.9 17.4-3 5.6 4 6.9 11.8 3 17.4l-44.9 63.4c-4.4 6.1-13.5 7.4-19.1 1.9z"/><path class="st9" d="M299.9 286.6h11c.7 0 1.2.6 1.2 1.2 0 .7-.6 1.2-1.2 1.2h-11c-.7 0-1.2-.6-1.2-1.2 0-.7.5-1.2 1.2-1.2z"/><path class="st1" d="M465.3 261.6l19.2 11.1v-36.4l-19.2-11.1z"/><path class="st17" d="M490.8 276.3l19.2 11.1v-50.7l-19.2-11.1z"/><path class="st1" d="M439.9 246.9l19.2 11.1v-21.9L439.9 225z"/><path class="st0" d="M428.6 192.1l-4.9-2.8v-2.2l4.9 2.9v-15.3l2.1 1.3v75.6l96.8 55.9v2.1l-97.8-56.4-1.1-.7-4.9-2.8v-2.1l4.9 2.8v-9.9l-4.9-2.9v-2.1l4.9 2.8v-9.9l-4.9-2.9v-2.1l4.9 2.8v-9.9l-4.9-2.9v-2.1l4.9 2.9v-10l-4.9-2.9v-2.1l4.9 2.9zm41.6 19.4l-19.8-11.4v-4.3l19.8 11.4v4.3zm8.2-3.5v-4.3l-28.1-16.2v4.3l28.1 16.2z"/><path class="st11" d="M445.7 419l80.2-.9-45.9 26.5-34.3-19.9z"/><path class="st0" d="M525.9 412.3v5.8L480 444.6v-9.3z"/><path class="st16" d="M491.6 392.5l34.3 19.8-45.9 26.5-34.3-19.8z"/><path class="st0" d="M480 404.1l6.4 3.7-6.4 3.7-6.4-3.7 6.4-3.7zm9.6 5.5l-6.4 3.7 6.4 3.7 6.4-3.7-6.4-3.7zm0 18.5l-6.4-3.7 6.4-3.7 6.4 3.7-6.4 3.7zm-9.6-5.5l-6.4-3.7 6.4-3.7 6.4 3.7-6.4 3.7zm-9.5-5.5l6.4-3.7-6.4-3.7-6.4 3.7 6.4 3.7zm9.5 16.5l6.4-3.7-6.4-3.7-6.4 3.7 6.4 3.7zm-9.5-5.5l6.4-3.7-6.4-3.7-6.4 3.7 6.4 3.7zm-9.6-5.5l-6.4-3.7 6.4-3.7 6.4 3.7-6.4 3.7z"/><path class="st14" d="M499.2 415.2l6.4 3.7-6.4 3.7-6.5-3.7z"/><path class="st9" d="M492.4 396.8l25.6 14.7-9.6 5.6-25.5-14.8z"/><path class="st0" d="M294.4 275.1h10.1v2.9h-10.1zm0-6.2h10.1v2.9h-10.1zm0-6.2h10.1v2.9h-10.1zm0-6.2h10.1v2.9h-10.1zm0-6.2h10.1v2.9h-10.1zm0-6.3h10.1v2.9h-10.1zm0-6.2h10.1v2.9h-10.1z"/><path class="st18" d="M308.1 275.1h7.4v2.9h-7.4zm0-6.2h7.4v2.9h-7.4zm0-6.2h7.4v2.9h-7.4z"/><path class="st19" d="M308.1 256.5h10.1v2.9h-10.1z"/><path class="st18" d="M308.1 250.3h7.4v2.9h-7.4z"/><path class="st19" d="M308.1 244h10.1v2.9h-10.1zm0-6.2h10.1v2.9h-10.1z"/><path class="st23" d="M294.8 252c.2 2.8-1.9 5.3-4.7 5.6h-3.3c-2.8.2-5.3-1.9-5.6-4.7-.2-2.8 1.9-5.3 4.7-5.6h3.3c2.9-.3 5.4 1.9 5.6 4.7zm35.4-4.9c.2 2.9-2 5.5-4.9 5.7h-3.4c-2.9.2-5.5-2-5.7-4.9-.2-2.9 2-5.5 4.9-5.7h3.4c3-.2 5.5 2 5.7 4.9z"/><path class="st23" d="M330.2 255.9c.2 2.9-2 5.5-4.9 5.7h-3.4c-2.9.2-5.5-2-5.7-4.9-.2-2.9 2-5.5 4.9-5.7h3.4c3-.2 5.5 2 5.7 4.9z"/><path class="st23" d="M330.2 264.4c.2 2.9-2 5.5-4.9 5.7h-3.4c-2.9.2-5.5-2-5.7-4.9-.2-2.9 2-5.5 4.9-5.7h3.4c3-.3 5.5 1.9 5.7 4.9z"/><path class="st23" d="M330.2 273.1c.2 2.9-2 5.5-4.9 5.7h-3.4c-2.9.2-5.5-2-5.7-4.9-.2-2.9 2-5.5 4.9-5.7h3.4c3-.3 5.5 2 5.7 4.9z"/><path class="st1" d="M220.4 549.3V387.6l16.5-9.6v142.7l72-41.6v19.1l-72 41.6z"/><path class="st14" d="M143.9 343.5l16.5-9.5 76.5 44.2-16.5 9.5z"/><path class="st4" d="M492.4 396.8l25.6 14.7-2.6 1.5-23-13.2-6.9 4-2.6-1.5z"/></g></switch></svg>