<svg version="1.1" id="_x31_" xmlns="http://www.w3.org/2000/svg" x="0" y="0" viewBox="0 0 1559 850" xml:space="preserve"><style>.st1{fill:#5c629d}.st1,.st3,.st7,.st8,.st9{fill-rule:evenodd;clip-rule:evenodd}.st3{fill:#4b4b78}.st7{fill:#39bb80}.st8{fill:#bdd1ea}.st9{fill:#e0eaf4}.st10{fill:#8b90cc}.st10,.st11,.st12,.st13,.st14,.st15{fill-rule:evenodd;clip-rule:evenodd}.st11{fill:#ad63ea}.st12{fill:#7f37b8}.st13{fill:#622890}.st14{fill:#1e905f}.st15{fill:#eff4f9}.st16{fill:#5ad59d}.st16,.st17,.st21,.st23,.st24,.st25{fill-rule:evenodd;clip-rule:evenodd}.st17{fill:#a4b8cc}.st21{fill:#3d3f63}.st23{fill:#4b4e78}.st24{fill:#7980a5}.st25{fill:#fdfdfd}</style><switch><g><path d="M1546.3 538.1l-182 104.7h-142.5L980.6 503.6V409c-13.5 10.2-34.9 16.8-59 16.8-40.8 0-73.9-18.9-73.9-42.2 0-23.3 33.1-42.2 73.9-42.2 40.8 0 73.9 18.9 73.9 42.2 0 8.7-4.6 16.8-12.5 23.5h336.3l227 131zM224.9 649.8l156.5 92.4-137.6 79.4-156.5-92.4 137.6-79.4zm802.7-63.7L816 708.3l151.6 87.5 211.7-122.2-151.7-87.5zM744.1 442.5c-3.8 0-7.5.2-11.2.5l-76.4-44.1-258.7-.1L368 581.4 448 740h194.7l300.5-175.5L817 491.6c.6-2.2 1-4.5 1-6.9.1-23.3-33-42.2-73.9-42.2z" opacity=".2" fill-rule="evenodd" clip-rule="evenodd" fill="#231a35"/><path class="st1" d="M921.6 243.5c5 0 9 4 9 9v126c0 2.8-4 5.1-9 5.1s-9-2.3-9-5.1v-126c0-5 4.1-9 9-9z"/><radialGradient id="SVGID_1_" cx="915.022" cy="146.193" r="101.491" gradientUnits="userSpaceOnUse"><stop offset="0" stop-color="#5ad7a0"/><stop offset=".422" stop-color="#3bb27e"/><stop offset=".78" stop-color="#269a67"/><stop offset="1" stop-color="#1e915f"/></radialGradient><circle cx="921" cy="194.3" r="100.2" fill-rule="evenodd" clip-rule="evenodd" fill="url(#SVGID_1_)"/><path class="st3" d="M1000.3 252.1c2.6 2.6 2.6 6.9 0 9.5l-66.7 66.7c-2.6 2.6-6.9 2.6-9.5 0-2.6-2.6-2.6-6.9 0-9.5l66.7-66.7c2.6-2.6 6.9-2.6 9.5 0z"/><radialGradient id="SVGID_2_" cx="991.649" cy="221.693" r="56.362" gradientUnits="userSpaceOnUse"><stop offset="0" stop-color="#5ad7a0"/><stop offset=".422" stop-color="#3bb27e"/><stop offset=".78" stop-color="#269a67"/><stop offset="1" stop-color="#1e915f"/></radialGradient><circle cx="995" cy="248.4" r="55.6" fill-rule="evenodd" clip-rule="evenodd" fill="url(#SVGID_2_)"/><path class="st1" d="M749.7 345.6c5 0 9 4 9 9v126c0 2.8-4 5.1-9 5.1s-9-2.3-9-5.1v-126c0-4.9 4-9 9-9z"/><radialGradient id="SVGID_3_" cx="743.048" cy="248.332" r="101.491" gradientUnits="userSpaceOnUse"><stop offset="0" stop-color="#5ad7a0"/><stop offset=".422" stop-color="#3bb27e"/><stop offset=".78" stop-color="#269a67"/><stop offset="1" stop-color="#1e915f"/></radialGradient><circle cx="749.1" cy="296.4" r="100.2" fill-rule="evenodd" clip-rule="evenodd" fill="url(#SVGID_3_)"/><path class="st3" d="M828.3 354.2c2.6 2.6 2.6 6.9 0 9.5l-66.7 66.7c-2.6 2.6-6.9 2.6-9.5 0-2.6-2.6-2.6-6.9 0-9.5l66.7-66.7c2.6-2.6 6.9-2.6 9.5 0z"/><radialGradient id="SVGID_4_" cx="819.675" cy="323.832" r="56.362" gradientUnits="userSpaceOnUse"><stop offset="0" stop-color="#5ad7a0"/><stop offset=".422" stop-color="#3bb27e"/><stop offset=".78" stop-color="#269a67"/><stop offset="1" stop-color="#1e915f"/></radialGradient><circle cx="823" cy="350.5" r="55.6" fill-rule="evenodd" clip-rule="evenodd" fill="url(#SVGID_4_)"/><path class="st7" d="M400.2 412.1L694.4 582l-260 150.1-294.2-169.9z"/><path class="st8" d="M126.6 332.2v222.1l13.6 7.9 260-150.1 189.2 109.3 132.3-161.5-321.5-185.6z"/><path class="st9" d="M694.4 359.9V582L400.2 412.1V190z"/><path class="st3" d="M683.4 577.7l-34.7 20.1-48.4-28v-42.7l34.7-20 48.4 28z"/><path class="st10" d="M635 507.1l-34.7 20 48.4 28 34.7-20z"/><path class="st1" d="M600.3 569.8l48.4 28v-42.7l-48.4-28z"/><path class="st3" d="M683.4 530.7l-34.7 20-48.4-27.9v-42.7l34.7-20 48.4 27.9z"/><path class="st11" d="M635 460.1l-34.7 20 48.4 27.9 34.7-20z"/><path class="st12" d="M600.3 522.8l48.4 27.9V508l-48.4-27.9z"/><path class="st13" d="M645.1 599.8l-34.7 20-48.3-27.9v-42.7l34.6-20 48.4 28z"/><path class="st11" d="M596.7 529.2l-34.6 20 48.3 28 34.7-20z"/><path class="st12" d="M562.1 591.9l48.3 27.9v-42.6l-48.3-28z"/><path class="st13" d="M645.1 552.8l-34.7 20-48.3-27.9v-42.7l34.6-20 48.4 27.9z"/><path class="st11" d="M596.7 482.2l-34.6 20 48.3 27.9 34.7-20z"/><path class="st12" d="M562.1 544.9l48.3 27.9v-42.7l-48.3-27.9z"/><path class="st1" d="M397.9 411.3V237.5l52.5 30.5 1.5.9v173.7l-4.5-2.6-49.5-28.7zm6-163.6v48.9c14 8.1 28.1 16.2 42.1 24.3v-48.7l-42.1-24.5zm0 55.7v48.7l42.1 24.3v-48.7l-42.1-24.3zm0 55.6v48.8l42.1 24.4v-48.9c-14.1-8.1-28.1-16.2-42.1-24.3z"/><path class="st14" d="M400.2 414.6l54.8 31.6-122.5 70.7-54.8-31.6z"/><path class="st8" d="M400.2 399.8l54.8 31.6v5.6l-122.5 70.7-54.8-31.6v-5.6z"/><path class="st15" d="M400.2 399.8l54.8 31.6-122.5 70.8-54.8-31.7z"/><path class="st14" d="M426.8 438.1l-28.7 16.5-40-23.1v-35.3l28.7-16.6 40 23.1z"/><path class="st16" d="M386.8 379.6l-28.7 16.6 40 23.1 28.7-16.6z"/><path class="st7" d="M358.1 431.5l40 23.1v-35.3l-40-23.1z"/><path class="st14" d="M377.3 466.7l-28.6 16.5-40.1-23.1v-35.3l28.7-16.6 40 23.1z"/><path class="st16" d="M337.3 408.2l-28.7 16.6 40.1 23.1 28.6-16.6z"/><path class="st7" d="M308.6 460.1l40.1 23.1v-35.3l-40.1-23.1z"/><path class="st8" d="M400.2 344.1l54.8 31.6v5.6L332.5 452l-54.8-31.7v-5.5z"/><path class="st15" d="M400.2 344.1l54.8 31.6-122.5 70.7-54.8-31.6z"/><path class="st14" d="M426.8 382.3l-28.7 16.6-40-23.1v-35.4l28.7-16.5 40 23.1z"/><path class="st16" d="M386.8 323.9l-28.7 16.5 40 23.1 28.7-16.5z"/><path class="st7" d="M358.1 375.8l40 23.1v-35.4l-40-23.1z"/><path class="st14" d="M377.3 410.9l-28.6 16.6-40.1-23.1V369l28.7-16.5 40 23.1z"/><path class="st16" d="M337.3 352.5L308.6 369l40.1 23.1 28.6-16.5z"/><path class="st7" d="M308.6 404.4l40.1 23.1v-35.4L308.6 369z"/><path class="st8" d="M400.2 288.3L455 320v5.5l-122.5 70.7-54.8-31.6V359z"/><path class="st15" d="M400.2 288.3L455 320l-122.5 70.7-54.8-31.7z"/><path class="st14" d="M426.8 326.6l-28.7 16.5-40-23.1v-35.3l28.7-16.6 40 23.1z"/><path class="st16" d="M386.8 268.1l-28.7 16.6 40 23.1 28.7-16.6z"/><path class="st7" d="M358.1 320l40 23.1v-35.3l-40-23.1z"/><path class="st14" d="M377.3 355.2l-28.6 16.5-40.1-23.1v-35.3l28.7-16.6 40 23.1z"/><path class="st16" d="M337.3 296.7l-28.7 16.6 40.1 23.1 28.6-16.6z"/><path class="st7" d="M308.6 348.6l40.1 23.1v-35.3l-40.1-23.1z"/><path class="st1" d="M277.7 482.9V309.1l52.5 30.5 1.5.9v173.7l-4.5-2.6-49.5-28.7zm5.9-163.6v48.9c14 8.1 28.1 16.2 42.1 24.3v-48.7l-42.1-24.5zm0 55.7v48.7l42.1 24.3v-48.7L283.6 375zm0 55.6v48.8l42.1 24.4v-48.9c-14-8.1-28-16.2-42.1-24.3z"/><path class="st15" d="M721.7 359.9l-273.6 158-13.7-7.9L708 352 400.2 174.3l-13.7 7.9-259.9 150 13.6 7.9 260-150.1 294.2 169.9L708 352z"/><path class="st9" d="M126.6 332.2v222.1l13.6 7.9V340.1zm510.5 120.5v162.4l13.7 7.9V460.6z"/><path class="st8" d="M650.8 623l70.9-41V359.9c-91.2 52.7-182.4 105.3-273.6 158V740l83.2-48V529.6l119.5-69V623z"/><path class="st17" d="M699.1 372.9L480.4 499.2v38.7l6.3 3.7L699.1 419z"/><path class="st9" d="M434.4 510v222.1l13.7 7.9V517.9z"/><path class="st13" d="M298 542.6l-34.6 20.1-48.4-28V492l34.7-20 48.3 28z"/><path class="st11" d="M249.7 472L215 492l48.4 28 34.6-20z"/><path class="st12" d="M215 534.7l48.4 28V520L215 492z"/><path class="st13" d="M298 495.6l-34.6 20-48.4-27.9V445l34.7-20 48.3 27.9z"/><path class="st11" d="M249.7 425L215 445l48.4 27.9 34.6-20z"/><path class="st12" d="M215 487.7l48.4 27.9v-42.7L215 445z"/><path class="st13" d="M259.8 564.7l-34.7 20-48.3-27.9v-42.7l34.6-20 48.4 28z"/><path class="st11" d="M211.4 494.1l-34.6 20 48.3 28 34.7-20z"/><path class="st1" d="M176.8 556.8l48.3 27.9v-42.6l-48.3-28z"/><path class="st13" d="M259.8 517.7l-34.7 20-48.3-27.9v-42.7l34.6-20 48.4 27.9z"/><path class="st11" d="M211.4 447.1l-34.6 20 48.3 27.9 34.7-20z"/><path class="st12" d="M176.8 509.8l48.3 27.9V495l-48.3-27.9z"/><path fill-rule="evenodd" clip-rule="evenodd" fill="#868600" d="M196.6 637.9l58 34-78.1 44.8-58-34.2z"/><path class="st14" d="M196.6 716.7l87.8-51.3v34.9l-87.8 49.9z"/><path class="st16" d="M101.3 661.7l23.7-26.9-19.6-12.3-26.3 15.4z"/><path fill-rule="evenodd" clip-rule="evenodd" fill="#333" d="M176.8 604.5v-90.4l67.8 39.2 9.7 118.5-58-34.2z"/><path fill-rule="evenodd" clip-rule="evenodd" fill="#969a00" d="M176.7 604.5l19.9 33.4-78.1 44.6L99 649.4z"/><path class="st16" d="M265.1 654.4l19.3 11-87.8 51.3-21-10.9z"/><path class="st7" d="M99 649.4v-90.3l77.8-45 67.8 39.2-69 152.5 21 10.9v33.5L79.1 682.7v-44.8z"/><path class="st1" d="M105.4 647.5v-75.4l56.6 32.7 8.1 98.9-48.4-28.6z"/><path class="st10" d="M163.1 619.3l.6 7.3-44.2 44.9-2.9-5zm-9.5-19.4l8.4 4.9.5 6.2-49.2 50-7.1-12.2z"/><path class="st14" d="M166.8 598.2l77.8-44.9 8.8 107.8-77.8 44.7z"/><path class="st21" d="M173.2 603.7l66.2-38.2 8.2 99-66.2 38z"/><path class="st16" d="M176.8 514.1l67.8 39.2-77.8 44.9L99 559.1z"/><path class="st15" d="M273.5 700.4v-18.9l8.7-5.2v18.9z"/><path class="st1" d="M79.1 682.7v11.4l117.5 67.5v-11.4z"/><path class="st21" d="M196.6 761.6l87.8-50.5v-10.8l-87.8 49.9z"/><path class="st21" d="M230.4 610.2v150.6l-8.1 4.1V614.7z"/><path class="st1" d="M214.2 610.2v149.9l8.1 4.8V614.7z"/><path class="st10" d="M230.4 610.2l-8.1-4.7-8.1 4.7 8.1 4.5z"/><path class="st21" d="M280.5 582.8v150.6l-8.1 4.1V587.3z"/><path class="st1" d="M264.3 582.8v150.6l8.1 4.1V587.3z"/><path class="st10" d="M280.5 582.8l-8.1-4.6-8.1 4.6 8.1 4.5z"/><path class="st1" d="M222.3 735.4l-3-1.8v29.5l3 1.7 42.9 24.7 8.6-4.9V782L231 757.4z"/><path class="st15" d="M201.1 741.9V723l8.6-5.2v18.9z"/><path fill-rule="evenodd" clip-rule="evenodd" fill="#3d3d3d" d="M282.5 665.7l-2-1.4-1.9 1.1 1.5 1.6z"/><path class="st10" d="M195.9 548.1L161.5 568l-17.2-9.9 34.3-19.9z"/><path class="st3" d="M195.9 548.1v3.2l-34.4 19.8V568z"/><path class="st1" d="M161.5 571.1l-17.2-9.6v-3.4l17.2 9.9z"/><path class="st21" d="M85.8 686.3l-5.3-6.8 12.6-6.9 1.5-.9h.1c4.1-2 9.1-1.6 14.1 1.5 10.4 6.6 17.2 22.9 15.1 36.4-.9 5.9-3.4 10.2-6.8 12.7-.9.6-1.8 1.1-2.7 1.5l-12.7 7.1-4.4-11.9c-8.1-7.6-13.1-21.2-11.5-32.7z"/><path class="st1" d="M109.8 717.3c2.2-13.4-4.6-29.8-15.1-36.4-10.4-6.6-20.7-1.1-22.9 12.2-2.1 13.3 4.6 29.7 15 36.4 10.6 6.7 20.9 1.2 23-12.2z"/><path class="st9" d="M103.8 713.5c1.5-9.2-3.2-20.3-10.3-24.8-7.1-4.5-14.1-.7-15.6 8.3-1.5 9.1 3.2 20.2 10.2 24.8 7.2 4.6 14.2.8 15.7-8.3z"/><path class="st21" d="M98 709.8c.8-5.1-1.7-11.2-5.7-13.7-3.9-2.5-7.8-.4-8.6 4.6-.8 5 1.7 11.1 5.6 13.7 4 2.5 7.9.4 8.7-4.6zm56.3 22l-4.6-5.9 10.9-5.9c.4-.3.8-.5 1.3-.8h.1c3.5-1.7 7.8-1.4 12.2 1.3 9 5.7 14.9 19.8 13 31.4-.8 5.1-2.9 8.8-5.9 11-.7.5-1.5 1-2.4 1.3l-11 6.1-3.6-10.3c-7-6.5-11.3-18.2-10-28.2z"/><path class="st1" d="M175.1 758.6c1.9-11.6-4-25.8-13-31.4-9-5.7-17.9-.9-19.7 10.6-1.8 11.5 4 25.6 13 31.4 9 5.8 17.9 1 19.7-10.6z"/><path class="st9" d="M169.9 755.3c1.3-7.9-2.7-17.6-8.9-21.4-6.1-3.9-12.2-.6-13.4 7.2-1.3 7.8 2.7 17.5 8.8 21.4 6.2 4 12.3.7 13.5-7.2z"/><path class="st21" d="M164.9 752.1c.7-4.4-1.5-9.7-4.9-11.8-3.4-2.1-6.7-.3-7.4 4-.7 4.3 1.5 9.6 4.9 11.8 3.4 2.2 6.7.4 7.4-4z"/><path class="st10" d="M222.3 762.5l8.7-5.1 42.8 24.6-8.6 5.1z"/><path class="st21" d="M222.3 762.5v-27.1l8.7-5.2v27.2z"/><path class="st9" d="M867.7 706.1l-19.4 11.2-9.8-5.6 19.4-11.2 9.8 5.6zm-29.2 16.8l-9.8-5.6-19.4 11.2 9.8 5.6 19.4-11.2zm-29.2 16.9L789.9 751l-9.8-5.6 19.4-11.2 9.8 5.6zm-29.2 16.8l-9.8-5.6-7.2 4.2-7.5-4.3-9.7 5.6 14.8 8.6 2.4 1.4 2.4-1.4 14.6-8.5zm-43.9-5.8l-19.4-11.2 9.7-5.6 19.4 11.2-9.7 5.6zM707 733.9l-19.4-11.2 9.7-5.6 19.4 11.2-9.7 5.6zm-29.2-16.8l-19.4-11.2 9.7-5.6 19.4 11.2-9.7 5.6zm-29.2-16.9L629.1 689l9.7-5.6 19.4 11.2-9.6 5.6zm-41.4-9.8l33.7-19.5h-33.7v19.5z"/><path class="st21" d="M265.2 789.5v-2.4l8.6-5.1v2.6z"/><path class="st1" d="M272.4 708.1l-3-1.8v29.5l3 1.7 42.9 24.7 8.6-4.9v-2.6l-42.8-24.6z"/><path class="st10" d="M272.4 735.2l8.7-5.1 42.8 24.6-8.6 5.1z"/><path class="st21" d="M272.4 735.2v-27.1l8.7-5.2v27.2zm42.9 27v-2.4l8.6-5.1v2.6z"/><path class="st9" d="M219.1 764.1l37.7 21.8 52.7-30.5v-46.5l-37.7-21.8-52.7 30.5z"/><path class="st15" d="M280.7 682l37.7 21.8-61.6 35.6-37.7-21.8z"/><path class="st8" d="M318.4 750.3l-61.6 35.6v-46.5l61.6-35.6z"/><path class="st9" d="M219.1 711.5l37.7 21.8 52.7-30.5v-46.5l-37.7-21.8-52.7 30.4z"/><path class="st15" d="M280.7 629.4l37.7 21.8-61.6 35.5-37.7-21.8z"/><path class="st8" d="M318.4 697.7l-61.6 35.6v-46.6l61.6-35.5z"/><path class="st9" d="M980.6 503.6l241.3 139.2 164.3-94.8V349.9l-241.3-139.2-164.3 94.8z"/><path class="st15" d="M1145 210.7l241.2 139.2-164.3 94.9-241.3-139.3z"/><path class="st8" d="M1193.7 238.8l82.3 47.5-108 56.9zM1386.2 548l-164.3 94.8v-198l164.3-94.9z"/><path class="st14" d="M1386.2 548l-164.3 94.8v-44.1l164.3-94.8z"/><path class="st1" d="M1142.4 262.2c-7.6 0-14.9.7-21.8 1.9h-51.5V304c0 23.1 32.8 41.8 73.3 41.8s73.3-18.7 73.3-41.8v-40h-51.5c-6.8-1.2-14.1-1.8-21.8-1.8z"/><ellipse class="st10" cx="1142.4" cy="264" rx="73.3" ry="41.8"/><path class="st15" d="M1083.2 256.7c0 .3-.1.6-.1.9v.1c0 .5-.1.9-.1 1.4 0 18.7 26.6 33.9 59.4 33.9s59.4-15.2 59.4-33.9c0-.5 0-.9-.1-1.4v-.1c0-.3-.1-.7-.1-1L1186 99.8h-87.2l-15.6 156.9z"/><path class="st7" d="M1197.1 210.5l-5-49.8h-.3c-.1 15.5-22.2 28-49.4 28s-49.3-12.5-49.4-28h-.3l-5 49.8c-.1.9-.2 1.9-.2 2.8 0 17.3 24.6 31.3 54.9 31.3 30.3 0 54.9-14 54.9-31.3 0-.9-.1-1.9-.2-2.8z"/><path class="st1" d="M1142.4 75.7c-9.7 0-18.9 1.5-26.7 4.1h-26.1v26c0 16.6 23.6 30.1 52.8 30.1s52.8-13.5 52.8-30.1v-26h-26.1c-7.8-2.6-16.9-4.1-26.7-4.1z"/><ellipse class="st10" cx="1142.4" cy="79.9" rx="52.8" ry="30.1"/><ellipse class="st3" cx="1142.4" cy="77.2" rx="35.6" ry="20.3"/><path class="st3" d="M1294.3 498.9l-51.2 29.6v-69.1l51.2-29.5zm70.6-40.7l-51.2 29.5v-69l51.2-29.5z"/><path class="st1" d="M1221.9 424.6v-42.7l1.5-.9 130.2-75.2 4.5-2.6V346l-6 3.4v-35.9l-20.1 11.6V361l-5.9 3.5v-35.9l-20.1 11.6v35.9l-6 3.4v-35.9l-20.1 11.6v35.9l-5.9 3.4v-35.9l-20.1 11.6v35.9l-6 3.5v-35.9l-20.1 11.6v35.9z"/><path class="st7" d="M980.6 503.6l241.3 139.2v-44.1L980.6 459.5z"/><path class="st3" d="M1047.6 542.2l107.3 62V459.4l-107.3-61.9z"/><path class="st1" d="M1047.6 542.2l107.3 62V480.3l-107.3 61.9z"/><path class="st21" d="M1061.3 617.1l38.9 22.5 8.3-4.8v-13.4l-35.2-20.3-12 2.6z"/><path class="st23" d="M1052.6 598.7l47.6 27.5 8.3-4.8-47.6-27.4z"/><path class="st21" d="M1108.5 634.8l-8.3 4.8v-13.4l8.3-4.8zm-35.9-3.5l5.5-7.1-13.1-7.2-1.5-.9-.1-.1c-4.2-2.1-9.5-1.7-14.7 1.6-10.9 6.8-18 23.9-15.7 38 1 6.1 3.6 10.6 7.1 13.2.9.7 1.9 1.2 2.9 1.6l13.3 7.4 4.4-12.5c8.3-7.8 13.5-22 11.9-34z"/><path class="st1" d="M1047.5 663.6c-2.3-14 4.8-31.1 15.7-38 10.9-6.8 21.6-1.1 23.9 12.8 2.2 13.9-4.8 31-15.7 38-10.9 7-21.7 1.3-23.9-12.8z"/><path class="st9" d="M1053.8 659.6c-1.5-9.6 3.3-21.2 10.7-25.9 7.4-4.7 14.7-.8 16.3 8.7 1.5 9.5-3.3 21.1-10.7 25.9-7.5 4.8-14.8.9-16.3-8.7z"/><path class="st21" d="M1059.8 655.8c-.8-5.3 1.8-11.7 5.9-14.3 4.1-2.6 8.1-.4 9 4.8.8 5.2-1.8 11.6-5.9 14.3-4.1 2.6-8.1.5-9-4.8z"/><path class="st3" d="M797.6 573.9l16.7 9.6c2.3 1.3 4.1 4.8 4.1 7.9v25.8c0 3-1.8 4.4-4.1 3.1l-16.7-9.6c-2.3-1.3-4.1-4.8-4.1-7.9V577c0-3 1.9-4.4 4.1-3.1z"/><path class="st1" d="M1038.2 679l-55.6 32.1-12.8-7.3v-20.7l54.3-31.3 4.2.9 9.9 5.7z"/><path class="st23" d="M1038.2 658.4l-55.6 32.1-12.8-7.4 55.6-32.1z"/><path class="st21" d="M960.7 698.5l21.9 12.6v-20.6l-21.9-12.6z"/><path class="st8" d="M1110.1 610.4l-142.4 82.2-8.3-4.8v-13.4l136.8-79V589l13.9 8z"/><path class="st24" d="M945.2 679.6l22.5 13v-13.4l-8.3-4.8z"/><path class="st12" d="M861.4 617.8l98 56.6 136.8-79V474.7l-98-56.6-136.8 79z"/><path class="st21" d="M958.8 696.3l5.5-7.1-13.1-7.1-1.5-.9-.1-.1c-4.2-2.1-9.5-1.7-14.7 1.6-10.9 6.8-18 23.9-15.7 38 1 6.1 3.6 10.6 7.1 13.2.9.7 1.9 1.2 2.9 1.6l13.3 7.4 4.4-12.5c8.3-7.9 13.5-22.1 11.9-34.1z"/><path class="st1" d="M933.7 728.6c-2.3-14 4.8-31.1 15.7-38 10.9-6.8 21.6-1.1 23.9 12.8 2.2 13.9-4.8 31-15.7 38-11 7-21.7 1.3-23.9-12.8z"/><path class="st9" d="M939.9 724.6c-1.5-9.6 3.3-21.2 10.7-25.9 7.4-4.7 14.7-.8 16.3 8.7 1.5 9.5-3.3 21.1-10.7 25.9-7.4 4.8-14.7.9-16.3-8.7z"/><path class="st21" d="M946 720.8c-.8-5.3 1.8-11.7 5.9-14.3 4.1-2.6 8.1-.4 9 4.8.8 5.2-1.8 11.6-5.9 14.3-4.1 2.6-8.1.5-9-4.8z"/><path class="st11" d="M998.2 418.1l98 56.6-136.8 79-98-56.6z"/><path class="st13" d="M1096.2 595.4l-136.8 79V553.7l136.8-79z"/><path class="st8" d="M925.3 729.6v-12.2c0-15.1 7.7-28.9 18.1-33.8l16-9.2v-99.8l-98-56.9C813.6 545.3 908 687.5 908 739.6l17.3-10z"/><path class="st15" d="M1096.2 589l13.9 8-142.4 82.2-8.3-4.8 136.8-79zM908 626.6c.6-14.9 8.9-27.8 21-34.8l30.3-17.5-98-56.6-30.3 17.5c-12.9 7.4-21.1 22.1-21.1 34.9v101.5l98 56.6.1-101.6z"/><path class="st9" d="M810 570v101.7l98 56.5V626.6z"/><path class="st1" d="M817.5 632.7l81.6 47.1v-59.6l-81.6-47.1z"/><path class="st10" d="M821.5 635l12.2 7.1 37.4-38.1-12.6-7.2z"/><path class="st21" d="M950.8 643.6v-48.9l-15.8 9.1c-9.2 5.4-15.6 15.2-16 26.6v49.5l17.2-9.9v-18l14.6-8.4z"/><path class="st1" d="M798.4 688.5l112.4 64.8 15.4-8.9v-27l-6.2-3.6-9.3 5.4L810 661v-7l-11.6 7.5z"/><path class="st10" d="M798.5 661.5c37.4 21.6 74.9 43.3 112.3 64.9 5.2-3 10.3-6 15.5-9l-6.3-3.6-9.2 5.3L810 661v-6.9l-11.5 7.4z"/><path class="st8" d="M884 702l25.7 14.9v-18.8L884 683.2z"/><path class="st24" d="M915.9 713.3l-7.6 4.4v-18.8l7.6-4.4z"/><path class="st8" d="M810 657.9l25.7 14.8v-18.8L810 639.1z"/><path class="st21" d="M926.2 744.4l-15.4 8.9v-26.9l15.4-9z"/><path class="st3" d="M917 642.3l15.1 8.7c2.3 1.3 4.1 4.8 4.1 7.9v25.8c0 3-1.8 4.4-4.1 3.1l-15.1-8.7c-2.3-1.3-4.1-4.8-4.1-7.9v-25.8c0-3 1.9-4.4 4.1-3.1z"/><path class="st12" d="M692.8 415.3L480.4 537.9l-6.4-3.6v-79.8l212.4-122.6 6.4 3.7z"/><path class="st25" d="M512.9 465.8l3.9-2.2v32.6l-3.9 2.2v-5.6c-1.9 5.4-4.7 9.2-8.4 11.3-3.1 1.8-5.8 1.7-8-.4s-3.3-5.5-3.3-10.2c0-4.8 1.1-9.5 3.3-14 2.2-4.6 4.8-7.8 8-9.6 3.7-2.1 6.5-1.6 8.4 1.6v-5.7zm-7.9 32.5c2.3-1.3 4.1-3.5 5.6-6.6 1.5-3.1 2.3-6.3 2.3-9.6s-.8-5.6-2.3-7c-1.5-1.4-3.4-1.4-5.6-.1-2.2 1.3-4.1 3.5-5.6 6.6-1.5 3.1-2.3 6.3-2.3 9.6s.8 5.6 2.3 7c1.5 1.4 3.4 1.4 5.6.1zm39.9-60V480l-3.9 2.2v-5.6c-1.9 5.4-4.7 9.2-8.4 11.3-3.1 1.8-5.8 1.7-8-.4s-3.3-5.5-3.3-10.2c0-4.8 1.1-9.5 3.3-14 2.2-4.6 4.8-7.8 8-9.6 3.7-2.1 6.5-1.6 8.4 1.6v-14.7l3.9-2.3zm-11.7 43.8c2.3-1.3 4.1-3.5 5.6-6.6 1.5-3.1 2.3-6.3 2.3-9.6s-.8-5.6-2.3-7c-1.5-1.4-3.4-1.4-5.6-.1-2.2 1.3-4.1 3.5-5.6 6.6-1.5 3.1-2.3 6.3-2.3 9.6s.8 5.6 2.3 7c1.5 1.3 3.3 1.4 5.6.1zm39.9-60.1v41.7l-3.9 2.2v-5.6c-1.9 5.4-4.7 9.2-8.4 11.3-3.1 1.8-5.8 1.7-8-.4s-3.3-5.5-3.3-10.2c0-4.8 1.1-9.5 3.3-14 2.2-4.6 4.8-7.8 8-9.6 3.7-2.1 6.5-1.6 8.4 1.6v-14.7l3.9-2.3zm-11.8 43.9c2.3-1.3 4.1-3.5 5.6-6.6 1.5-3.1 2.3-6.3 2.3-9.6s-.8-5.6-2.3-7c-1.5-1.4-3.4-1.4-5.6-.1-2.2 1.3-4.1 3.5-5.6 6.6-1.5 3.1-2.3 6.3-2.3 9.6s.8 5.6 2.3 7c1.5 1.3 3.4 1.3 5.6.1zm20.9-31.3c0 1.3.4 2 1.3 2.3.9.3 1.9.3 3.1 0 1.2-.2 2.4-.4 3.6-.5 1.2-.1 2.3.3 3.1 1.2.9.9 1.3 2.5 1.3 4.7 0 3-.8 5.8-2.3 8.4-1.6 2.7-3.5 4.7-6 6.1-2.2 1.2-4 1.6-5.6 1.1-1.5-.5-2.6-1.7-3.3-3.6l3.3-4.7c.4 1.4 1 2.2 2 2.6 1 .3 2.1.1 3.5-.7 1.3-.7 2.3-1.7 3.2-2.9.8-1.2 1.2-2.6 1.2-4.1 0-1.3-.4-2-1.3-2.3-.9-.3-1.9-.3-3.1 0s-2.4.4-3.6.5c-1.2.1-2.3-.3-3.1-1.2-.9-.9-1.3-2.4-1.3-4.6 0-2.8.7-5.6 2.2-8.3 1.5-2.7 3.4-4.7 5.6-6 1.8-1 3.4-1.4 4.8-1 1.4.4 2.5 1.4 3.2 3.1l-3.2 4.5c-.8-2.3-2.4-2.8-4.8-1.4-1.1.6-2 1.6-2.8 2.8-.6 1.3-1 2.6-1 4zm34.9-28.8l3.9-2.2v32.6l-3.9 2.2v-5.6c-1.9 5.4-4.7 9.2-8.4 11.3-3.1 1.8-5.8 1.7-8-.4s-3.3-5.5-3.3-10.2c0-4.8 1.1-9.5 3.3-14 2.2-4.6 4.8-7.8 8-9.6 3.7-2.1 6.5-1.6 8.4 1.6v-5.7zm-8 32.5c2.3-1.3 4.1-3.5 5.6-6.6 1.5-3.1 2.3-6.3 2.3-9.6s-.8-5.6-2.3-7c-1.5-1.4-3.4-1.4-5.6-.1-2.2 1.3-4.1 3.5-5.6 6.6-1.5 3.1-2.3 6.3-2.3 9.6s.8 5.6 2.3 7c1.6 1.3 3.4 1.3 5.6.1zm17.7-5.6V391l3.9-2.2v41.7l-3.9 2.2zm12.5-20.9c.4 2.7 1.3 4.4 2.7 5.2 1.4.8 3.2.6 5.3-.7 2.9-1.7 5.1-4.5 6.4-8.4l3.3.8c-2.2 6.2-5.4 10.5-9.8 13-3.5 2-6.4 2.1-8.6.1-2.2-2-3.3-5.4-3.3-10.4 0-4.9 1.1-9.6 3.2-14.1 2.2-4.5 5-7.7 8.4-9.7 3.3-1.9 5.9-1.7 8 .4 2.1 2.2 3.1 5.6 3.1 10.4 0 .8 0 1.7-.1 2.6l-18.6 10.8zM647 393c-2.1 1.2-3.8 3-5.2 5.5-1.4 2.5-2.2 5.3-2.5 8.3l14.9-8.6c-.3-2.9-1.2-4.8-2.5-5.6-1.4-.7-2.9-.6-4.7.4zm18-6.1c0 1.3.4 2 1.3 2.3.9.3 1.9.3 3.1 0 1.2-.2 2.4-.4 3.6-.5 1.2-.1 2.3.3 3.1 1.2.9.9 1.3 2.5 1.3 4.7 0 3-.8 5.8-2.3 8.4-1.6 2.7-3.5 4.7-6 6.1-2.2 1.2-4 1.6-5.6 1.1-1.5-.5-2.6-1.7-3.3-3.6l3.3-4.7c.4 1.4 1 2.2 2 2.6 1 .3 2.1.1 3.5-.7 1.3-.7 2.3-1.7 3.2-2.9.8-1.2 1.2-2.6 1.2-4.1 0-1.3-.4-2-1.3-2.3-.9-.3-1.9-.3-3.1 0-1.2.2-2.4.4-3.6.5-1.2.1-2.3-.3-3.1-1.2-.9-.9-1.3-2.4-1.3-4.6 0-2.8.7-5.6 2.2-8.3 1.5-2.7 3.4-4.7 5.6-6 1.8-1 3.4-1.4 4.8-1 1.4.4 2.5 1.4 3.2 3.1l-3.2 4.5c-.8-2.3-2.4-2.8-4.8-1.4-1.1.6-2 1.6-2.8 2.8-.7 1.3-1 2.6-1 4z"/><path class="st11" d="M686.4 331.9L474 454.5l6.4 3.7 212.4-122.6z"/><path class="st13" d="M474 534.3v-79.8l6.4 3.7v79.7z"/><path class="st17" d="M1027.8 332.8l170.6 98.5v27.1l-6.3 3.7-164.3-94.9z"/><path class="st7" d="M1021.3 353.7l162.8 94v-79.8L1021.3 274z"/><path class="st25" d="M1053.8 320c2.9 1.6 5.3 4.6 7.3 8.9 2 4.3 3 8.7 3 13.2s-1 7.7-3 9.7c-2 2-4.4 2.1-7.3.5-3.4-1.9-5.9-5.4-7.7-10.5v5.3l-3.5-2v-42.9l3.5 2v17.5c1.8-3.1 4.3-3.6 7.7-1.7zm-.5 26.9c2 1.2 3.7 1.1 5.1-.2 1.4-1.3 2.1-3.5 2.1-6.6 0-3.1-.7-6.1-2.1-9-1.4-2.9-3.1-4.9-5.1-6.1-2.1-1.2-3.8-1.1-5.2.2-1.4 1.3-2.1 3.5-2.1 6.6s.7 6.1 2.1 9c1.4 2.8 3.2 4.9 5.2 6.1zm18.6-10.5c1.2-3.1 3.3-3.8 6.4-2v5.6c-1.7-1.1-3.2-1.3-4.5-.5-1.2.8-1.9 2.9-1.9 6.2v16.2l-3.5-2v-30.6l3.5 2v5.1zm25.5 9.6l3.5 2v30.6l-3.5-2v-5.3c-1.8 3-4.3 3.6-7.7 1.6-2.9-1.6-5.3-4.6-7.3-8.9-2-4.3-3-8.7-3-13.2s1-7.7 3-9.7c2-2 4.4-2.1 7.3-.5 3.4 1.9 5.9 5.4 7.7 10.5V346zm-7.2 22.1c2.1 1.2 3.8 1.1 5.2-.2 1.4-1.3 2.1-3.5 2.1-6.6 0-3.1-.7-6.1-2.1-9-1.4-2.9-3.1-4.9-5.2-6.1-2-1.2-3.7-1.1-5.1.2-1.4 1.3-2.1 3.5-2.1 6.6 0 3.1.7 6.1 2.1 9 1.3 2.9 3.1 4.9 5.1 6.1zm26.3-12c2.4 1.4 4.3 3.6 5.7 6.7 1.4 3.1 2.2 6.6 2.2 10.5v18.8l-3.5-2v-18.5c0-2.5-.4-4.7-1.3-6.6s-2.1-3.3-3.7-4.2c-1.8-1-3.2-1-4.3 0-1.1 1-1.6 3.3-1.6 6.7v16.2l-3.5-2v-30.6l3.5 2v4.4c1.3-2.6 3.5-3.1 6.5-1.4zm29.7 5.7l3.5 2v42.9l-3.5-2v-5.3c-1.8 3-4.3 3.6-7.7 1.6-2.9-1.6-5.3-4.6-7.3-8.9-2-4.3-3-8.7-3-13.2s1-7.7 3-9.7c2-2 4.4-2.1 7.3-.5 3.4 1.9 5.9 5.4 7.7 10.5v-17.4zm-7.2 34.3c2.1 1.2 3.8 1.1 5.2-.2 1.4-1.3 2.1-3.5 2.1-6.6 0-3.1-.7-6.1-2.1-9-1.4-2.9-3.1-4.9-5.2-6.1-2-1.2-3.7-1.1-5.1.2-1.4 1.3-2.1 3.5-2.1 6.6 0 3.1.7 6.1 2.1 9 1.3 2.9 3 5 5.1 6.1z"/><path class="st16" d="M1027.7 270.3l162.7 94-6.3 3.6-162.8-93.9z"/><path class="st14" d="M1190.4 444v-79.7l-6.3 3.6v79.8z"/><path class="st10" d="M837.2 644.1l5 2.9 37-38.2-4.9-2.9z"/><path class="st25" d="M807.6 659.5l25.7 14.8v-18.7l-25.7-14.9zm75 43.4l25.7 14.8v-18.8l-25.7-14.8z"/></g></switch></svg>