<svg version="1.1" id="_x31_" xmlns="http://www.w3.org/2000/svg" x="0" y="0" viewBox="0 0 850 850" xml:space="preserve"><style>.st1{fill:#ae63eb}.st1,.st2,.st3,.st4,.st5,.st6{fill-rule:evenodd;clip-rule:evenodd}.st2{fill:#622891}.st3{fill:#4b4b78}.st4{fill:#7f37b9}.st5{fill:#105738}.st6{fill:#39bc80}.st10,.st11,.st12,.st13,.st14,.st8,.st9{fill-rule:evenodd;clip-rule:evenodd}.st8{fill:#1e915f}.st9{fill:#4b4e78}.st10{fill:#3d3f63}.st11{fill:#8c91cd}.st12{fill:#5c629e}.st13{fill:#bed2eb}.st14{fill:#a5b9cd}.st15{fill:#e1ebf5}.st15,.st16,.st17,.st18,.st19,.st20{fill-rule:evenodd;clip-rule:evenodd}.st16{fill:#f0f5fa}.st17{fill:#fbceae}.st18{fill:#5a5f9b}.st19{fill:#fff}.st20{fill:#a5b9cf}</style><switch><g><path d="M221.6 523.6c25.8 0 46.7 11.9 46.7 26.6s-20.9 26.6-46.7 26.6c-25.8 0-46.7-11.9-46.7-26.6s20.9-26.6 46.7-26.6zm1.3-53.1l65 37.5 65-37.5L288 433l-65.1 37.5zm297.9 254.3l45.1 26 136-90.2-299.7-173L256 571.9l157.4 90.9-62.9 36.3L465 765.3l55.8-40.5z" opacity=".2" fill-rule="evenodd" clip-rule="evenodd" fill="#181126"/><path class="st1" d="M258.6 338.1l-65.4 37.8 65.4 37.8 65.4-37.8z"/><path class="st2" d="M258.6 343.7l-55.8 32.2 55.8 32.2 55.8-32.2z"/><path class="st3" d="M213.2 381.9l45.4 26.2 45.4-26.2-45.4-26.2z"/><path class="st4" d="M324 375.9l-22.6 75-42.8 24.7-42.8-24.7-22.6-75 65.4 37.8z"/><path class="st4" d="M193.2 375.9l22.6 75 42.8 24.7v-61.9z"/><path class="st5" d="M199.3 299.8c3.1-10.8-15.1-14.8-22.3 3.5-2.6 6.6-4.6 17.6-5.8 27.8 7-8.5 21.9-10.2 32.6-11 15.6-1.1 14.3-25.5-4.5-20.3z"/><path class="st6" d="M197.4 422.9c-10.4-25.6-15.1-39.2-15.2-56.1-.4-44 32.8-57 45.8-37.3 37.1-.3 35.3 32.1 6.8 45.6-17.2 8.2-36.8 30.6-37.4 47.8z"/><path d="M257.1 381.9c5.4-102.7-13.9-139.4-52.4-140.4m52.9 90.2c-5.2-18.5-25.9-13.4-29.6-2.2m22.2-48.2c-3.2-13.5 15.3-24.8 30.6-10.3m-61.1 18c19.9 9.4 31 18.6 37.1 36.5" fill="none" stroke="#1e915f" stroke-width="2.835" stroke-miterlimit="22.926" fill-rule="evenodd" clip-rule="evenodd"/><path class="st8" d="M238.2 298.9c25.1-5.3-3.5-26.3-37.3-17.3 3.7 1.8 9.7 13.8 13.2 20.5 7 12.8 28.9 12.5 24.1-3.2zm106.7 29.7c-1.1-21.6-4.4-36.8-11.6-52.1-18.8-39.8-54.3-32.9-57.5-9.5-33.6 15.8-10.8 43.9 10.5 42.5 34.9-2.3 50.5 3.9 58.6 19.1z"/><path class="st6" d="M197.4 422.9l-.1-.1c-1.2-6.3-1.9-12.8-1.9-19.5 0-29.3 12.5-55.6 32.5-74 0 .1.1.1.1.2 37.1-.3 35.3 32.1 6.8 45.6-17.2 8.2-36.8 30.6-37.4 47.8zm14.8-180.7c20-31.2-76.1-29.1-82.1 51.9 9.7-17.3 29.4-26.2 54.5-21.7 44 7.8 46-22.5 27.6-30.2z"/><path class="st9" d="M500.9 524.7c0 1.9-.4 3.7-1.2 5.2v9.1l-8.7-5c-2.1-1.2-3.5-4-3.5-7.4 0-5 3-9.4 6.7-9.9 3.7-.6 6.7 3 6.7 8z"/><path class="st10" d="M509.5 529.7c0 5-3 9.4-6.7 9.9s-6.7-3.1-6.7-8.1 3-9.4 6.7-9.9 6.7 3.1 6.7 8.1z"/><path class="st9" d="M500.9 582.9c0 1.9-.4 3.7-1.2 5.2v9.1l-8.7-5c-2.1-1.2-3.5-4-3.5-7.4 0-5 3-9.4 6.7-9.9 3.7-.6 6.7 3 6.7 8z"/><path class="st10" d="M509.5 587.9c0 5-3 9.4-6.7 9.9s-6.7-3.1-6.7-8.1 3-9.4 6.7-9.9 6.7 3.1 6.7 8.1z"/><path class="st9" d="M599.8 524.7c0 1.9-.4 3.7-1.2 5.2v9.1l-8.7-5c-2.1-1.2-3.5-4-3.5-7.4 0-5 3-9.4 6.7-9.9 3.7-.6 6.7 3 6.7 8z"/><path class="st10" d="M608.4 529.7c0 5-3 9.4-6.7 9.9s-6.7-3.1-6.7-8.1 3-9.4 6.7-9.9 6.7 3.1 6.7 8.1z"/><path class="st9" d="M599.8 582.6c0 1.9-.4 3.7-1.2 5.2v9.1l-8.7-5c-2.1-1.2-3.5-4-3.5-7.4 0-5 3-9.4 6.7-9.9 3.7-.6 6.7 3 6.7 8z"/><path class="st10" d="M608.4 587.6c0 5-3 9.4-6.7 9.9s-6.7-3.1-6.7-8.1 3-9.4 6.7-9.9 6.7 3.1 6.7 8.1z"/><path class="st11" d="M607.6 569v9.6l-11.8 6.8-49.3-28.7-49.7 28.6-11.8-6.8V569l41.4-23.9-41.1-23.7v-9.6l11.8-6.8 49.4 28.5 49.4-28.5 11.7 6.8-5.5 12.7-35.6 20.6z"/><path class="st12" d="M496.8 585.3v-9.5L485 569v9.5z"/><path class="st9" d="M595.8 585.4v-9.6l11.8-6.8v9.6z"/><path class="st12" d="M557.6 540.1c0 3.5-5 6.4-11.2 6.4-6.2 0-11.2-2.8-11.2-6.4v-16.8h22.3v16.8z"/><path class="st11" d="M546.5 529.7c6.1 0 11.2-2.9 11.2-6.4 0-3.5-5-6.4-11.2-6.4-6.1 0-11.2 2.9-11.2 6.4 0 3.5 5 6.4 11.2 6.4z"/><path class="st13" d="M553.1 521.4v-33.9h-13.2v33.9c0 2.1 3 3.8 6.6 3.8s6.6-1.7 6.6-3.8z"/><path class="st14" d="M553.1 503.5v-16h-13.2v16c1.9.8 4.1 1.2 6.6 1.2 2.4.1 4.7-.4 6.6-1.2z"/><path class="st12" d="M595.8 585.4v-9.5l-49.3-28.7v9.5l49.3 28.7zm-61.1-45l-49.4-28.5v9.5l41.1 23.8 8.3-4.8z"/><path class="st9" d="M496.8 585.3v-9.5l49.6-28.7v9.5l-49.6 28.7zm61.5-45l49.4-28.5v9.5l-41.1 23.8-8.3-4.8z"/><path class="st8" d="M605.8 441.5l16.5-9.5v18.6L536 500.5l-74.7-43.1v-18.7l70.3-40.5z"/><path class="st8" d="M622.3 293.1v157.6L536 500.5l-74.7-43.1v-18.6l70.2-40.5v-139l62 17.2 28.8 16.6z"/><path class="st5" d="M606.2 442.2v-140l16.1-9.3v157.7L536 500.5v-19.2z"/><path class="st6" d="M564.5 278.3l16.1-9.3 41.7 24.1-16.1 9.3zm-32.9 119.9l74.6 44-69.2 39.1-75.5-42.5z"/><path class="st12" d="M481.2 412.9V285.1c0-22.7 22.5-36.4 41.1-30.9l52.3 15.5c6.6 2.2 14.4 5.4 18.1 14.4l-5.7 57.7V447c0 10.3-3.7-6.4-18.5 2.1l-12.2 7-75.1-43.2z"/><path class="st9" d="M488.2 302l13.1-5.8-7.1-10.1c12.2-23.3 27.9-27.5 39-26.6 19.1 1.5 27.3 9.6 28 34.6l-14.6 8.7 14.8 10.6-28.8 72.4-30.9-4.3-13.5-79.5z"/><path class="st9" d="M594.4 285.7l-7.4 56.1 21.3 39.8-51.4 22-16.3-22v-12.7l38.7-17.4-17.1-59.5c-1.7-11.3 23-29.1 32.2-6.3z"/><path class="st11" d="M485.5 298.8l13.1-5.8-7.1-10.1c12.2-23.3 27.9-27.5 39-26.6 19.1 1.5 28.7 8.8 29.4 33.8l-14.1 8.4 13.6 9.2-22.8 73.8-37.5-3.2-13.6-79.5z"/><path class="st15" d="M498.8 336.5c-.2-24 5.3-60.5 19.9-76 8.5-7.8 35.2-6.2 29.8 17.2-6.2 16-8 41.7-8 65.4v103.2l-43.8-24.4 2.1-85.4z"/><path class="st4" d="M526.5 269.4l7.2 9.8-6.3 3.5 1.7 95.6-14.7 14.2-10.9-17.1 19.1-93-5.2-5.6z"/><path class="st16" d="M531 255c22.4-1.4 17.5 22.9 6.1 30.5l-10.5-15-12.8 10c-3-8.1 1.3-24.4 17.2-25.5z"/><path class="st17" d="M531 228.5c-6.7 0-12.2 5.5-12.2 12.2V259c0 3.8 5.4 6.9 12.2 6.9 6.7 0 12.2-3.1 12.2-6.9v-18.4c0-6.7-5.5-12.1-12.2-12.1z"/><path class="st17" d="M526.9 150.3c20 0 36.4 16.4 36.4 36.4v30.9c0 20-16.4 36.4-36.4 36.4s-36.4-16.4-36.4-36.4v-30.9c0-20 16.4-36.4 36.4-36.4zm0 0v103.6-103.6z"/><path class="st9" d="M561.4 212.7c-9.5 9.6-8.3 15.1-.6 18.1 17.9-9.3 13-33.5 4-37.6 19.5-22.5-4.3-52.2-29-42.6-5.2-7.6-21.9-13.3-33-.1-7.7 9.2-18.1 8.4-23.8 1.2-17.1 22.2 22.4 54.1 50.1 28.9-2 8.5 8 20.6 13.8 24.2l18.5 7.9z"/><path class="st17" d="M553.9 197.6c-5.1 0-9.3 4.2-9.3 9.3v7.9c0 5.1 4.2 9.3 9.3 9.3 5.1 0 9.3-4.2 9.3-9.3v-7.9c0-5.1-4.2-9.3-9.3-9.3z"/><path class="st15" d="M518.9 698l10.7 6.2L648 635.8V477.1l-129.1 74.5z"/><path class="st13" d="M529.6 557.7v146.5L648 635.8V489.3z"/><path class="st14" d="M529.6 557.7V570L648 501.6v-12.3z"/><path class="st15" d="M258.9 547.8l10.7 6.2L388 485.6V321.1l-129.1 74.5z"/><path class="st14" d="M269.6 401.7V554L388 485.6V333.3z"/><path class="st3" d="M280.2 560.1l-10.6-6.2 29.3-16.9v12.3z"/><path class="st18" d="M280.2 560.1v-12.3l-10.6 6.1z"/><path class="st3" d="M363.3 512.1l-10.6-6.2L382 489v12.3z"/><path class="st18" d="M363.3 512.1v-12.3l-10.6 6.1z"/><path class="st15" d="M276.4 515.9L529.6 662V557.6L276.4 411.4z"/><path class="st3" d="M540.2 710.2l-10.6-6.2 29.3-16.9v12.3z"/><path class="st18" d="M540.2 710.2v-12.3l-10.6 6.1z"/><path class="st3" d="M623.3 662.2l-10.6-6.2 29.3-16.9v12.3z"/><path class="st18" d="M623.3 662.2v-12.3l-10.6 6.1z"/><path class="st16" d="M386.2 310.6l275.1 158.7-142.5 94.6-275-158.8v-12.3z"/><path class="st15" d="M518.8 551.6v12.3l-275-158.8v-12.3z"/><path class="st13" d="M661.3 469.3v12.3l-142.5 82.3v-12.3z"/><path class="st12" d="M614.1 379.1l-62.4 27-14.2-29.8L587 353l-23.6-57.5c-3.7-8.1-.2-17.8 7.9-21.5 8.1-3.7 17.8-.2 21.5 7.9l31.5 74.4c3.8 9.1-.7 18.7-10.2 22.8z"/><path class="st10" d="M533 392.4c2.2 8.7 9.4 15.2 16.1 14.5 6.7-.7 10.3-8.4 8.1-17.2-2.2-8.7-9.4-15.2-16.1-14.5-6.7.7-10.3 8.4-8.1 17.2z"/><path class="st15" d="M535.5 391.2c1.3 5.3 5 13.1 8.9 14.9l7.2-3.3c4.1-2 6.1-7.6 4.5-13.9-1.9-7.4-8-12.9-13.7-12.3-.8.1-1.5.3-2.2.6l-7.6 3.5c-1.3 2.6 1.9 6.7 2.9 10.5z"/><path class="st14" d="M527.7 394.8c1.9 7.4 8 13 13.7 12.3 5.7-.6 8.8-7.2 6.9-14.6-1.9-7.4-8-13-13.7-12.3-5.6.6-8.7 7.2-6.9 14.6z"/><path class="st12" d="M467.3 358.3l-62.8-37.7 20.1-26 47.9 26.4 8.8-38.7-.1 78.6c-4.4.9-9.4.1-13.9-2.6z"/><path class="st9" d="M481.3 285l-.1 75.7c-3.4.8-4.6 1.3-8.2-.1l8.3-75.6z"/><path class="st13" d="M392.8 292.7l40.9 44.1 47.4-51.3-40.9-44.1z"/><path class="st14" d="M395.2 295.2l16.3 17.6 37.3 7.7 1.7-1.9-11.5-64-31.3-2.5-13.8 39.4z"/><path class="st15" d="M375 303l57.2 16.5v-82.4L375 220.6z"/><path class="st8" d="M395.7 323.3l55.7 32.2-74.4 42.9-55.7-32.1z"/><path class="st6" d="M451.4 355.5l55.6 32.1-74.3 43-55.7-32.2z"/><path class="st16" d="M394.7 312l58.2 15.6-20.8-77.8-58.2-15.6z"/><path class="st15" d="M417.9 318.2l7.9 2.1 5.8-5.8c1.4-1.4 1.4-3.6 0-5s-3.6-1.4-5 0l-8.7 8.7zm-13.2-6.7l8.7-8.7c1.4-1.4 3.6-1.4 5 0 1.1 1.1 1.3 2.7.7 4l.3-.3c1.4-1.4 3.6-1.4 5 0s1.4 3.6 0 5l-5.8 5.8-7.9-2.1 1.6-1.6-7.6-2.1z"/><path class="st17" d="M395.9 312.3c.5 4.5 3 8.8 7.3 11.2 6.6 3.8 14.9 1.9 19.3-4.1l-26.6-7.1z"/><path class="st17" d="M429.5 307.6c1.4 1.4 1.4 3.6 0 5l-8.4 8.4c-1.4 1.4-3.6 1.4-5 0s-3.5-1.5-2.1-2.9l10.5-10.5c1.4-1.4 3.6-1.4 5 0zm-7.3-2.6c1.4 1.4 1.3 3.5 0 4.9l-8.4 8.4c-1.4 1.4-3.6 1.5-5 .1s-3.7-1.3-2.4-2.6l10.7-10.7c1.5-1.5 3.7-1.5 5.1-.1z"/><path class="st17" d="M415.8 301.4c1.4 1.4 1.4 3.6 0 5l-8.4 8.4c-1.4 1.4-3.6 1.4-5 0s-4.3-.8-2.9-2.1l11.3-11.3c1.4-1.4 3.6-1.4 5 0z"/><path class="st13" d="M398.1 326.8l48.7 28.1-65 37.5-48.7-28.1z"/><path class="st16" d="M451.3 358.1l48.6 28.1-65 37.5-48.6-28z"/><path class="st8" d="M310.9 356.5l74.4-42.9 10.4 9.7-74.4 43z"/><path class="st16" d="M397.6 321.8l48.7 28.1-65.1 37.5-48.6-28z"/><path class="st12" d="M355.2 357l25.9 14.9-2.3 1.3-25.9-14.9 2.3-1.3zm52.2-17l19.9 11.5-2.3 1.3-19.9-11.5 2.3-1.3zm-18.2-2.6l-2.3 1.3 31.2 18 2.3-1.3-31.2-18zm-6.8 3.9l-2.3 1.3 31.2 18 2.3-1.3-31.2-18zm-6.8 3.9l-2.3 1.3 31.2 18 2.3-1.3-31.2-18zm-6.8 4l-2.3 1.3 31.2 18 2.3-1.3-31.2-18zm-6.8 3.9l-2.3 1.3 31.2 18 2.3-1.3-31.2-18zm100.1 22.2l19.9 11.5-2.3 1.3-19.9-11.5 2.3-1.3zm-18.2-2.6l-2.3 1.3 31.2 18 2.3-1.3-31.2-18zm-6.8 3.9l-2.3 1.3 31.2 18 2.3-1.3-31.2-18zm-6.8 3.9l-2.3 1.3 31.2 18 2.3-1.3-31.2-18zm-6.8 4l31.2 18-17.2 9.9-31.2-18z"/><path class="st13" d="M490.6 405.4l68.8-17.3-48.2-36.3-68.8 17.3z"/><path class="st14" d="M540 393l8-2-10.2-10.2c-1.4-1.4-3.6-1.4-5 0s-1.4 3.6 0 5l7.2 7.2z"/><path class="st17" d="M547.9 391c-.5 4.5-3 8.8-7.3 11.2-6.6 3.8-14.9 1.9-19.3-4.1l26.6-7.1z"/><path class="st17" d="M514.3 386.3c-1.4 1.4-1.4 3.6 0 5l8.4 8.4c1.4 1.4 3.6 1.4 5 0s3.5-1.5 2.2-2.9l-10.5-10.5c-1.5-1.4-3.8-1.4-5.1 0z"/><path class="st17" d="M521.5 383.7c-1.4 1.4-1.3 3.5 0 4.9l8.4 8.4c1.4 1.4 3.6 1.5 5 .1s3.7-1.3 2.4-2.6l-10.7-10.7c-1.4-1.5-3.7-1.5-5.1-.1z"/><path class="st17" d="M527.9 380.1c-1.4 1.4-1.4 3.6 0 5l8.4 8.4c1.4 1.4 3.6 1.4 5 0s4.3-.8 2.9-2.1l-11.3-11.3c-1.3-1.4-3.6-1.4-5 0z"/><path class="st1" d="M345.6 378.3h-12.8v4.6h12.8c1 0 2 .4 2.7 1.1.7.7 1.1 1.6 1.1 2.7v12.5c0 1-.4 2-1.1 2.7-.7.7-1.6 1.1-2.7 1.1h-12.8v4.6h12.8c2.3 0 4.4-.9 5.9-2.5 1.5-1.5 2.5-3.6 2.5-5.9v-12.5c0-2.3-.9-4.4-2.5-5.9-1.5-1.6-3.6-2.5-5.9-2.5z"/><path class="st1" d="M302.2 410.4c0 6 8.5 10.8 18.9 10.8 10.4 0 18.9-4.8 18.9-10.8v-35.8h-37.8v35.8z"/><path class="st4" d="M321.1 385.4c10.4 0 18.9-4.8 18.9-10.8 0-5.9-8.5-10.8-18.9-10.8-10.4 0-18.9 4.8-18.9 10.8 0 5.9 8.5 10.8 18.9 10.8z"/><path class="st3" d="M303.4 378.4c2.7 4.1 9.6 6.9 17.7 6.9s15-2.9 17.7-6.9c-2.7-4.1-9.6-6.9-17.7-6.9s-15 2.9-17.7 6.9zM463 431l93.9 54.2v6.4l-60.2 34.8-93.9-54.2v-6.4z"/><path class="st11" d="M455.3 426.6l101.6 58.6-60.2 34.8-101.6-58.7z"/><path class="st12" d="M496.7 520v6.4l-101.6-58.6v-6.5z"/><path class="st3" d="M499.7 507.8l-8.5-4.9 8.5-4.9 8.5 4.9-8.5 4.9zM466 459.1l8.5-4.9c11.3 6.5 22.5 13 33.8 19.5l-8.5 4.9c-11.3-6.5-22.6-13-33.8-19.5zm21.1 41.4l8.5-4.9-8.5-4.9-8.5 4.9 8.5 4.9zm-12.6-7.3l-8.5-4.9 8.5-4.9 8.5 4.9-8.5 4.9zm-12.6-7.3l8.5-4.9-8.5-4.9-8.5 4.9 8.5 4.9zm-12.7-7.3l-8.5-4.9 8.5-4.9 8.5 4.9-8.5 4.9zm-12.6-7.3l8.5-4.9-8.5-4.9-8.5 4.9 8.5 4.9zM424 464l-8.5-4.9 8.5-4.9 8.5 4.9-8.5 4.9zm12.6-17.1l-8.5 4.9 8.5 4.9 8.5-4.9-8.5-4.9zm12.6 7.3l8.5 4.9-8.5 4.9-8.5-4.9 8.5-4.9zm12.7 7.3l-8.5 4.9 8.5 4.9 8.5-4.9-8.5-4.9zm12.6 7.3l-8.5 4.9 8.5 4.9 8.5-4.9-8.5-4.9zm12.6 7.3l-8.5 4.9 8.5 4.9 8.5-4.9-8.5-4.9zm12.6 7.3l8.5 4.9-8.5 4.9-8.5-4.9 8.5-4.9zm12.7 7.3l-8.5 4.9 8.5 4.9 8.5-4.9-8.5-4.9zm-63.2-51l8.5 4.9-8.5 4.9-8.5-4.9 8.5-4.9zm12.7 7.2l-8.5 4.9 8.5 4.9 8.5-4.9-8.5-4.9zm50.5 29.2l-8.5 4.9 8.5 4.9 8.5-4.9-8.5-4.9zm12.6 7.3l8.5 4.9-8.5 4.9-8.5-4.9 8.5-4.9z"/><path class="st13" d="M380.6 392.1l101.6 58.7 14.5 69.2-101.6-58.7z"/><path class="st1" d="M575.7 415.3l-60.5 34.9 80.8 46.7 60.5-35z"/><path class="st2" d="M515.2 433.9v16.3l80.8 46.7v-16.3z"/><path class="st19" d="M649.3 445v16.3L596 492.1v-16.3z"/><path class="st1" d="M575.7 399l-60.5 34.9 80.8 46.7 60.5-34.9z"/><path class="st6" d="M575.6 394.9l-60.5 35 80.8 46.6 60.5-34.9z"/><path class="st8" d="M515.1 413.6v16.3l80.8 46.6v-16.2z"/><path class="st19" d="M649.2 424.7V441l-53.3 30.7v-16.2z"/><path class="st6" d="M575.6 378.7l-60.5 34.9 80.8 46.7 60.5-35z"/><path class="st16" d="M528.1 422.5V436l47.4 27.3v-13.4z"/><path class="st3" d="M537.8 430c3 1.7 4.7 5.1 4 7.5-.8 2.4-3.8 3-6.8 1.3s-4.7-5.1-4-7.5c.8-2.5 3.8-3 6.8-1.3z"/><path class="st20" d="M537.6 430.4c1.4.8 2.5 2 3.2 3.3.7 1.2.9 2.6.5 3.6-.1.2-.1.4-.2.5-.4.7-1 1.1-1.8 1.3-.8.2-1.7.2-2.7-.2-.5-.2-.9-.4-1.4-.6-1.4-.8-2.5-2-3.2-3.3-.7-1.2-.9-2.6-.5-3.6.1-.2.1-.4.2-.5.4-.7 1-1.1 1.8-1.3.8-.2 1.7-.2 2.7.2.4.1.9.3 1.4.6zm4 2.9c-.8-1.4-2-2.8-3.6-3.7-.5-.3-1.1-.5-1.6-.7-1.2-.4-2.3-.4-3.2-.2-1 .3-1.8.8-2.3 1.7-.1.2-.2.5-.3.7-.4 1.3-.2 2.9.6 4.4.8 1.4 2 2.8 3.6 3.7.5.3 1.1.5 1.6.7 1.2.4 2.3.4 3.2.2 1-.3 1.8-.8 2.3-1.7.1-.2.2-.5.3-.7.4-1.4.1-3-.6-4.4z"/><path class="st16" d="M529.3 443.7v13.5l46.2 26.6v-13.4z"/><path class="st3" d="M539 451.2c3 1.7 4.7 5.1 4 7.5-.8 2.4-3.8 3-6.8 1.3s-4.7-5.1-4-7.5c.8-2.5 3.8-3 6.8-1.3z"/><path class="st20" d="M538.8 451.6c1.4.8 2.5 2 3.2 3.3.7 1.2.9 2.6.5 3.6-.1.2-.1.4-.2.5-.4.7-1 1.1-1.8 1.3-.8.2-1.7.2-2.7-.2-.5-.2-.9-.4-1.4-.6-1.4-.8-2.5-2-3.2-3.3-.7-1.2-.9-2.6-.5-3.6.1-.2.1-.4.2-.5.4-.7 1-1.1 1.8-1.3.8-.2 1.7-.2 2.7.2.4.1.9.3 1.4.6zm4 2.8c-.8-1.4-2-2.8-3.6-3.7-.5-.3-1.1-.5-1.6-.7-1.2-.4-2.3-.4-3.2-.2-1 .3-1.8.8-2.3 1.7-.1.2-.2.5-.3.7-.4 1.3-.2 2.9.6 4.3s2 2.8 3.6 3.7c.5.3 1.1.5 1.6.7 1.2.4 2.3.4 3.2.2 1-.3 1.8-.8 2.3-1.7.1-.2.2-.5.3-.7.4-1.2.1-2.8-.6-4.3z"/><path class="st1" d="M415.9 653l-60.5 34.9 80.8 46.7 60.5-35z"/><path class="st2" d="M355.4 671.6v16.3l80.8 46.7v-16.3z"/><path class="st19" d="M489.5 682.7V699l-53.3 30.8v-16.3z"/><path class="st1" d="M415.9 636.7l-60.5 34.9 80.8 46.7 60.5-34.9z"/><path class="st12" d="M415.8 632.6l-60.5 35 80.8 46.6 60.5-34.9z"/><path class="st12" d="M355.3 651.3v16.3l80.8 46.6V698z"/><path class="st19" d="M489.4 662.4v16.3l-53.3 30.7v-16.2z"/><path class="st11" d="M415.8 616.4l-60.5 34.9 80.8 46.7 60.5-35z"/><path class="st16" d="M368.2 660.2v13.5l47.4 27.3v-13.4z"/><path class="st3" d="M377.9 667.7c3 1.7 4.7 5.1 4 7.5-.8 2.4-3.8 3-6.8 1.3s-4.7-5.1-4-7.5c.8-2.5 3.9-3 6.8-1.3z"/><path class="st20" d="M377.7 668.1c1.4.8 2.5 2 3.2 3.3.7 1.2.9 2.6.5 3.6-.1.2-.1.4-.2.5-.4.7-1 1.1-1.8 1.3-.8.2-1.7.2-2.7-.2-.5-.2-.9-.4-1.4-.6-1.4-.8-2.5-2-3.2-3.3-.7-1.2-.9-2.6-.5-3.6.1-.2.1-.4.2-.5.4-.7 1-1.1 1.8-1.3.8-.2 1.7-.2 2.7.2.4.1.9.3 1.4.6zm4 2.8c-.8-1.4-2-2.8-3.6-3.7-.5-.3-1.1-.5-1.6-.7-1.2-.4-2.3-.4-3.2-.2-1 .3-1.8.8-2.3 1.7-.1.2-.2.5-.3.7-.4 1.3-.2 2.9.6 4.3s2 2.8 3.6 3.7c.5.3 1.1.5 1.6.7 1.2.4 2.3.4 3.2.2 1-.3 1.8-.8 2.3-1.7.1-.2.2-.5.3-.7.4-1.2.2-2.8-.6-4.3z"/><path class="st16" d="M369.5 681.4v13.5l46.1 26.6V708z"/><path class="st3" d="M379.1 688.9c3 1.7 4.7 5.1 4 7.5-.8 2.4-3.8 3-6.8 1.3s-4.7-5.1-4-7.5c.8-2.5 3.9-3.1 6.8-1.3z"/><path class="st20" d="M378.9 689.3c1.4.8 2.5 2 3.2 3.3.7 1.2.9 2.6.5 3.6-.1.2-.1.4-.2.5-.4.7-1 1.1-1.8 1.3-.8.2-1.7.2-2.7-.2-.5-.2-.9-.4-1.4-.6-1.4-.8-2.5-2-3.2-3.3-.7-1.2-.9-2.6-.5-3.6.1-.2.1-.4.2-.5.4-.7 1-1.1 1.8-1.3.8-.2 1.7-.2 2.7.2.5.1.9.3 1.4.6zm4 2.8c-.8-1.4-2-2.8-3.6-3.7-.5-.3-1.1-.5-1.6-.7-1.2-.4-2.3-.4-3.2-.2-1 .3-1.8.8-2.3 1.7-.1.2-.2.5-.3.7-.4 1.3-.2 2.9.6 4.4.8 1.4 2 2.8 3.6 3.7.5.3 1.1.5 1.6.7 1.2.4 2.3.4 3.2.2 1-.3 1.8-.8 2.3-1.7.1-.2.2-.5.3-.7.5-1.3.2-2.9-.6-4.4z"/><path class="st1" d="M415.9 612.6l-60.5 35 80.8 46.6 60.5-34.9z"/><path class="st2" d="M355.4 631.3v16.3l80.8 46.6V678z"/><path class="st19" d="M489.5 642.4v16.3l-53.3 30.7v-16.2z"/><path class="st1" d="M415.9 596.4l-60.5 34.9 80.8 46.7 60.5-35z"/><path class="st6" d="M415.8 592.3l-60.5 34.9 80.8 46.7 60.5-34.9z"/><path class="st8" d="M355.3 611v16.2l80.8 46.7v-16.3z"/><path class="st19" d="M489.4 622.1v16.2l-53.3 30.8v-16.3z"/><path class="st6" d="M415.8 576l-60.5 35 80.8 46.6 60.5-34.9z"/><path class="st16" d="M368.2 619.9v13.4l47.4 27.4v-13.5z"/><path class="st3" d="M377.9 627.4c3 1.7 4.7 5.1 4 7.5-.8 2.4-3.8 3-6.8 1.3s-4.7-5.1-4-7.5c.8-2.5 3.9-3.1 6.8-1.3z"/><path class="st20" d="M377.7 627.7c1.4.8 2.5 2 3.2 3.3.7 1.2.9 2.6.5 3.6-.1.2-.1.4-.2.5-.4.7-1 1.1-1.8 1.3-.8.2-1.7.2-2.7-.2-.5-.2-.9-.4-1.4-.6-1.4-.8-2.5-2-3.2-3.3-.7-1.2-.9-2.6-.5-3.6.1-.2.1-.4.2-.5.4-.7 1-1.1 1.8-1.3.8-.2 1.7-.2 2.7.2.4.2.9.4 1.4.6zm4 2.9c-.8-1.4-2-2.8-3.6-3.7-.5-.3-1.1-.5-1.6-.7-1.2-.4-2.3-.4-3.2-.2-1 .3-1.8.8-2.3 1.7-.1.2-.2.5-.3.7-.4 1.3-.2 2.9.6 4.3s2 2.8 3.6 3.7c.5.3 1.1.5 1.6.7 1.2.4 2.3.4 3.2.2 1-.3 1.8-.8 2.3-1.7.1-.2.2-.5.3-.7.4-1.3.2-2.8-.6-4.3z"/><path class="st16" d="M369.5 641.1v13.4l46.1 26.7v-13.5z"/><path class="st3" d="M379.1 648.5c3 1.7 4.7 5.1 4 7.5-.8 2.4-3.8 3-6.8 1.3s-4.7-5.1-4-7.5c.8-2.4 3.9-3 6.8-1.3z"/><path class="st20" d="M378.9 648.9c1.4.8 2.5 2 3.2 3.3.7 1.2.9 2.6.5 3.6-.1.2-.1.4-.2.5-.4.7-1 1.1-1.8 1.3-.8.2-1.7.2-2.7-.2-.5-.2-.9-.4-1.4-.6-1.4-.8-2.5-2-3.2-3.3-.7-1.2-.9-2.6-.5-3.6.1-.2.1-.4.2-.5.4-.7 1-1.1 1.8-1.3.8-.2 1.7-.2 2.7.2.5.1.9.4 1.4.6zm4 2.9c-.8-1.4-2-2.8-3.6-3.7-.5-.3-1.1-.5-1.6-.7-1.2-.4-2.3-.4-3.2-.2-1 .3-1.8.8-2.3 1.7-.1.2-.2.5-.3.7-.4 1.3-.2 2.9.6 4.4.8 1.4 2 2.8 3.6 3.7.5.3 1.1.5 1.6.7 1.2.4 2.3.4 3.2.2 1-.3 1.8-.8 2.3-1.7.1-.2.2-.5.3-.7.5-1.4.2-2.9-.6-4.4z"/><path class="st1" d="M415.9 571.4l-60.5 34.9 80.8 46.7 60.5-34.9z"/><path class="st2" d="M355.4 590.1v16.2l80.8 46.7v-16.3z"/><path class="st19" d="M489.5 601.2v16.2l-53.3 30.8v-16.3z"/><path class="st1" d="M415.9 555.1l-60.5 35 80.8 46.6 60.5-34.9z"/><path class="st12" d="M415.8 551.1L355.3 586l80.8 46.7 60.5-35z"/><path class="st12" d="M355.3 569.7V586l80.8 46.7v-16.3z"/><path class="st19" d="M489.4 580.8v16.3l-53.3 30.8v-16.3z"/><path class="st11" d="M415.8 534.8l-60.5 34.9 80.8 46.7 60.5-34.9z"/><path class="st16" d="M368.2 578.6v13.5l47.4 27.4V606z"/><path class="st3" d="M377.9 586.1c3 1.7 4.7 5.1 4 7.5-.8 2.4-3.8 3-6.8 1.3s-4.7-5.1-4-7.5c.8-2.4 3.9-3 6.8-1.3z"/><path class="st20" d="M377.7 586.5c1.4.8 2.5 2 3.2 3.3.7 1.2.9 2.6.5 3.6-.1.2-.1.4-.2.5-.4.7-1 1.1-1.8 1.3-.8.2-1.7.2-2.7-.2-.5-.2-.9-.4-1.4-.6-1.4-.8-2.5-2-3.2-3.3-.7-1.2-.9-2.6-.5-3.6.1-.2.1-.4.2-.5.4-.7 1-1.1 1.8-1.3.8-.2 1.7-.2 2.7.2.4.1.9.3 1.4.6zm4 2.9c-.8-1.4-2-2.8-3.6-3.7-.5-.3-1.1-.5-1.6-.7-1.2-.4-2.3-.4-3.2-.2-1 .3-1.8.8-2.3 1.7-.1.2-.2.5-.3.7-.4 1.3-.2 2.9.6 4.3s2 2.8 3.6 3.7c.5.3 1.1.5 1.6.7 1.2.4 2.3.4 3.2.2 1-.3 1.8-.8 2.3-1.7.1-.2.2-.5.3-.7.4-1.3.2-2.9-.6-4.3z"/><path class="st16" d="M369.5 599.8v13.5l46.1 26.7v-13.5z"/><path class="st3" d="M379.1 607.3c3 1.7 4.7 5.1 4 7.5-.8 2.4-3.8 3-6.8 1.3s-4.7-5.1-4-7.5c.8-2.5 3.9-3 6.8-1.3z"/><path class="st20" d="M378.9 607.7c1.4.8 2.5 2 3.2 3.3.7 1.2.9 2.6.5 3.6-.1.2-.1.4-.2.5-.4.7-1 1.1-1.8 1.3-.8.2-1.7.2-2.7-.2-.5-.2-.9-.4-1.4-.6-1.4-.8-2.5-2-3.2-3.3-.7-1.2-.9-2.6-.5-3.6.1-.2.1-.4.2-.5.4-.7 1-1.1 1.8-1.3.8-.2 1.7-.2 2.7.2.5.1.9.3 1.4.6zm4 2.9c-.8-1.4-2-2.8-3.6-3.7-.5-.3-1.1-.5-1.6-.7-1.2-.4-2.3-.4-3.2-.2-1 .3-1.8.8-2.3 1.7-.1.2-.2.5-.3.7-.4 1.3-.2 2.9.6 4.3s2 2.8 3.6 3.7c.5.3 1.1.5 1.6.7 1.2.4 2.3.4 3.2.2 1-.3 1.8-.8 2.3-1.7.1-.2.2-.5.3-.7.5-1.3.2-2.9-.6-4.3z"/><path class="st18" d="M246.4 540c0 11.7-16.6 21.2-37.1 21.2s-37.1-9.5-37.1-21.2v-72.8h74.3V540z"/><ellipse class="st3" cx="209.2" cy="467.2" rx="37.1" ry="21.2"/><path class="st16" d="M185 483.2l10.1-37.8 52.4-14.1-13.9 51.8c-6.5 3.3-15.1 5.2-24.4 5.2-9.2.1-17.7-1.9-24.2-5.1z"/><path class="st13" d="M231.8 484c-6.2 2.7-13.9 4.3-22.2 4.4-7.1-5.8-12.1-12.6-13.9-18.9l30.1-8.1 6 22.6z"/><path class="st15" d="M228.6 485.2c-5.6 2-12.3 3.1-19.4 3.1-13.5 0-25.3-4.1-31.8-10.3l22-22 29.2 29.2z"/></g></switch></svg>