<svg width="447" height="376" fill="none" xmlns="http://www.w3.org/2000/svg"><path fill-rule="evenodd" clip-rule="evenodd" d="M202.222 261.354c0 12.304 17.733 20.917 27.648 2.389l8.468-15.344c2.606-4.198 4.271-9.626 4.343-15.127 0-10.205-5.645-16.792-12.666-14.693l-5.501 1.665-.434 2.244c-1.23 1.302-2.388 2.967-3.402 4.704-3.908 6.731-18.383 29.385-18.456 34.162z" fill="#4B4B78"/><path fill-rule="evenodd" clip-rule="evenodd" d="M201.86 259.038c0 10.206 5.646 16.72 12.594 14.621 3.257-.941 6.224-3.619 8.468-7.238.29-.434.579-.941.869-1.448l10.205-18.311c2.605-4.126 4.27-9.554 4.27-15.055 0-10.205-5.645-16.719-12.594-14.62-3.618 1.086-6.948 4.271-9.264 8.541l-8.323 14.258c-2.316 4.053-6.225 14.041-6.225 19.252z" fill="#622891"/><path fill-rule="evenodd" clip-rule="evenodd" d="M234.43 245.865c2.388-4.053 3.836-9.119 3.836-14.33 0-10.205-5.645-16.719-12.594-14.62-3.618 1.085-6.948 4.27-9.264 8.54l-4.343 7.527 22.365 12.883z" fill="#4D1E73"/><path fill-rule="evenodd" clip-rule="evenodd" d="M168.205 236.022c0 11.074 15.923 18.746 24.825 2.172l7.6-13.752c2.388-3.764 3.836-8.613 3.908-13.607 0-9.192-5.066-15.127-11.363-13.245l-4.922 1.447-.362 2.027a20.098 20.098 0 00-3.039 4.198c-3.547 6.08-16.575 26.418-16.647 30.76z" fill="#4B4B78"/><path fill-rule="evenodd" clip-rule="evenodd" d="M167.915 233.851c0 9.119 5.067 15.054 11.291 13.173 2.895-.869 5.573-3.257 7.6-6.514.289-.435.506-.869.724-1.303l9.119-16.43c2.389-3.763 3.836-8.613 3.836-13.534 0-9.12-5.066-15.055-11.291-13.173-3.257.941-6.224 3.836-8.251 7.672l-7.455 12.883c-2.099 3.691-5.573 12.594-5.573 17.226z" fill="#622891"/><path fill-rule="evenodd" clip-rule="evenodd" d="M196.142 223.79l.579-1.013c2.389-3.763 3.836-8.613 3.836-13.534 0-9.12-5.066-15.055-11.29-13.173-3.257.941-6.225 3.836-8.251 7.672l-4.85 8.396 19.976 11.652z" fill="#4D1E73"/><path fill-rule="evenodd" clip-rule="evenodd" d="M255.926 327.507l7.889 4.56 87.939-50.736V172.765l-95.828 55.368v99.374z" fill="#E1EBF5"/><path fill-rule="evenodd" clip-rule="evenodd" d="M263.815 232.621v99.446l87.939-50.736v-99.447l-87.939 50.737z" fill="#BED2EB"/><path fill-rule="evenodd" clip-rule="evenodd" d="M263.815 232.621v9.119l87.939-50.736v-9.12l-87.939 50.737z" fill="#A5B9CD"/><path fill-rule="evenodd" clip-rule="evenodd" d="M62.968 211.704l7.89 4.559 87.938-50.736V56.961L62.968 112.33v99.374z" fill="#E1EBF5"/><path fill-rule="evenodd" clip-rule="evenodd" d="M70.857 116.817v99.446l87.939-50.736V66.081l-87.939 50.736z" fill="#7980A6"/><path fill-rule="evenodd" clip-rule="evenodd" d="M70.857 116.817v9.12L158.796 75.2v-9.12l-87.939 50.737z" fill="#A6B8CF" stroke="#4B4B78" stroke-width=".216" stroke-miterlimit="22.926"/><path fill-rule="evenodd" clip-rule="evenodd" d="M78.746 220.823l-7.889-4.56 21.786-12.521v9.12l-13.897 7.961z" fill="#4B4B78"/><path fill-rule="evenodd" clip-rule="evenodd" d="M78.746 220.823v-9.119l-7.889 4.559 7.89 4.56z" fill="#5A5F9B"/><path fill-rule="evenodd" clip-rule="evenodd" d="M140.484 185.213l-7.889-4.559 21.713-12.522v9.12l-13.824 7.961z" fill="#4B4B78"/><path fill-rule="evenodd" clip-rule="evenodd" d="M140.484 185.213v-9.119l-7.889 4.56 7.889 4.559z" fill="#5A5F9B"/><path fill-rule="evenodd" clip-rule="evenodd" d="M158.796 56.96l196.721 113.633v9.12l-105.743 61.014-196.721-113.56v-9.12l105.743-61.086z" fill="#BED2EB"/><path fill-rule="evenodd" clip-rule="evenodd" d="M249.774 231.607v9.12L45.598 122.896v-9.119l204.176 117.83z" fill="#E1EBF5"/><path fill-rule="evenodd" clip-rule="evenodd" d="M151.341 52.69l204.176 117.904-105.743 61.014L45.598 113.777 151.34 52.691z" fill="#F0F5FA"/><path fill-rule="evenodd" clip-rule="evenodd" d="M256.433 179.351l28.154 16.285-41.11 23.74-28.155-16.285 41.111-23.74zm-38.36-88.083l84.898 48.999v10.35l-3.474 2.027-93.656-53.994 12.232-7.382zm-60.942 86.853l-15.706-9.048 9.771-13.824c2.895-4.053 8.541-4.994 12.594-2.171 4.053 2.895 4.994 8.541 2.171 12.594l-8.83 12.449v9.119l-17.949-10.35v-9.119l17.949 10.35zM59.06 121.522l-1.81-3.113 58.264-33.655 8.541 14.837-51.533 29.82v9.047L54.5 128.036v-.579a8.929 8.929 0 013.04-6.732l1.52.797zm178.699 36.839c7.021 0 12.739 3.257 12.739 7.238 0 1.882-1.231 3.547-3.257 4.849-.29.145-.507.29-.796.507l-7.672 4.415c-2.316 1.52-5.718 2.461-9.482 2.461-7.02 0-12.738-3.257-12.738-7.238 0-2.099 1.52-3.981 3.981-5.283l8.178-4.705c2.244-1.448 5.501-2.244 9.047-2.244z" fill="#BED2EB"/><path fill-rule="evenodd" clip-rule="evenodd" d="M153.44 103.861l42.92-24.753.506.869-42.92 24.753-.506-.869z" fill="#4B4B78"/><path d="M236.167 162.27l51.098-29.53" stroke="#4B4B78" stroke-width="1.417" stroke-miterlimit="22.926" stroke-linecap="round"/><path fill-rule="evenodd" clip-rule="evenodd" d="M234.068 156.914c5.067 0 9.409 1.664 11.363 4.125h1.158v2.968c0 1.809-1.23 3.546-3.184 4.776-.29.145-.507.29-.796.507l-7.455 4.343c-2.316 1.447-5.646 2.388-9.409 2.388-6.948 0-12.594-3.184-12.594-7.165v-3.112l1.448-.218c.651-.723 1.52-1.375 2.533-1.881l7.961-4.632c2.244-1.231 5.429-2.099 8.975-2.099z" fill="#4B4B78"/><path fill-rule="evenodd" clip-rule="evenodd" d="M234.068 153.874c6.876 0 12.521 3.184 12.521 7.165 0 1.809-1.23 3.474-3.184 4.777-.29.145-.507.289-.796.434l-7.6 4.343c-2.316 1.447-5.645 2.388-9.337 2.388-6.875 0-12.521-3.184-12.521-7.165 0-2.027 1.52-3.909 3.908-5.211l8.034-4.633c2.316-1.23 5.501-2.098 8.975-2.098z" fill="#8C91CD"/><path fill-rule="evenodd" clip-rule="evenodd" d="M234.068 153.874c6.948 0 12.594 3.184 12.594 7.165 0 1.809-1.231 3.546-3.185 4.777a4.93 4.93 0 00-.796.506l-2.461 1.448v-.651c0-5.356-6.441-9.771-15.127-11.002 2.244-1.375 5.429-2.243 8.975-2.243z" fill="#4B4B78"/><path fill-rule="evenodd" clip-rule="evenodd" d="M233.127 99.88l39.229 22.727-29.168 16.864-39.301-22.726 29.24-16.864zm-83.668 1.304l74.476 42.919-33.8 19.47-74.404-42.92 33.728-19.469zm169.363 48.203l36.695 21.206-61.882 35.682-36.623-21.134 61.81-35.754z" fill="#BED2EB"/><path fill-rule="evenodd" clip-rule="evenodd" d="M181.233 91.268c3.981 0 7.527.94 10.205 2.388 2.678 1.52 4.343 3.691 4.343 6.08 0 2.388-1.665 4.559-4.343 6.079-2.606 1.52-6.224 2.389-10.205 2.389s-7.527-.941-10.205-2.389c-2.678-1.52-4.343-3.691-4.343-6.08 0-.433.072-.868.145-1.302l1.447-.796a4.42 4.42 0 00-.579 2.171c0 2.027 1.448 3.836 3.836 5.211 2.461 1.375 5.863 2.244 9.699 2.244 3.763 0 7.165-.869 9.698-2.244 2.389-1.375 3.836-3.184 3.836-5.21 0-2.028-1.447-3.837-3.836-5.212-2.46-1.375-5.862-2.244-9.698-2.244-3.764 0-7.166.869-9.699 2.244l-.145.072-3.908 2.244c.724-1.23 1.954-2.316 3.547-3.185 2.678-1.52 6.296-2.46 10.205-2.46z" fill="#4B4E78"/><path fill-rule="evenodd" clip-rule="evenodd" d="M213.947 256.65c-1.954 4.56-7.31 6.659-11.87 4.704l-32.352-14.186c-4.56-1.954-6.659-7.31-4.705-11.869 1.954-4.56 7.31-6.659 11.87-4.705l32.353 14.186c4.559 2.027 6.658 7.382 4.704 11.87z" fill="#EBBE9E"/><path fill-rule="evenodd" clip-rule="evenodd" d="M271.704 336.627l-7.889-4.56 21.786-12.521v9.119l-13.897 7.962z" fill="#4B4B78"/><path fill-rule="evenodd" clip-rule="evenodd" d="M271.704 336.627v-9.12l-7.889 4.56 7.889 4.56z" fill="#5A5F9B"/><path fill-rule="evenodd" clip-rule="evenodd" d="M333.442 301.017l-7.889-4.56 21.713-12.521v9.12l-13.824 7.961z" fill="#4B4B78"/><path fill-rule="evenodd" clip-rule="evenodd" d="M333.442 301.017v-9.12l-7.889 4.56 7.889 4.56z" fill="#5A5F9B"/><path fill-rule="evenodd" clip-rule="evenodd" d="M67.383 209.677l30.11-14.91c1.736-.868 3.908-1.375 5.862-1.375 1.954 0 3.474.434 4.994 1.158l53.704 21.713h.072l.217.073a13.306 13.306 0 017.962 12.376c-.073 7.383-6.152 13.245-13.462 13.1-1.737 0-3.402-.361-4.922-1.013-.217-.072-.362-.145-.579-.217l-43.426-18.673-45.67 25.766c-.29.145-.58.362-.869.507l-.072.072c-3.547 1.882-2.968 2.968-11.87 2.895-8.903-.145-24.247-11.291-24.102-24.753.217-13.462 14.62-24.246 24.753-24.101 10.205.072 12.883 2.895 17.298 7.382z" fill="#4B4E78"/><path fill-rule="evenodd" clip-rule="evenodd" d="M305.866 152.788l33.294 19.252-44.512 25.694-33.294-19.252 44.512-25.694z" fill="#AE63EB"/><path fill-rule="evenodd" clip-rule="evenodd" d="M339.16 163.066v8.975l-44.512 25.694v-8.975l44.512-25.694z" fill="#622891"/><path fill-rule="evenodd" clip-rule="evenodd" d="M265.263 169.218v8.902l29.385 16.936v-8.902l-29.385-16.936z" fill="#fff"/><path fill-rule="evenodd" clip-rule="evenodd" d="M305.866 143.813l33.294 19.253-44.512 25.694-33.294-19.253 44.512-25.694z" fill="#AE63EB"/><path fill-rule="evenodd" clip-rule="evenodd" d="M226.613 99.736l35.248 20.411v4.053l-18.818 10.856-35.32-20.338v-4.053l18.89-10.929z" fill="#4B4B78"/><path fill-rule="evenodd" clip-rule="evenodd" d="M226.686 99.664l35.32 20.41-18.963 10.929-35.32-20.338 18.963-11.001z" fill="#8C91CD"/><path fill-rule="evenodd" clip-rule="evenodd" d="M243.043 131.003v4.053l-35.32-20.338v-4.053l35.32 20.338zm-3.474-27.721l4.704 7.745v4.704l-4.704 2.751-9.554-5.573V97.782l9.554 5.5z" fill="#5C629E"/><path fill-rule="evenodd" clip-rule="evenodd" d="M239.569 103.282v15.2l4.704-2.751v-15.127l-4.704 2.678z" fill="#4B4B78"/><path fill-rule="evenodd" clip-rule="evenodd" d="M289.726 54.066v79.181l-3.474 2.026-93.656-53.993V2.027L196.142 0l93.584 54.066z" fill="#5C629E"/><path fill-rule="evenodd" clip-rule="evenodd" d="M286.252 56.093v79.18l3.474-2.026V54.066l-3.474 2.026z" fill="#4B4B78"/><path fill-rule="evenodd" clip-rule="evenodd" d="M286.252 56.092L192.596 2.027 196.142 0l93.584 54.066-3.474 2.026z" fill="#8C91CD"/><path fill-rule="evenodd" clip-rule="evenodd" d="M281.403 57.974v68.904l-84.32-48.638V9.337l84.32 48.637z" fill="#F0F5FA"/><path fill-rule="evenodd" clip-rule="evenodd" d="M305.866 139.254l33.366 19.253-44.512 25.694-33.366-19.253 44.512-25.694z" fill="#39BC80"/><path fill-rule="evenodd" clip-rule="evenodd" d="M339.232 149.532v8.975L294.72 184.2v-8.974l44.512-25.694z" fill="#1E915F"/><path fill-rule="evenodd" clip-rule="evenodd" d="M265.335 155.611v8.975l29.385 16.936v-8.902l-29.385-17.009z" fill="#fff"/><path fill-rule="evenodd" clip-rule="evenodd" d="M305.866 130.279l33.366 19.253-44.512 25.694-33.366-19.253 44.512-25.694z" fill="#39BC80"/><path fill-rule="evenodd" clip-rule="evenodd" d="M156.914 105.454l59.784 34.524v4.053l-26.852 15.488-59.712-34.451v-4.126l26.78-15.488z" fill="#4B4B78"/><path fill-rule="evenodd" clip-rule="evenodd" d="M145.913 99.085l70.785 40.893-26.852 15.488-70.785-40.893 26.852-15.488z" fill="#8C91CD"/><path fill-rule="evenodd" clip-rule="evenodd" d="M189.846 155.466v4.054l-70.785-40.821v-4.126l70.785 40.893z" fill="#5C629E"/><path fill-rule="evenodd" clip-rule="evenodd" d="M146.202 102.776l5.428 3.112-5.428 3.112-5.428-3.112 5.428-3.112zm21.496 30.977l-5.428 3.113-21.496-12.377 5.428-3.112 21.496 12.376zm-13.462-26.345l-5.428 3.112 5.428 3.112 5.428-3.112-5.428-3.112zm8.034 4.632l5.428 3.112-5.428 3.113-5.428-3.113 5.428-3.112zm8.034 4.705l-5.428 3.112 5.428 3.112 5.428-3.112-5.428-3.112zm8.034 4.632l5.428 3.112-5.428 3.112-5.429-3.112 5.429-3.112zm8.106 4.632l-5.428 3.112 5.428 3.112 5.428-3.112-5.428-3.112zm8.034 4.632l5.428 3.112-5.428 3.113-5.428-3.113 5.428-3.112zm8.034 4.632l-5.429 3.112 5.429 3.113 5.428-3.113-5.428-3.112zm-8.034 10.929l-5.428-3.112 5.428-3.112 5.428 3.112-5.428 3.112zm-8.034-4.704l5.428-3.113-5.428-3.112-5.428 3.112 5.428 3.113zm-8.106-4.632l-5.429-3.113 5.429-3.112 5.428 3.112-5.428 3.113zm-8.034-4.633l5.428-3.112-5.428-3.112-5.428 3.112 5.428 3.112zm-8.034-4.632l5.428-3.112-5.428-3.112-5.428 3.112 5.428 3.112zm-8.034-4.632l5.428-3.112-5.428-3.112-5.428 3.112 5.428 3.112zm-8.034-4.632l-5.428-3.112 5.428-3.112 5.428 3.112-5.428 3.112zm-8.034-4.632l5.429-3.112-5.429-3.113-5.428 3.113 5.428 3.112zm48.276 37.129l5.428-3.112-5.428-3.112-5.428 3.112 5.428 3.112zm-8.106-4.632l-5.429-3.112 5.429-3.112 5.428 3.112-5.428 3.112zm-8.034-4.704l5.428-3.113-5.428-3.112-5.428 3.112 5.428 3.113zm-32.136-18.529l5.429-3.112-5.429-3.112-5.428 3.112 5.428 3.112zm-8.034-4.632l-5.428-3.112 5.428-3.112 5.429 3.112-5.429 3.112z" fill="#4B4B78"/><path fill-rule="evenodd" clip-rule="evenodd" d="M350.957 266.493l48.566 28.01-48.566 28.01-48.565-28.01 48.565-28.01z" fill="#AE63EB"/><path fill-rule="evenodd" clip-rule="evenodd" d="M350.957 270.619l41.4 23.884-41.4 23.885-41.399-23.885 41.399-23.884z" fill="#622891"/><path fill-rule="evenodd" clip-rule="evenodd" d="M384.613 298.99l-33.656 19.398-33.727-19.398 33.727-19.469 33.656 19.469z" fill="#4B4B78"/><path fill-rule="evenodd" clip-rule="evenodd" d="M302.392 294.503l16.792 55.658 31.773 18.312 31.774-18.312 16.792-55.658-48.566 28.01-48.565-28.01z" fill="#7F37B9"/><path fill-rule="evenodd" clip-rule="evenodd" d="M399.523 294.503l-16.792 55.658-31.774 18.312v-45.96l48.566-28.01z" fill="#622891"/><path fill-rule="evenodd" clip-rule="evenodd" d="M385.337 195.274c-14.91-23.161 56.454-21.569 60.941 38.505-7.237-12.811-21.858-19.397-40.459-16.141-32.642 5.863-34.089-16.646-20.482-22.364z" fill="#1E915F"/><path fill-rule="evenodd" clip-rule="evenodd" d="M394.963 238.049c-2.316-8.034 11.218-11.001 16.502 2.606 1.954 4.921 3.402 13.1 4.27 20.699-5.211-6.296-16.285-7.599-24.174-8.178-11.508-.941-10.567-19.035 3.402-15.127z" fill="#105738"/><path fill-rule="evenodd" clip-rule="evenodd" d="M396.338 329.389c7.672-18.963 11.146-29.095 11.291-41.689.289-32.642-24.319-42.268-34.017-27.721-27.576-.289-26.201 23.813-5.067 33.873 12.811 6.152 27.359 22.799 27.793 35.537z" fill="#39BC80"/><path d="M352.043 298.991c-3.981-76.214 10.278-103.5 38.867-104.151m-39.229 66.876c3.836-13.752 19.18-9.916 21.931-1.665m-16.43-35.681c2.316-10.061-11.363-18.456-22.727-7.6m45.381 13.245c-14.837 6.948-23.016 13.824-27.503 27.069" stroke="#1E915F" stroke-width="2.835" stroke-miterlimit="22.926"/><path fill-rule="evenodd" clip-rule="evenodd" d="M366.084 237.325c-18.601-3.908 2.606-19.469 27.648-12.883-2.75 1.303-7.165 10.277-9.843 15.199-5.139 9.626-21.423 9.409-17.805-2.316z" fill="#1E915F"/><path fill-rule="evenodd" clip-rule="evenodd" d="M286.904 259.473c.868-15.996 3.257-27.286 8.612-38.65 13.969-29.53 40.242-24.391 42.703-7.02 24.898 11.725 8.034 32.642-7.817 31.556-25.983-1.809-37.491 2.751-43.498 14.114zm109.434 69.916l.072-.072c.941-4.705 1.376-9.554 1.376-14.476 0-21.713-9.265-41.255-24.102-54.934 0 .072-.072.072-.072.145-27.576-.29-26.201 23.812-5.067 33.872 12.811 6.08 27.359 22.727 27.793 35.465z" fill="#39BC80"/><path d="M115.548 73.172L57.27 106.86l8.585 14.851 58.278-33.689-8.585-14.851z" fill="#EBBE9E"/><path fill-rule="evenodd" clip-rule="evenodd" d="M67.31 182.029v28.444l52.113 30.109v13.824l-64.054 36.985L0 259.4V156.986l11.942-6.948 55.369 31.991z" fill="#7F37B9"/><path fill-rule="evenodd" clip-rule="evenodd" d="M67.31 210.473l52.113 30.109-52.112 30.109v-60.218z" fill="#AE63EB"/><path fill-rule="evenodd" clip-rule="evenodd" d="M80.194 223.356l32.136-16.502c1.881-1.013 3.98-1.592 6.224-1.592 1.954 0 3.764.434 5.428 1.158l74.404 30.326h.072l.218.072c5.138 2.172 8.757 7.238 8.757 13.173 0 7.889-6.369 14.331-14.33 14.331-1.882 0-3.692-.362-5.284-1.014-.217-.072-.434-.144-.579-.289l-63.185-27.214-48.71 28.372c-.29.217-.58.362-.941.506l-.073.073c-3.763 2.099-8.106 3.257-12.666 3.257-14.475 0-26.273-11.725-26.273-26.273 0-14.476 11.726-26.273 26.273-26.273 7.166.145 13.825 3.112 18.529 7.889z" fill="#5C629E"/><path fill-rule="evenodd" clip-rule="evenodd" d="M20.338 240.944l.29-30.036h.723v-72.305c0-14.62 14.91-20.99 19.542-18.891l30.254 13.824c5.356 1.738 8.178 4.126 12.449 8.469l21.568 22.002-18.239 17.009.217 53.849c0 10.132-16.212 18.383-32.208 18.383-16.067 0-26.417-5.283-30.615-12.666l-3.981.362z" fill="#39BC80"/><path fill-rule="evenodd" clip-rule="evenodd" d="M98.94 173.85l-11.942 7.166.217 53.848c0 7.455-8.83 13.969-19.904 16.792v-84.247l15.271 18.818L98.94 173.85z" fill="#1E915F"/><path fill-rule="evenodd" clip-rule="evenodd" d="M29.313 309.34c0 1.376-.29 2.751-.869 3.909v6.731l-6.441-3.764c-1.52-.941-2.606-2.967-2.606-5.5 0-3.692 2.244-7.021 4.922-7.383 2.75-.362 4.994 2.316 4.994 6.007z" fill="#4B4E78"/><path fill-rule="evenodd" clip-rule="evenodd" d="M35.682 313.032c0 3.691-2.244 7.02-4.922 7.382-2.75.362-4.921-2.316-4.921-6.007s2.243-7.021 4.921-7.383c2.75-.361 4.922 2.317 4.922 6.008z" fill="#3D3F63"/><path fill-rule="evenodd" clip-rule="evenodd" d="M29.313 352.55c0 1.375-.29 2.75-.869 3.908v6.731l-6.441-3.763c-1.52-.941-2.606-2.968-2.606-5.501 0-3.691 2.244-7.021 4.922-7.382 2.75-.362 4.994 2.316 4.994 6.007z" fill="#4B4E78"/><path fill-rule="evenodd" clip-rule="evenodd" d="M35.682 356.241c0 3.692-2.244 7.021-4.922 7.383-2.75.362-4.921-2.316-4.921-6.008 0-3.691 2.243-7.02 4.921-7.382 2.75-.362 4.922 2.316 4.922 6.007z" fill="#3D3F63"/><path fill-rule="evenodd" clip-rule="evenodd" d="M35.103 118.409a14.086 14.086 0 0114.114 14.114c0 5.862-3.547 10.856-8.541 13.028v14.62H20.989v-27.648c-.072-7.817 6.297-14.114 14.114-14.114z" fill="#39BC80"/><path fill-rule="evenodd" clip-rule="evenodd" d="M102.703 309.34c0 1.376-.289 2.751-.868 3.909v6.731l-6.442-3.764c-1.52-.941-2.605-2.967-2.605-5.5 0-3.692 2.243-7.021 4.921-7.383 2.823-.362 4.994 2.316 4.994 6.007z" fill="#4B4E78"/><path fill-rule="evenodd" clip-rule="evenodd" d="M109.145 313.032c0 3.691-2.244 7.02-4.922 7.382-2.75.362-4.921-2.316-4.921-6.007s2.243-7.021 4.921-7.383c2.678-.361 4.922 2.317 4.922 6.008z" fill="#3D3F63"/><path fill-rule="evenodd" clip-rule="evenodd" d="M102.703 352.333c0 1.375-.289 2.75-.868 3.908v6.731l-6.442-3.764c-1.52-.941-2.605-2.967-2.605-5.5 0-3.692 2.243-7.021 4.921-7.383 2.823-.362 4.994 2.316 4.994 6.008z" fill="#4B4E78"/><path fill-rule="evenodd" clip-rule="evenodd" d="M109.145 356.024c0 3.691-2.244 7.021-4.922 7.382-2.75.362-4.921-2.316-4.921-6.007s2.243-7.02 4.921-7.382c2.678-.362 4.922 2.316 4.922 6.007z" fill="#3D3F63"/><path fill-rule="evenodd" clip-rule="evenodd" d="M108.493 342.272v7.093l-8.757 4.994-36.623-21.207-36.84 21.207-8.758-4.994v-7.093l30.76-17.732-30.543-17.661v-7.02l8.758-5.067 36.623 21.135 36.695-21.135 8.758 5.067-4.126 9.409-26.417 15.272 30.47 17.732z" fill="#8C91CD"/><path fill-rule="evenodd" clip-rule="evenodd" d="M26.273 354.359v-7.021l-8.758-5.066v7.093l8.758 4.994z" fill="#5C629E"/><path fill-rule="evenodd" clip-rule="evenodd" d="M99.736 354.359v-7.021l8.758-5.066v7.093l-8.758 4.994z" fill="#4B4E78"/><path fill-rule="evenodd" clip-rule="evenodd" d="M71.436 320.848c0 2.606-3.69 4.705-8.25 4.705-4.56 0-8.252-2.099-8.252-4.705v-12.521H71.51v12.521h-.073z" fill="#5C629E"/><path fill-rule="evenodd" clip-rule="evenodd" d="M63.113 313.032c4.56 0 8.251-2.099 8.251-4.705 0-2.605-3.691-4.704-8.251-4.704s-8.251 2.099-8.251 4.704c0 2.606 3.691 4.705 8.251 4.705z" fill="#8C91CD"/><path fill-rule="evenodd" clip-rule="evenodd" d="M68.035 306.952v-25.115H58.19v25.115c0 1.52 2.172 2.823 4.922 2.823 2.75 0 4.922-1.303 4.922-2.823z" fill="#BED2EB"/><path fill-rule="evenodd" clip-rule="evenodd" d="M68.035 293.707v-11.87H58.19v11.87c1.375.579 3.04.941 4.922.941 1.882-.073 3.546-.362 4.922-.941z" fill="#A5B9CD"/><path fill-rule="evenodd" clip-rule="evenodd" d="M159.375 147.65c-.869 1.375-2.678 1.882-4.053 1.086l-8.541-5.139c-1.375-.869-1.882-2.678-1.086-4.053.797-1.376 2.678-1.882 4.054-1.086l8.54 5.139c1.448.796 1.882 2.605 1.086 4.053z" fill="#EBBE9E"/><path fill-rule="evenodd" clip-rule="evenodd" d="M99.736 354.359v-7.093l-36.623-21.278v7.093l36.623 21.278zm-45.38-33.365l-36.624-21.135v7.093l30.544 17.66 6.08-3.618z" fill="#5C629E"/><path fill-rule="evenodd" clip-rule="evenodd" d="M26.273 354.359v-7.093l36.84-21.278v7.093l-36.84 21.278zm45.598-33.365l36.623-21.135v7.093l-30.544 17.66-6.08-3.618z" fill="#4B4E78"/><path fill-rule="evenodd" clip-rule="evenodd" d="M151.92 151.703c0 1.664-1.375 2.967-3.04 2.967l-1.882-.145c-1.664 0-2.967-1.375-2.967-3.039 0-1.665 1.375-2.968 3.04-2.968l1.881.145c1.665.072 2.968 1.375 2.968 3.04z" fill="#EBBE9E"/><path fill-rule="evenodd" clip-rule="evenodd" d="M67.31 167.553v103.138l52.113-30.109v13.824l-64.054 36.985L0 259.4V142.438l11.942-6.876 55.369 31.991z" fill="#7F37B9"/><path fill-rule="evenodd" clip-rule="evenodd" d="M71.22 133.464c-18.384 22.147-51.895-6.804-21.57-10.35l21.57 10.35z" fill="#EBBE9E"/><path fill-rule="evenodd" clip-rule="evenodd" d="M142.004 132.523h-9.481v3.402h9.481c.796 0 1.448.289 1.954.796.507.506.797 1.23.797 1.954v9.264c0 .796-.29 1.448-.797 1.954a2.794 2.794 0 01-1.954.797h-9.481v3.401h9.481c1.737 0 3.257-.723 4.415-1.809 1.158-1.158 1.81-2.678 1.81-4.415v-9.264c0-1.737-.724-3.257-1.81-4.415-1.158-.941-2.75-1.665-4.415-1.665z" fill="#39BC80"/><path fill-rule="evenodd" clip-rule="evenodd" d="M109.796 156.408c0 4.415 6.297 8.034 14.042 8.034 7.744 0 14.041-3.547 14.041-8.034v-26.563h-28.083v26.563z" fill="#39BC80"/><path fill-rule="evenodd" clip-rule="evenodd" d="M123.765 137.879c7.745 0 14.041-3.619 14.041-8.034 0-4.415-6.296-8.034-14.041-8.034-7.744 0-14.041 3.619-14.041 8.034.072 4.415 6.369 8.034 14.041 8.034z" fill="#1E915F"/><path fill-rule="evenodd" clip-rule="evenodd" d="M110.665 132.668c2.026 3.039 7.093 5.138 13.1 5.138 6.008 0 11.074-2.171 13.101-5.138-2.027-3.04-7.093-5.139-13.101-5.139-5.935 0-11.074 2.171-13.1 5.139z" fill="#4B4B78"/><path fill-rule="evenodd" clip-rule="evenodd" d="M148.735 140.629c0 1.665-1.375 2.967-3.04 2.967l-1.881-.144c-1.665 0-2.968-1.376-2.968-3.04 0-1.665 1.375-2.968 3.04-2.968l1.882.145c1.665.072 2.967 1.375 2.967 3.04z" fill="#FBCEAE"/><path fill-rule="evenodd" clip-rule="evenodd" d="M242.464 360.294c0 8.686-12.377 15.706-27.576 15.706s-27.576-7.02-27.576-15.706v-54.065h55.152v54.065z" fill="#5A5F9B"/><path d="M214.888 321.934c15.23 0 27.576-7.032 27.576-15.706s-12.346-15.706-27.576-15.706c-15.229 0-27.576 7.032-27.576 15.706s12.347 15.706 27.576 15.706z" fill="#4B4B78"/><path fill-rule="evenodd" clip-rule="evenodd" d="M231.68 318.75c-4.56 2.026-10.278 3.184-16.502 3.256-5.284-4.342-8.975-9.409-10.35-14.041l22.364-6.007 4.488 16.792z" fill="#BED2EB"/><path fill-rule="evenodd" clip-rule="evenodd" d="M229.291 319.691c-4.198 1.447-9.119 2.316-14.403 2.316-9.988 0-18.818-3.04-23.595-7.6l16.357-16.357 21.641 21.641z" fill="#F0F5FA"/><path fill-rule="evenodd" clip-rule="evenodd" d="M106.684 58.987h20.411a3.475 3.475 0 013.474 3.474v39.084a3.475 3.475 0 01-3.474 3.474h-20.411a3.475 3.475 0 01-3.474-3.474V62.461a3.475 3.475 0 013.474-3.474z" fill="#4B4B78"/><path fill-rule="evenodd" clip-rule="evenodd" d="M108.494 61.593h16.791a2.904 2.904 0 012.895 2.895v32.136a2.904 2.904 0 01-2.895 2.895h-16.791a2.904 2.904 0 01-2.896-2.895V64.488c.073-1.664 1.376-2.895 2.896-2.895z" fill="#F0F5FA"/><path fill-rule="evenodd" clip-rule="evenodd" d="M52.546 108.421c4.994 0 9.047 4.054 9.047 9.048v13.679c0 2.823-4.053 5.139-9.047 5.139-4.994 0-9.047-2.316-9.047-5.139v-13.679c0-4.994 4.053-9.048 9.047-9.048z" fill="#FBCEAE"/><path fill-rule="evenodd" clip-rule="evenodd" d="M55.586 47.118c14.837 0 26.996 12.16 26.996 26.996v22.944c0 14.837-12.159 26.997-26.996 26.997-3.474 0-6.804-.652-9.844-1.882 2.968-1.954 4.922-5.356 4.922-9.12v-9.336c0-6.08-4.994-11.002-11.001-11.002-5.211 0-9.554 3.62-10.712 8.469-.217-1.303-.29-2.678-.29-4.054V74.187c0-14.91 12.087-27.07 26.925-27.07z" fill="#FBCEAE"/><path fill-rule="evenodd" clip-rule="evenodd" d="M55.658 92.86c7.672 10.495 1.158 25.839-12.304 25.839-7.527 0-20.845-8.179-15.271-23.305-7.672-4.705-5.79-14.187-.073-16.647C13.535 62.1 30.76 40.242 49.144 47.335c3.836-5.645 16.285-9.916 24.464-.072 5.718 6.803 13.462 6.224 17.66.94 6.08 7.89 1.665 17.516-4.705 20.628-4.632 2.244-10.567 1.882-15.344-2.316-2.967 6.803-1.013 14.837 4.126 19.542l-9.699 1.158-9.988 5.645z" fill="#4B4E78"/><path fill-rule="evenodd" clip-rule="evenodd" d="M61.304 76.14a6.95 6.95 0 016.948 6.949v5.862a6.95 6.95 0 01-6.948 6.949 6.95 6.95 0 01-6.949-6.949V83.09c.073-3.836 3.185-6.948 6.949-6.948zm93.221 66.733a10.039 10.039 0 0110.061 10.06 10.04 10.04 0 01-10.061 10.061c-5.573 0-6.152-6.514-6.152-10.061 0-3.546.29-2.823.869-4.053h-5.356c-1.665 0-2.967-1.303-3.04-2.967 0-1.665 1.303-2.968 2.968-3.04l9.988-.073h.362c.144.073.217.073.361.073z" fill="#FBCEAE"/><path fill-rule="evenodd" clip-rule="evenodd" d="M76.43 152.499c6.731-4.632 14.765-4.198 17.805.941 3.04 5.211.073 13.172-6.659 17.805-6.73 4.632-14.764 4.197-17.804-.941-3.113-5.139-.145-13.173 6.658-17.805z" fill="#39BC80"/><path fill-rule="evenodd" clip-rule="evenodd" d="M87.432 166.468c6.514-5.79 14.91-6.514 18.601-1.592 3.763 4.921 1.447 13.606-5.067 19.397-6.514 5.79-14.91 6.514-18.6 1.592-3.764-4.849-1.52-13.535 5.066-19.397z" fill="#105738"/><path fill-rule="evenodd" clip-rule="evenodd" d="M115.948 207.723L90.761 182.97c-3.474-3.402-3.619-9.264-.145-12.738 3.475-3.547 9.192-3.619 12.739-.145l17.66 17.37 26.49-37.419c2.895-4.053 8.54-4.994 12.594-2.171 4.053 2.895 4.994 8.541 2.171 12.594l-32.498 45.887c-3.184 4.415-9.77 5.356-13.824 1.375z" fill="#FBCEAE"/><path fill-rule="evenodd" clip-rule="evenodd" d="M112.909 101.256h7.961a.88.88 0 01.869.868.88.88 0 01-.869.869h-7.961a.88.88 0 01-.869-.869c0-.506.362-.868.869-.868z" fill="#F0F5FA"/><path fill-rule="evenodd" clip-rule="evenodd" d="M232.621 83.161l13.896 8.034V64.85l-13.896-8.034V83.16z" fill="#622891"/><path fill-rule="evenodd" clip-rule="evenodd" d="M251.077 93.8l13.896 8.035V65.139l-13.896-8.033V93.8z" fill="#39BC80"/><path fill-rule="evenodd" clip-rule="evenodd" d="M214.237 72.522l13.896 8.034v-15.85l-13.896-8.035v15.851z" fill="#622891"/><path fill-rule="evenodd" clip-rule="evenodd" d="M206.058 32.86l-3.546-2.027V29.24l3.546 2.1V20.265l1.52.94v54.718l70.061 40.459v1.52l-70.785-40.821-.796-.507-3.546-2.026v-1.52l3.546 2.026V67.89l-3.546-2.1v-1.519l3.546 2.027v-7.166l-3.546-2.099v-1.52l3.546 2.027v-7.165l-3.546-2.1v-1.52l3.546 2.1v-7.238l-3.546-2.099v-1.52l3.546 2.099v-7.238zm30.109 14.04l-14.331-8.25v-3.113l14.331 8.251V46.9zm5.935-2.533v-3.112L221.764 29.53v3.112l20.338 11.725z" fill="#4B4B78"/><path fill-rule="evenodd" clip-rule="evenodd" d="M218.435 197.084l58.046-.652-33.221 19.18-24.825-14.403v-4.125z" fill="#8C91CD"/><path fill-rule="evenodd" clip-rule="evenodd" d="M276.481 192.234v4.198l-33.221 19.18v-6.731l33.221-16.647z" fill="#4B4B78"/><path fill-rule="evenodd" clip-rule="evenodd" d="M251.656 177.903l24.825 14.331-33.221 19.18-24.825-14.331 33.221-19.18z" fill="#5C629E"/><path fill-rule="evenodd" clip-rule="evenodd" d="M243.26 186.299l4.632 2.678-4.632 2.678-4.632-2.678 4.632-2.678zm6.948 3.981l-4.632 2.678 4.632 2.678 4.632-2.678-4.632-2.678zm0 13.39l-4.632-2.678 4.632-2.678 4.632 2.678-4.632 2.678zm-6.948-3.981l-4.632-2.678 4.632-2.678 4.632 2.678-4.632 2.678zm-6.876-3.981l4.632-2.678-4.632-2.678-4.632 2.678 4.632 2.678zm6.876 11.943l4.632-2.678-4.632-2.678-4.632 2.678 4.632 2.678zm-6.876-3.981l4.632-2.678-4.632-2.678-4.632 2.678 4.632 2.678zm-6.948-3.981l-4.632-2.678 4.632-2.678 4.632 2.678-4.632 2.678z" fill="#4B4B78"/><path fill-rule="evenodd" clip-rule="evenodd" d="M257.156 194.333l4.633 2.678-4.633 2.678-4.704-2.678 4.704-2.678z" fill="#AE63EB"/><path fill-rule="evenodd" clip-rule="evenodd" d="M252.235 181.016l18.528 10.639-6.948 4.053-18.456-10.712 6.876-3.98z" fill="#F0F5FA"/><path d="M116.238 92.933h-7.31v2.099h7.31v-2.1zm0-4.488h-7.31v2.099h7.31v-2.1zm0-4.488h-7.31v2.1h7.31v-2.1zm0-4.487h-7.31v2.1h7.31v-2.1zm0-4.487h-7.31v2.099h7.31v-2.1zm0-4.56h-7.31v2.099h7.31v-2.1zm0-4.487h-7.31v2.098h7.31v-2.099z" fill="#4B4B78"/><path d="M124.199 92.933h-5.356v2.099h5.356v-2.1zm0-4.488h-5.356v2.099h5.356v-2.1zm0-4.488h-5.356v2.1h5.356v-2.1z" fill="#1E915F"/><path d="M126.154 79.47h-7.311v2.1h7.311v-2.1z" fill="#7F37B9"/><path d="M124.199 74.983h-5.356v2.099h5.356v-2.1z" fill="#1E915F"/><path d="M126.154 70.423h-7.311v2.099h7.311v-2.1zm0-4.487h-7.311v2.098h7.311v-2.099z" fill="#7F37B9"/><path fill-rule="evenodd" clip-rule="evenodd" d="M109.217 76.213c.145 2.027-1.375 3.836-3.401 4.053h-2.389c-2.026.145-3.836-1.375-4.053-3.401-.145-2.027 1.375-3.837 3.402-4.054h2.388c2.099-.217 3.909 1.375 4.053 3.402zm25.622-3.546c.145 2.099-1.448 3.98-3.547 4.126h-2.46c-2.099.144-3.981-1.448-4.126-3.547-.145-2.099 1.448-3.98 3.547-4.125h2.46c2.172-.145 3.981 1.447 4.126 3.546z" fill="#FBCEAE"/><path fill-rule="evenodd" clip-rule="evenodd" d="M134.839 79.036c.145 2.099-1.448 3.98-3.547 4.126h-2.46c-2.099.144-3.981-1.448-4.126-3.547-.145-2.099 1.448-3.98 3.547-4.125h2.46c2.172-.145 3.981 1.447 4.126 3.546z" fill="#FBCEAE"/><path fill-rule="evenodd" clip-rule="evenodd" d="M134.839 85.188c.145 2.1-1.448 3.981-3.547 4.126h-2.46c-2.099.145-3.981-1.448-4.126-3.547-.145-2.099 1.448-3.98 3.547-4.125h2.46c2.172-.217 3.981 1.375 4.126 3.546z" fill="#FBCEAE"/><path fill-rule="evenodd" clip-rule="evenodd" d="M134.839 91.485c.145 2.099-1.448 3.98-3.547 4.126h-2.46c-2.099.144-3.981-1.448-4.126-3.547-.145-2.099 1.448-3.98 3.547-4.125h2.46c2.172-.218 3.981 1.447 4.126 3.546z" fill="#FBCEAE"/><path fill-rule="evenodd" clip-rule="evenodd" d="M55.369 291.391V174.357l11.942-6.948v103.282l52.112-30.109v13.824l-52.112 30.109-11.942 6.876z" fill="#622891"/><path fill-rule="evenodd" clip-rule="evenodd" d="M0 142.438l11.942-6.876 55.369 31.991-11.942 6.876L0 142.438z" fill="#AE63EB"/><path fill-rule="evenodd" clip-rule="evenodd" d="M252.235 181.016l18.528 10.639-1.881 1.086-16.647-9.554-4.994 2.895-1.882-1.086 6.876-3.98z" fill="#BED2EB"/></svg>