<svg width="676" height="380" fill="none" xmlns="http://www.w3.org/2000/svg"><path fill-rule="evenodd" clip-rule="evenodd" d="M436.759 99.508a4.604 4.604 0 014.623 4.623v64.729c0 1.439-2.055 2.62-4.623 2.62-2.569 0-4.624-1.181-4.624-2.62v-64.729c0-2.568 2.106-4.623 4.624-4.623z" fill="#5C629D"/><path d="M436.45 125.708c28.429 0 51.475-23.046 51.475-51.475 0-28.43-23.046-51.475-51.475-51.475-28.429 0-51.475 23.046-51.475 51.475 0 28.429 23.046 51.475 51.475 51.475z" fill="url(#paint0_radial_1:1993)"/><path fill-rule="evenodd" clip-rule="evenodd" d="M477.188 103.926c1.336 1.336 1.336 3.545 0 4.88l-34.265 34.266c-1.336 1.335-3.545 1.335-4.88 0-1.336-1.336-1.336-3.545 0-4.881l34.265-34.265c1.336-1.336 3.545-1.336 4.88 0z" fill="#4B4B78"/><path d="M474.466 130.588c15.775 0 28.563-12.788 28.563-28.563 0-15.775-12.788-28.563-28.563-28.563-15.775 0-28.563 12.788-28.563 28.563 0 15.775 12.788 28.563 28.563 28.563z" fill="url(#paint1_radial_1:1993)"/><path fill-rule="evenodd" clip-rule="evenodd" d="M348.45 151.959a4.604 4.604 0 014.623 4.623v64.729c0 1.439-2.055 2.62-4.623 2.62-2.569 0-4.624-1.181-4.624-2.62v-64.729c0-2.517 2.055-4.623 4.624-4.623z" fill="#5C629D"/><path d="M348.141 178.159c28.429 0 51.475-23.046 51.475-51.475 0-28.429-23.046-51.475-51.475-51.475-28.428 0-51.474 23.046-51.474 51.475 0 28.429 23.046 51.475 51.474 51.475z" fill="url(#paint2_radial_1:1993)"/><path fill-rule="evenodd" clip-rule="evenodd" d="M388.828 156.377c1.336 1.335 1.336 3.544 0 4.88l-34.265 34.265c-1.336 1.336-3.545 1.336-4.88 0-1.336-1.335-1.336-3.544 0-4.88l34.265-34.265c1.336-1.336 3.545-1.336 4.88 0z" fill="#4B4B78"/><path d="M386.106 183.039c15.775 0 28.563-12.788 28.563-28.563 0-15.775-12.788-28.563-28.563-28.563-15.775 0-28.563 12.788-28.563 28.563 0 15.775 12.788 28.563 28.563 28.563z" fill="url(#paint3_radial_1:1993)"/><path fill-rule="evenodd" clip-rule="evenodd" d="M168.904 186.122l151.137 87.281-133.568 77.11-151.137-87.282 133.568-77.109z" fill="#39BB80"/><path fill-rule="evenodd" clip-rule="evenodd" d="M28.35 145.075v114.098l6.986 4.058 133.568-77.109 97.196 56.149 67.966-82.966-165.162-95.347L28.35 145.076z" fill="#BDD1EA"/><path fill-rule="evenodd" clip-rule="evenodd" d="M320.041 159.305v114.098l-151.137-87.281V72.024l151.137 87.281z" fill="#E0EAF4"/><path fill-rule="evenodd" clip-rule="evenodd" d="M314.39 271.194l-17.826 10.326-24.864-14.384V245.2l17.826-10.275 24.864 14.384v21.885z" fill="#4B4B78"/><path fill-rule="evenodd" clip-rule="evenodd" d="M289.526 234.925L271.7 245.2l24.864 14.384 17.826-10.275-24.864-14.384z" fill="#8B90CC"/><path fill-rule="evenodd" clip-rule="evenodd" d="M271.7 267.136l24.864 14.384v-21.936L271.7 245.2v21.936z" fill="#5C629D"/><path fill-rule="evenodd" clip-rule="evenodd" d="M314.39 247.049l-17.826 10.274-24.864-14.332v-21.936l17.826-10.275 24.864 14.333v21.936z" fill="#4B4B78"/><path fill-rule="evenodd" clip-rule="evenodd" d="M289.526 210.78L271.7 221.055l24.864 14.333 17.826-10.275-24.864-14.333z" fill="#AD63EA"/><path fill-rule="evenodd" clip-rule="evenodd" d="M271.7 242.991l24.864 14.332v-21.935L271.7 221.055v21.936z" fill="#7F37B8"/><path fill-rule="evenodd" clip-rule="evenodd" d="M294.714 282.547l-17.826 10.274-24.813-14.332v-21.936l17.775-10.275 24.864 14.385v21.884z" fill="#622890"/><path fill-rule="evenodd" clip-rule="evenodd" d="M269.85 246.278l-17.775 10.275 24.813 14.384 17.826-10.274-24.864-14.385z" fill="#AD63EA"/><path fill-rule="evenodd" clip-rule="evenodd" d="M252.075 278.489l24.813 14.332v-21.884l-24.813-14.384v21.936z" fill="#7F37B8"/><path fill-rule="evenodd" clip-rule="evenodd" d="M294.714 258.403l-17.826 10.274-24.813-14.333v-21.936l17.775-10.274 24.864 14.333v21.936z" fill="#622890"/><path fill-rule="evenodd" clip-rule="evenodd" d="M269.85 222.134l-17.775 10.274 24.813 14.333 17.826-10.274-24.864-14.333z" fill="#AD63EA"/><path fill-rule="evenodd" clip-rule="evenodd" d="M252.075 254.344l24.813 14.333v-21.936l-24.813-14.333v21.936z" fill="#7F37B8"/><path fill-rule="evenodd" clip-rule="evenodd" d="M167.722 185.711V96.426l26.971 15.668.77.463v89.233l-2.311-1.336-25.43-14.743zm3.083-84.045v25.121c7.192 4.161 14.435 8.322 21.627 12.483v-25.018l-21.627-12.586zm0 28.614v25.018l21.627 12.484v-25.019l-21.627-12.483zm0 28.563v25.07l21.627 12.534v-25.121a8152.645 8152.645 0 01-21.627-12.483z" fill="#5C629D"/><path fill-rule="evenodd" clip-rule="evenodd" d="M168.904 187.406l28.152 16.233-62.931 36.321-28.152-16.234 62.931-36.32z" fill="#1E905F"/><path fill-rule="evenodd" clip-rule="evenodd" d="M168.904 179.803l28.152 16.233v2.877l-62.931 36.32L105.973 219v-2.877l62.931-36.32z" fill="#BDD1EA"/><path fill-rule="evenodd" clip-rule="evenodd" d="M168.904 179.803l28.152 16.233-62.931 36.372-28.152-16.285 62.931-36.32z" fill="#EFF4F9"/><path fill-rule="evenodd" clip-rule="evenodd" d="M182.569 199.479l-14.744 8.476-20.549-11.867v-18.134l14.744-8.528 20.549 11.867v18.186z" fill="#1E905F"/><path fill-rule="evenodd" clip-rule="evenodd" d="M162.02 169.426l-14.744 8.528 20.549 11.867 14.744-8.528-20.549-11.867z" fill="#5AD59D"/><path fill-rule="evenodd" clip-rule="evenodd" d="M147.276 196.088l20.549 11.867v-18.134l-20.549-11.867v18.134z" fill="#39BB80"/><path fill-rule="evenodd" clip-rule="evenodd" d="M157.14 214.171l-14.693 8.476-20.6-11.867v-18.134l14.744-8.528 20.549 11.867v18.186z" fill="#1E905F"/><path fill-rule="evenodd" clip-rule="evenodd" d="M136.591 184.118l-14.744 8.528 20.6 11.867 14.693-8.528-20.549-11.867z" fill="#5AD59D"/><path fill-rule="evenodd" clip-rule="evenodd" d="M121.847 210.78l20.6 11.867v-18.134l-20.6-11.867v18.134z" fill="#39BB80"/><path fill-rule="evenodd" clip-rule="evenodd" d="M168.904 151.188l28.152 16.234v2.877l-62.931 36.32-28.152-16.285v-2.825l62.931-36.321z" fill="#BDD1EA"/><path fill-rule="evenodd" clip-rule="evenodd" d="M168.904 151.188l28.152 16.234-62.931 36.32-28.152-16.233 62.931-36.321z" fill="#EFF4F9"/><path fill-rule="evenodd" clip-rule="evenodd" d="M182.569 170.813l-14.744 8.528-20.549-11.867v-18.186l14.744-8.476 20.549 11.866v18.135z" fill="#1E905F"/><path fill-rule="evenodd" clip-rule="evenodd" d="M162.02 140.812l-14.744 8.476 20.549 11.867 14.744-8.477-20.549-11.866z" fill="#5AD59D"/><path fill-rule="evenodd" clip-rule="evenodd" d="M147.276 167.474l20.549 11.867v-18.186l-20.549-11.867v18.186z" fill="#39BB80"/><path fill-rule="evenodd" clip-rule="evenodd" d="M157.14 185.505l-14.693 8.528-20.6-11.867V163.98l14.744-8.476 20.549 11.867v18.134z" fill="#1E905F"/><path fill-rule="evenodd" clip-rule="evenodd" d="M136.591 155.504l-14.744 8.476 20.6 11.867 14.693-8.476-20.549-11.867z" fill="#5AD59D"/><path fill-rule="evenodd" clip-rule="evenodd" d="M121.847 182.166l20.6 11.867v-18.186l-20.6-11.867v18.186z" fill="#39BB80"/><path fill-rule="evenodd" clip-rule="evenodd" d="M168.904 122.523l28.152 16.285v2.825l-62.931 36.321-28.152-16.234v-2.877l62.931-36.32z" fill="#BDD1EA"/><path fill-rule="evenodd" clip-rule="evenodd" d="M168.904 122.523l28.152 16.285-62.931 36.32-28.152-16.285 62.931-36.32z" fill="#EFF4F9"/><path fill-rule="evenodd" clip-rule="evenodd" d="M182.569 142.198l-14.744 8.477-20.549-11.867v-18.135l14.744-8.527 20.549 11.866v18.186z" fill="#1E905F"/><path fill-rule="evenodd" clip-rule="evenodd" d="M162.02 112.146l-14.744 8.527 20.549 11.867 14.744-8.528-20.549-11.866z" fill="#5AD59D"/><path fill-rule="evenodd" clip-rule="evenodd" d="M147.276 138.808l20.549 11.867V132.54l-20.549-11.867v18.135z" fill="#39BB80"/><path fill-rule="evenodd" clip-rule="evenodd" d="M157.14 156.891l-14.693 8.477-20.6-11.867v-18.135l14.744-8.528 20.549 11.867v18.186z" fill="#1E905F"/><path fill-rule="evenodd" clip-rule="evenodd" d="M136.591 126.838l-14.744 8.528 20.6 11.867 14.693-8.528-20.549-11.867z" fill="#5AD59D"/><path fill-rule="evenodd" clip-rule="evenodd" d="M121.847 153.501l20.6 11.867v-18.135l-20.6-11.867v18.135z" fill="#39BB80"/><path fill-rule="evenodd" clip-rule="evenodd" d="M105.973 222.493v-89.285l26.971 15.669.77.462v89.233l-2.312-1.335-25.429-14.744zm3.031-84.045v25.121c7.192 4.161 14.436 8.322 21.628 12.483v-25.018l-21.628-12.586zm0 28.614v25.019l21.628 12.483v-25.018l-21.628-12.484zm0 28.563v25.07l21.628 12.535v-25.121a7738.709 7738.709 0 00-21.628-12.484z" fill="#5C629D"/><path fill-rule="evenodd" clip-rule="evenodd" d="M334.066 159.305l-140.555 81.168-7.038-4.058 140.555-81.168-158.124-91.289-7.038 4.059L28.35 145.075l6.986 4.059 133.568-77.11 151.137 87.281 6.987-4.058 7.038 4.058z" fill="#EFF4F9"/><path fill-rule="evenodd" clip-rule="evenodd" d="M28.35 145.075v114.098l6.986 4.058V149.134l-6.986-4.059zm262.255 61.904v83.428l7.038 4.058v-83.428l-7.038-4.058z" fill="#E0EAF4"/><path fill-rule="evenodd" clip-rule="evenodd" d="M297.643 294.465l36.423-21.062V159.305c-46.852 27.073-93.703 54.095-140.555 81.168v114.098l42.742-24.659v-83.428l61.39-35.447v83.428z" fill="#BDD1EA"/><path fill-rule="evenodd" clip-rule="evenodd" d="M322.455 165.983l-112.351 64.883v19.882l3.237 1.9 109.114-62.982v-23.683z" fill="#A4B8CC"/><path fill-rule="evenodd" clip-rule="evenodd" d="M186.473 236.415v114.097l7.038 4.059V240.473l-7.038-4.058z" fill="#E0EAF4"/><path fill-rule="evenodd" clip-rule="evenodd" d="M116.402 253.162l-17.775 10.326-24.864-14.384v-21.936l17.826-10.274 24.813 14.384v21.884z" fill="#622890"/><path fill-rule="evenodd" clip-rule="evenodd" d="M91.589 216.894l-17.826 10.274 24.864 14.384 17.775-10.274-24.813-14.384z" fill="#AD63EA"/><path fill-rule="evenodd" clip-rule="evenodd" d="M73.763 249.104l24.864 14.384v-21.936l-24.864-14.384v21.936z" fill="#7F37B8"/><path fill-rule="evenodd" clip-rule="evenodd" d="M116.402 229.017l-17.775 10.275-24.864-14.333v-21.936l17.826-10.274 24.813 14.332v21.936z" fill="#622890"/><path fill-rule="evenodd" clip-rule="evenodd" d="M91.589 192.749l-17.826 10.274 24.864 14.333 17.775-10.275-24.813-14.332z" fill="#AD63EA"/><path fill-rule="evenodd" clip-rule="evenodd" d="M73.763 224.959l24.864 14.333v-21.936l-24.864-14.333v21.936z" fill="#7F37B8"/><path fill-rule="evenodd" clip-rule="evenodd" d="M96.778 264.515L78.95 274.79l-24.81-14.333v-21.936l17.774-10.274 24.865 14.384v21.884z" fill="#622890"/><path fill-rule="evenodd" clip-rule="evenodd" d="M71.913 228.247L54.14 238.521l24.812 14.384 17.827-10.274-24.865-14.384z" fill="#AD63EA"/><path fill-rule="evenodd" clip-rule="evenodd" d="M54.139 260.457L78.95 274.79v-21.885l-24.81-14.384v21.936z" fill="#5C629D"/><path fill-rule="evenodd" clip-rule="evenodd" d="M96.778 240.37L78.95 250.645l-24.81-14.333v-21.936l17.774-10.274 24.865 14.332v21.936z" fill="#622890"/><path fill-rule="evenodd" clip-rule="evenodd" d="M71.913 204.102L54.14 214.376l24.812 14.333 17.827-10.275-24.865-14.332z" fill="#AD63EA"/><path fill-rule="evenodd" clip-rule="evenodd" d="M54.139 236.312l24.812 14.333v-21.936L54.14 214.376v21.936z" fill="#7F37B8"/><path fill-rule="evenodd" clip-rule="evenodd" d="M64.31 302.12l29.796 17.466-40.122 23.015-29.796-17.569L64.31 302.12z" fill="#868600"/><path fill-rule="evenodd" clip-rule="evenodd" d="M64.31 342.601l45.105-26.354v17.929L64.31 359.811v-17.21z" fill="#1E905F"/><path fill-rule="evenodd" clip-rule="evenodd" d="M15.353 314.346l12.175-13.819-10.07-6.319-13.51 7.912 11.405 12.226z" fill="#5AD59D"/><path fill-rule="evenodd" clip-rule="evenodd" d="M54.139 284.961v-46.44l34.83 20.138 4.983 60.876-29.796-17.569-10.017-17.005z" fill="#333"/><path fill-rule="evenodd" clip-rule="evenodd" d="M54.087 284.961L64.31 302.12l-40.12 22.912-10.02-17.004 39.916-23.067z" fill="#969A00"/><path fill-rule="evenodd" clip-rule="evenodd" d="M99.5 310.596l9.915 5.651-45.105 26.354-10.788-5.6L99.5 310.596z" fill="#5AD59D"/><path fill-rule="evenodd" clip-rule="evenodd" d="M14.171 308.028v-46.39l39.968-23.117 34.83 20.138-35.447 78.342 10.788 5.6v17.21L3.948 325.135V302.12l10.223 5.908z" fill="#39BB80"/><path fill-rule="evenodd" clip-rule="evenodd" d="M17.459 307.052v-38.735l29.076 16.799 4.162 50.807-24.865-14.693-8.373-14.178z" fill="#5C629D"/><path fill-rule="evenodd" clip-rule="evenodd" d="M47.1 292.564l.309 3.751-22.707 23.066-1.49-2.569L47.1 292.564zm-4.88-9.965l4.316 2.517.256 3.185-25.275 25.686-3.647-6.267 24.35-25.121z" fill="#8B90CC"/><path fill-rule="evenodd" clip-rule="evenodd" d="M49.002 281.725l39.967-23.066 4.52 55.379-39.967 22.963-4.52-55.276z" fill="#1E905F"/><path fill-rule="evenodd" clip-rule="evenodd" d="M52.29 284.55l34.007-19.624 4.213 50.859-34.008 19.521-4.213-50.756z" fill="#3D3F63"/><path fill-rule="evenodd" clip-rule="evenodd" d="M54.139 238.521l34.83 20.138L49 281.725l-34.83-20.087 39.968-23.117z" fill="#5AD59D"/><path fill-rule="evenodd" clip-rule="evenodd" d="M103.815 334.227v-9.709l4.47-2.671v9.709l-4.47 2.671z" fill="#EFF4F9"/><path fill-rule="evenodd" clip-rule="evenodd" d="M3.948 325.135v5.856l60.362 34.676v-5.856L3.948 325.135z" fill="#5C629D"/><path fill-rule="evenodd" clip-rule="evenodd" d="M64.31 365.667l45.105-25.943v-5.548L64.31 359.811v5.856z" fill="#3D3F63"/><path fill-rule="evenodd" clip-rule="evenodd" d="M81.674 287.89v77.366l-4.161 2.106v-77.161l4.161-2.311z" fill="#3D3F63"/><path fill-rule="evenodd" clip-rule="evenodd" d="M73.352 287.89v77.007l4.161 2.465v-77.161l-4.161-2.311z" fill="#5C629D"/><path fill-rule="evenodd" clip-rule="evenodd" d="M81.674 287.89l-4.161-2.415-4.161 2.415 4.161 2.311 4.161-2.311z" fill="#8B90CC"/><path fill-rule="evenodd" clip-rule="evenodd" d="M107.411 273.813v77.367l-4.161 2.106v-77.161l4.161-2.312z" fill="#3D3F63"/><path fill-rule="evenodd" clip-rule="evenodd" d="M99.09 273.813v77.367l4.16 2.106v-77.161l-4.16-2.312z" fill="#5C629D"/><path fill-rule="evenodd" clip-rule="evenodd" d="M107.411 273.814l-4.161-2.363-4.16 2.363 4.16 2.312 4.161-2.312z" fill="#8B90CC"/><path fill-rule="evenodd" clip-rule="evenodd" d="M77.513 352.208l-1.541-.925v15.155l1.54.873L99.553 380l4.418-2.517v-1.336L81.982 363.51l-4.47-11.302z" fill="#5C629D"/><path fill-rule="evenodd" clip-rule="evenodd" d="M66.622 355.547v-9.71l4.418-2.671v9.709l-4.418 2.672z" fill="#EFF4F9"/><path fill-rule="evenodd" clip-rule="evenodd" d="M108.439 316.401l-1.027-.719-.976.565.77.822 1.233-.668z" fill="#3D3D3D"/><path fill-rule="evenodd" clip-rule="evenodd" d="M63.95 255.988l-17.67 10.223-8.836-5.086 17.62-10.223 8.888 5.086z" fill="#8B90CC"/><path fill-rule="evenodd" clip-rule="evenodd" d="M63.95 255.987v1.644l-17.67 10.172v-1.593l17.672-10.223z" fill="#4B4B78"/><path fill-rule="evenodd" clip-rule="evenodd" d="M46.279 267.803l-8.836-4.931v-1.747l8.836 5.086v1.592z" fill="#5C629D"/><path fill-rule="evenodd" clip-rule="evenodd" d="M7.39 326.984l-2.723-3.494 6.473-3.544.77-.463h.052c2.106-1.027 4.675-.821 7.244.771 5.342 3.391 8.836 11.764 7.757 18.7-.463 3.03-1.747 5.239-3.494 6.524a9.328 9.328 0 01-1.387.77l-6.524 3.648-2.26-6.113c-4.161-3.905-6.73-10.891-5.908-16.799z" fill="#3D3F63"/><path fill-rule="evenodd" clip-rule="evenodd" d="M19.72 342.909c1.13-6.884-2.364-15.309-7.758-18.699-5.343-3.391-10.634-.565-11.764 6.267-1.079 6.833 2.363 15.258 7.706 18.7 5.445 3.442 10.736.616 11.815-6.268z" fill="#5C629D"/><path fill-rule="evenodd" clip-rule="evenodd" d="M16.637 340.957c.77-4.726-1.644-10.429-5.291-12.74-3.648-2.312-7.244-.36-8.014 4.264-.771 4.674 1.643 10.377 5.24 12.74 3.698 2.363 7.294.411 8.065-4.264z" fill="#E0EAF4"/><path fill-rule="evenodd" clip-rule="evenodd" d="M13.657 339.056c.411-2.62-.873-5.754-2.928-7.038-2.003-1.284-4.007-.205-4.418 2.363-.41 2.569.874 5.703 2.877 7.038 2.055 1.285 4.058.206 4.47-2.363zm28.923 11.302l-2.363-3.031 5.6-3.031c.205-.154.41-.257.667-.411h.052c1.798-.873 4.007-.719 6.267.668 4.623 2.928 7.654 10.172 6.678 16.131-.41 2.62-1.49 4.521-3.03 5.651-.36.257-.771.514-1.233.668l-5.652 3.133-1.849-5.291c-3.596-3.339-5.805-9.35-5.137-14.487z" fill="#3D3F63"/><path fill-rule="evenodd" clip-rule="evenodd" d="M53.265 364.126c.976-5.959-2.055-13.254-6.678-16.131-4.624-2.928-9.196-.462-10.12 5.446-.925 5.907 2.054 13.151 6.678 16.13 4.623 2.98 9.196.514 10.12-5.445z" fill="#5C629D"/><path fill-rule="evenodd" clip-rule="evenodd" d="M50.594 362.431c.668-4.059-1.387-9.042-4.572-10.994-3.134-2.003-6.267-.308-6.884 3.699-.668 4.007 1.387 8.99 4.52 10.994 3.186 2.054 6.32.359 6.936-3.699z" fill="#E0EAF4"/><path fill-rule="evenodd" clip-rule="evenodd" d="M48.025 360.787c.36-2.261-.77-4.983-2.517-6.062-1.747-1.079-3.442-.154-3.801 2.055-.36 2.209.77 4.931 2.517 6.062 1.747 1.13 3.442.205 3.801-2.055z" fill="#3D3F63"/><path fill-rule="evenodd" clip-rule="evenodd" d="M77.513 366.13l4.47-2.62 21.987 12.637-4.418 2.62-22.04-12.637z" fill="#8B90CC"/><path fill-rule="evenodd" clip-rule="evenodd" d="M77.513 366.129v-13.922l4.47-2.671v13.973l-4.47 2.62z" fill="#3D3F63"/><path fill-rule="evenodd" clip-rule="evenodd" d="M409.069 337.156l-9.966 5.753-5.035-2.876 9.966-5.754 5.035 2.877zm-15.001 8.63l-5.034-2.877-9.966 5.754 5.034 2.877 9.966-5.754zm-15 8.682l-9.967 5.754-5.034-2.877 9.966-5.754 5.035 2.877zm-15.001 8.631l-5.035-2.877-3.698 2.157-3.853-2.209-4.983 2.877 7.603 4.418 1.233.72 1.233-.72 7.5-4.366zm-22.553-2.98l-9.966-5.754 4.983-2.876 9.967 5.753-4.984 2.877zm-15-8.682l-9.966-5.753 4.983-2.877 9.966 5.753-4.983 2.877zm-15.001-8.63l-9.966-5.754 4.983-2.877 9.966 5.754-4.983 2.877zm-15.001-8.682l-10.017-5.754 4.983-2.877 9.966 5.754-4.932 2.877zm-21.268-5.035l17.313-10.017h-17.313v10.017z" fill="#E0EAF4"/><path fill-rule="evenodd" clip-rule="evenodd" d="M99.552 380v-1.233l4.418-2.62v1.336L99.552 380z" fill="#3D3F63"/><path fill-rule="evenodd" clip-rule="evenodd" d="M103.25 338.183l-1.541-.925v15.155l1.541.873 22.039 12.689 4.418-2.517v-1.336l-21.987-12.637-4.47-11.302z" fill="#5C629D"/><path fill-rule="evenodd" clip-rule="evenodd" d="M103.25 352.105l4.47-2.62 21.987 12.637-4.418 2.62-22.039-12.637z" fill="#8B90CC"/><path fill-rule="evenodd" clip-rule="evenodd" d="M103.25 352.105v-13.922l4.47-2.671v13.973l-4.47 2.62zm22.039 13.87v-1.232l4.418-2.62v1.335l-4.418 2.517z" fill="#3D3F63"/><path fill-rule="evenodd" clip-rule="evenodd" d="M75.869 366.952l19.367 11.199 27.073-15.669v-23.888l-19.367-11.199-27.073 15.669v23.888z" fill="#E0EAF4"/><path fill-rule="evenodd" clip-rule="evenodd" d="M107.514 324.775l19.367 11.199-31.645 18.289-19.367-11.2 31.645-18.288z" fill="#EFF4F9"/><path fill-rule="evenodd" clip-rule="evenodd" d="M126.881 359.862l-31.645 18.289v-23.888l31.645-18.289v23.888z" fill="#BDD1EA"/><path fill-rule="evenodd" clip-rule="evenodd" d="M75.869 339.93l19.367 11.199 27.073-15.669v-23.888l-19.367-11.199-27.073 15.617v23.94z" fill="#E0EAF4"/><path fill-rule="evenodd" clip-rule="evenodd" d="M107.514 297.753l19.367 11.199-31.645 18.237L75.87 315.99l31.645-18.237z" fill="#EFF4F9"/><path fill-rule="evenodd" clip-rule="evenodd" d="M126.881 332.84l-31.645 18.289v-23.94l31.645-18.237v23.888z" fill="#BDD1EA"/><path fill-rule="evenodd" clip-rule="evenodd" d="M467.068 233.127l123.961 71.51 84.405-48.701V154.168l-123.961-71.51-84.405 48.701v101.768z" fill="#E0EAF4"/><path fill-rule="evenodd" clip-rule="evenodd" d="M551.524 82.658l123.91 71.51-84.405 48.752-123.961-71.561 84.456-48.701z" fill="#EFF4F9"/><path fill-rule="evenodd" clip-rule="evenodd" d="M576.542 97.093l42.28 24.402-55.482 29.231 13.202-53.633zm98.892 158.843l-84.405 48.701V202.92l84.405-48.752v101.768z" fill="#BDD1EA"/><path fill-rule="evenodd" clip-rule="evenodd" d="M675.434 255.936l-84.405 48.701v-22.655l84.405-48.701v22.655z" fill="#1E905F"/><path fill-rule="evenodd" clip-rule="evenodd" d="M550.188 109.115c-3.904 0-7.654.359-11.199.976h-26.457v20.497c0 11.867 16.851 21.474 37.656 21.474 20.806 0 37.656-9.607 37.656-21.474v-20.549h-26.457c-3.493-.616-7.243-.924-11.199-.924z" fill="#5C629D"/><path d="M550.188 131.513c20.797 0 37.656-9.614 37.656-21.474s-16.859-21.474-37.656-21.474c-20.796 0-37.656 9.615-37.656 21.474 0 11.86 16.86 21.474 37.656 21.474z" fill="#8B90CC"/><path fill-rule="evenodd" clip-rule="evenodd" d="M519.776 106.289c0 .154-.052.308-.052.462v.052c0 .257-.051.462-.051.719 0 9.607 13.665 17.415 30.515 17.415s30.515-7.808 30.515-17.415c0-.257 0-.462-.051-.719v-.052c0-.154-.052-.359-.052-.513l-8.014-80.552H527.79l-8.014 80.603z" fill="#EFF4F9"/><path fill-rule="evenodd" clip-rule="evenodd" d="M578.289 82.555l-2.569-25.583h-.154c-.051 7.962-11.404 14.384-25.378 14.384-13.973 0-25.326-6.422-25.377-14.384h-.155l-2.568 25.583c-.052.462-.103.976-.103 1.438 0 8.888 12.638 16.08 28.203 16.08 15.566 0 28.204-7.192 28.204-16.08 0-.462-.052-.976-.103-1.438z" fill="#39BB80"/><path fill-rule="evenodd" clip-rule="evenodd" d="M550.188 13.305c-4.983 0-9.709.77-13.716 2.106h-13.408v13.357c0 8.528 12.124 15.463 27.124 15.463 15.001 0 27.125-6.935 27.125-15.463V15.411h-13.408c-4.007-1.335-8.682-2.106-13.717-2.106z" fill="#5C629D"/><path d="M550.188 30.926c14.981 0 27.125-6.923 27.125-15.463S565.169 0 550.188 0c-14.98 0-27.124 6.923-27.124 15.463s12.144 15.463 27.124 15.463z" fill="#8B90CC"/><path d="M550.188 24.505c10.101 0 18.289-4.67 18.289-10.429 0-5.76-8.188-10.429-18.289-10.429-10.1 0-18.288 4.67-18.288 10.429 0 5.76 8.188 10.429 18.288 10.429z" fill="#4B4B78"/><path fill-rule="evenodd" clip-rule="evenodd" d="M628.223 230.712l-26.303 15.207V210.42l26.303-15.154v35.446zm36.268-20.908l-26.302 15.155v-35.447l26.302-15.155v35.447z" fill="#4B4B78"/><path fill-rule="evenodd" clip-rule="evenodd" d="M591.029 192.543v-21.936l.771-.462 66.886-38.632 2.312-1.336v21.988l-3.082 1.746v-18.442l-10.326 5.959v18.442l-3.031 1.798v-18.442l-10.326 5.959v18.443l-3.082 1.746v-18.442l-10.326 5.959v18.442l-3.031 1.747v-18.443l-10.326 5.96v18.442l-3.082 1.798v-18.442l-10.326 5.959v18.442l-3.031 1.747z" fill="#5C629D"/><path fill-rule="evenodd" clip-rule="evenodd" d="M467.068 233.127l123.961 71.51v-22.655l-123.961-71.51v22.655z" fill="#39BB80"/><path fill-rule="evenodd" clip-rule="evenodd" d="M501.488 252.957l55.122 31.85V210.42l-55.122-31.799v74.336z" fill="#4B4B78"/><path fill-rule="evenodd" clip-rule="evenodd" d="M501.488 252.957l55.122 31.85v-63.65l-55.122 31.8z" fill="#5C629D"/><path fill-rule="evenodd" clip-rule="evenodd" d="M508.526 291.434l19.983 11.559 4.264-2.466v-6.884l-18.083-10.428-6.164 1.336v6.883z" fill="#3D3F63"/><path fill-rule="evenodd" clip-rule="evenodd" d="M504.056 281.982l24.453 14.127 4.264-2.466-24.453-14.076-4.264 2.415z" fill="#4B4E78"/><path fill-rule="evenodd" clip-rule="evenodd" d="M532.773 300.527l-4.264 2.466v-6.884l4.264-2.465v6.883zm-18.443-1.798l2.826-3.647-6.73-3.699-.77-.462-.052-.052c-2.157-1.079-4.88-.873-7.552.822-5.599 3.494-9.247 12.278-8.065 19.522.514 3.133 1.849 5.445 3.647 6.781.463.359.977.616 1.49.822l6.833 3.801 2.26-6.421c4.264-4.007 6.935-11.302 6.113-17.467z" fill="#3D3F63"/><path fill-rule="evenodd" clip-rule="evenodd" d="M501.436 315.322c-1.182-7.192 2.466-15.977 8.065-19.521 5.6-3.494 11.097-.565 12.278 6.575 1.131 7.141-2.465 15.926-8.065 19.522-5.6 3.596-11.148.668-12.278-6.576z" fill="#5C629D"/><path fill-rule="evenodd" clip-rule="evenodd" d="M504.672 313.267c-.77-4.931 1.696-10.89 5.497-13.305 3.802-2.414 7.552-.411 8.374 4.469.771 4.881-1.695 10.84-5.497 13.306-3.853 2.466-7.603.462-8.374-4.47z" fill="#E0EAF4"/><path fill-rule="evenodd" clip-rule="evenodd" d="M507.755 311.316c-.411-2.723.925-6.011 3.031-7.347 2.106-1.335 4.161-.205 4.623 2.466.411 2.672-.924 5.959-3.031 7.346-2.106 1.336-4.161.257-4.623-2.465z" fill="#3D3F63"/><path fill-rule="evenodd" clip-rule="evenodd" d="M373.057 269.241l8.579 4.932c1.182.668 2.106 2.466 2.106 4.059v13.254c0 1.541-.924 2.26-2.106 1.592l-8.579-4.932c-1.182-.667-2.106-2.466-2.106-4.058v-13.254c0-1.541.976-2.26 2.106-1.593z" fill="#4B4B78"/><path fill-rule="evenodd" clip-rule="evenodd" d="M496.658 323.234l-28.563 16.49-6.575-3.75V325.34l27.895-16.079 2.158.462 5.085 2.928v10.583z" fill="#5C629D"/><path fill-rule="evenodd" clip-rule="evenodd" d="M496.658 312.651l-28.563 16.491-6.575-3.802 28.563-16.49 6.575 3.801z" fill="#4B4E78"/><path fill-rule="evenodd" clip-rule="evenodd" d="M456.845 333.252l11.25 6.472v-10.582l-11.25-6.473v10.583z" fill="#3D3F63"/><path fill-rule="evenodd" clip-rule="evenodd" d="M533.595 287.993l-73.154 42.228-4.264-2.466v-6.884l70.277-40.584v-3.288l7.141 4.11v6.884z" fill="#BDD1EA"/><path fill-rule="evenodd" clip-rule="evenodd" d="M448.882 323.542l11.559 6.678v-6.884l-4.264-2.465-7.295 2.671z" fill="#7980A5"/><path fill-rule="evenodd" clip-rule="evenodd" d="M405.833 291.794l50.344 29.077 70.277-40.585V218.28l-50.344-29.076-70.277 40.584v62.006z" fill="#7F37B8"/><path fill-rule="evenodd" clip-rule="evenodd" d="M455.869 332.121l2.825-3.647-6.729-3.648-.771-.462-.051-.051c-2.158-1.079-4.881-.874-7.552.822-5.599 3.493-9.247 12.278-8.065 19.521.513 3.134 1.849 5.445 3.647 6.781.462.36.976.617 1.49.822l6.832 3.802 2.261-6.422c4.264-4.058 6.935-11.353 6.113-17.518z" fill="#3D3F63"/><path fill-rule="evenodd" clip-rule="evenodd" d="M442.975 348.714c-1.182-7.192 2.465-15.976 8.065-19.521 5.6-3.493 11.096-.565 12.278 6.576 1.13 7.14-2.466 15.925-8.065 19.521-5.651 3.596-11.148.668-12.278-6.576z" fill="#5C629D"/><path fill-rule="evenodd" clip-rule="evenodd" d="M446.16 346.66c-.771-4.932 1.695-10.891 5.496-13.306 3.802-2.414 7.552-.411 8.374 4.47.771 4.88-1.695 10.839-5.497 13.305-3.801 2.466-7.551.462-8.373-4.469z" fill="#E0EAF4"/><path fill-rule="evenodd" clip-rule="evenodd" d="M449.293 344.707c-.411-2.723.925-6.01 3.031-7.346 2.107-1.336 4.162-.206 4.624 2.466.411 2.671-.925 5.959-3.031 7.346-2.106 1.336-4.161.257-4.624-2.466z" fill="#3D3F63"/><path fill-rule="evenodd" clip-rule="evenodd" d="M476.11 189.204l50.344 29.076-70.277 40.584-50.344-29.076 70.277-40.584z" fill="#AD63EA"/><path fill-rule="evenodd" clip-rule="evenodd" d="M526.454 280.286l-70.277 40.585v-62.007l70.277-40.584v62.006z" fill="#622890"/><path fill-rule="evenodd" clip-rule="evenodd" d="M438.659 349.228v-6.267c0-7.757 3.956-14.847 9.299-17.364l8.219-4.726v-51.27l-50.345-29.23c-24.555 14.178 23.94 87.23 23.94 113.994l8.887-5.137z" fill="#BDD1EA"/><path fill-rule="evenodd" clip-rule="evenodd" d="M526.454 276.999l7.141 4.11-73.154 42.228-4.264-2.466 70.277-40.584v-3.288zm-96.682 19.316a21.648 21.648 0 0110.788-17.878l15.566-8.99-50.345-29.076-15.566 8.99c-6.627 3.801-10.839 11.353-10.839 17.929v52.142l50.345 29.077.051-52.194z" fill="#EFF4F9"/><path fill-rule="evenodd" clip-rule="evenodd" d="M379.427 267.238v52.246l50.345 29.025v-52.194l-50.345-29.077z" fill="#E0EAF4"/><path fill-rule="evenodd" clip-rule="evenodd" d="M383.28 299.448l41.92 24.197v-30.618l-41.92-24.196v30.617z" fill="#5C629D"/><path fill-rule="evenodd" clip-rule="evenodd" d="M385.335 300.63l6.267 3.647 19.214-19.572-6.473-3.699-19.008 19.624z" fill="#8B90CC"/><path fill-rule="evenodd" clip-rule="evenodd" d="M451.759 305.048v-25.121l-8.117 4.675c-4.726 2.774-8.014 7.809-8.219 13.665v25.429l8.836-5.086v-9.247l7.5-4.315z" fill="#3D3F63"/><path fill-rule="evenodd" clip-rule="evenodd" d="M373.468 328.114l57.742 33.289 7.912-4.572v-13.87l-3.185-1.85-4.778 2.774-51.732-29.898v-3.596l-5.959 3.853v13.87z" fill="#5C629D"/><path fill-rule="evenodd" clip-rule="evenodd" d="M373.52 314.243c19.213 11.097 38.477 22.245 57.69 33.341 2.672-1.541 5.292-3.082 7.963-4.623l-3.236-1.85-4.727 2.723-51.783-29.847v-3.545l-5.907 3.801z" fill="#8B90CC"/><path fill-rule="evenodd" clip-rule="evenodd" d="M417.443 335.05l13.202 7.654v-9.658l-13.202-7.654v9.658z" fill="#BDD1EA"/><path fill-rule="evenodd" clip-rule="evenodd" d="M433.83 340.854l-3.904 2.261v-9.658l3.904-2.261v9.658z" fill="#7980A5"/><path fill-rule="evenodd" clip-rule="evenodd" d="M379.427 312.394l13.203 7.603v-9.658l-13.203-7.603v9.658z" fill="#BDD1EA"/><path fill-rule="evenodd" clip-rule="evenodd" d="M439.122 356.831l-7.912 4.573v-13.82l7.912-4.623v13.87z" fill="#3D3F63"/><path fill-rule="evenodd" clip-rule="evenodd" d="M434.395 304.38l7.757 4.469c1.182.668 2.107 2.466 2.107 4.059v13.254c0 1.541-.925 2.26-2.107 1.592l-7.757-4.469c-1.181-.668-2.106-2.466-2.106-4.058v-13.254c0-1.542.976-2.261 2.106-1.593z" fill="#4B4B78"/><path fill-rule="evenodd" clip-rule="evenodd" d="M319.219 187.765l-109.115 62.983-3.287-1.85v-40.995l109.114-62.982 3.288 1.901v40.943z" fill="#7F37B8"/><path fill-rule="evenodd" clip-rule="evenodd" d="M226.801 213.708l2.003-1.13v16.747l-2.003 1.131v-2.877c-.977 2.774-2.415 4.726-4.316 5.805-1.592.924-2.979.873-4.11-.206-1.13-1.079-1.695-2.825-1.695-5.24 0-2.466.565-4.88 1.695-7.192 1.131-2.363 2.466-4.007 4.11-4.932 1.901-1.078 3.339-.821 4.316.822v-2.928zm-4.059 16.696c1.182-.668 2.106-1.798 2.877-3.39.771-1.593 1.182-3.237 1.182-4.932 0-1.695-.411-2.877-1.182-3.596-.771-.719-1.747-.719-2.877-.052-1.13.668-2.106 1.799-2.877 3.391-.77 1.593-1.181 3.236-1.181 4.932 0 1.695.411 2.877 1.181 3.596.771.719 1.747.719 2.877.051zm20.498-30.823v21.422l-2.004 1.13v-2.877c-.976 2.775-2.414 4.727-4.315 5.805-1.593.925-2.98.874-4.11-.205-1.13-1.079-1.695-2.825-1.695-5.24 0-2.466.565-4.88 1.695-7.192 1.13-2.363 2.466-4.007 4.11-4.932 1.901-1.079 3.339-.822 4.315.822v-7.552l2.004-1.181zm-6.011 22.501c1.182-.668 2.106-1.798 2.877-3.391.77-1.592 1.181-3.236 1.181-4.931 0-1.696-.411-2.877-1.181-3.596-.771-.72-1.747-.72-2.877-.052-1.13.668-2.106 1.798-2.877 3.391-.77 1.592-1.181 3.236-1.181 4.931 0 1.696.411 2.877 1.181 3.597.771.667 1.695.719 2.877.051zm20.498-30.875v21.422l-2.004 1.131v-2.877c-.976 2.774-2.414 4.726-4.315 5.805-1.593.925-2.98.873-4.11-.206-1.13-1.078-1.695-2.825-1.695-5.24 0-2.465.565-4.88 1.695-7.192 1.13-2.363 2.466-4.007 4.11-4.931 1.901-1.079 3.339-.822 4.315.821v-7.551l2.004-1.182zm-6.062 22.553c1.181-.668 2.106-1.798 2.876-3.391.771-1.593 1.182-3.236 1.182-4.932 0-1.695-.411-2.877-1.182-3.596-.77-.719-1.746-.719-2.876-.051-1.131.668-2.107 1.798-2.877 3.39-.771 1.593-1.182 3.237-1.182 4.932 0 1.695.411 2.877 1.182 3.596.77.668 1.746.668 2.877.052zm10.736-16.08c0 .668.206 1.028.668 1.182.463.154.976.154 1.593 0a22.563 22.563 0 011.849-.257c.617-.052 1.182.154 1.593.616.462.463.668 1.285.668 2.415 0 1.541-.411 2.979-1.182 4.315-.822 1.387-1.798 2.415-3.082 3.134-1.131.616-2.055.822-2.877.565-.771-.257-1.336-.874-1.695-1.85l1.695-2.414c.205.719.514 1.13 1.027 1.336.514.154 1.079.051 1.798-.36.668-.36 1.182-.873 1.644-1.49a3.747 3.747 0 00.617-2.106c0-.668-.206-1.027-.668-1.182-.463-.154-.976-.154-1.593 0-.616.155-1.233.206-1.849.257-.617.052-1.182-.154-1.593-.616-.462-.463-.667-1.233-.667-2.363 0-1.439.359-2.877 1.13-4.264.77-1.387 1.746-2.415 2.877-3.083.924-.513 1.746-.719 2.465-.513.72.205 1.285.719 1.644 1.592l-1.644 2.312c-.411-1.182-1.233-1.438-2.465-.719-.566.308-1.028.822-1.439 1.438-.308.668-.514 1.336-.514 2.055zm17.929-14.795l2.004-1.13v16.747l-2.004 1.13v-2.877c-.976 2.775-2.414 4.727-4.315 5.805-1.592.925-2.98.874-4.11-.205-1.13-1.079-1.695-2.825-1.695-5.24 0-2.466.565-4.88 1.695-7.192 1.13-2.363 2.466-4.007 4.11-4.932 1.901-1.079 3.339-.822 4.315.822v-2.928zm-4.109 16.696c1.181-.668 2.106-1.798 2.876-3.391.771-1.592 1.182-3.236 1.182-4.931 0-1.696-.411-2.877-1.182-3.596-.77-.72-1.746-.72-2.876-.052-1.131.668-2.107 1.798-2.877 3.391-.771 1.592-1.182 3.236-1.182 4.931 0 1.696.411 2.877 1.182 3.597.822.667 1.746.667 2.877.051zm9.092-2.877v-21.422l2.004-1.13v21.422l-2.004 1.13zm6.422-10.737c.205 1.387.668 2.261 1.387 2.672.719.411 1.644.308 2.723-.36 1.489-.873 2.62-2.312 3.288-4.315l1.695.411c-1.13 3.185-2.774 5.394-5.035 6.678-1.798 1.028-3.288 1.079-4.418.051-1.13-1.027-1.695-2.774-1.695-5.342 0-2.517.565-4.932 1.644-7.244 1.13-2.311 2.569-3.955 4.315-4.983 1.695-.976 3.031-.873 4.11.206 1.079 1.13 1.593 2.877 1.593 5.342 0 .411 0 .874-.052 1.336l-9.555 5.548zm3.956-9.658c-1.079.617-1.953 1.541-2.672 2.826-.719 1.284-1.13 2.722-1.284 4.264l7.654-4.418c-.154-1.49-.616-2.466-1.284-2.877-.719-.36-1.49-.308-2.414.205zm9.247-3.133c0 .667.205 1.027.667 1.181.463.154.976.154 1.593 0a23.005 23.005 0 011.849-.257c.617-.051 1.182.154 1.593.617.462.462.668 1.284.668 2.414 0 1.541-.411 2.98-1.182 4.316-.822 1.387-1.798 2.414-3.082 3.133-1.13.617-2.055.822-2.877.565-.771-.257-1.336-.873-1.695-1.849l1.695-2.415c.205.72.514 1.131 1.027 1.336.514.154 1.079.051 1.798-.36.668-.359 1.182-.873 1.644-1.489a3.752 3.752 0 00.617-2.107c0-.667-.206-1.027-.668-1.181-.462-.154-.976-.154-1.593 0-.616.103-1.232.205-1.849.257-.616.051-1.182-.154-1.592-.617-.463-.462-.668-1.233-.668-2.363 0-1.438.359-2.877 1.13-4.264.77-1.387 1.747-2.414 2.877-3.082.924-.514 1.746-.719 2.466-.514.719.206 1.284.719 1.643 1.593l-1.643 2.311c-.411-1.181-1.233-1.438-2.466-.719-.565.309-1.028.822-1.439 1.439a4.21 4.21 0 00-.513 2.055z" fill="#FDFDFD"/><path fill-rule="evenodd" clip-rule="evenodd" d="M315.931 144.921l-109.114 62.982 3.287 1.901 109.115-62.982-3.288-1.901z" fill="#AD63EA"/><path fill-rule="evenodd" clip-rule="evenodd" d="M206.817 248.898v-40.995l3.287 1.901v40.944l-3.287-1.85z" fill="#622890"/><path fill-rule="evenodd" clip-rule="evenodd" d="M491.316 145.383l87.641 50.602v13.922l-3.237 1.901-84.404-48.753v-17.672z" fill="#A4B8CC"/><path fill-rule="evenodd" clip-rule="evenodd" d="M487.977 156.12l83.633 48.29v-40.995l-83.633-48.239v40.944z" fill="#39BB80"/><path fill-rule="evenodd" clip-rule="evenodd" d="M504.673 138.807c1.489.822 2.722 2.363 3.75 4.572 1.027 2.209 1.541 4.47 1.541 6.782 0 2.311-.514 3.955-1.541 4.983-1.028 1.027-2.261 1.078-3.75.257-1.747-.977-3.031-2.775-3.956-5.395v2.723l-1.798-1.027v-22.039l1.798 1.028v8.99c.925-1.593 2.209-1.85 3.956-.874zm-.257 13.819c1.027.617 1.901.566 2.62-.102.719-.668 1.079-1.798 1.079-3.391 0-1.592-.36-3.134-1.079-4.623-.719-1.49-1.593-2.518-2.62-3.134-1.079-.617-1.952-.565-2.672.103-.719.668-1.078 1.798-1.078 3.39 0 1.593.359 3.134 1.078 4.624.72 1.438 1.644 2.517 2.672 3.133zm9.555-5.394c.616-1.592 1.695-1.952 3.288-1.027v2.877c-.873-.565-1.644-.668-2.312-.257-.616.411-.976 1.49-.976 3.185v8.322l-1.798-1.027v-15.72l1.798 1.027v2.62zm13.1 4.932l1.798 1.028v15.719l-1.798-1.027v-2.723c-.925 1.541-2.209 1.85-3.956.822-1.49-.822-2.722-2.363-3.75-4.572-1.027-2.209-1.541-4.469-1.541-6.781 0-2.312.514-3.956 1.541-4.983 1.028-1.028 2.26-1.079 3.75-.257 1.747.976 3.031 2.774 3.956 5.394v-2.62zm-3.699 11.353c1.079.617 1.952.565 2.671-.102.72-.668 1.079-1.798 1.079-3.391s-.359-3.134-1.079-4.623c-.719-1.49-1.592-2.518-2.671-3.134-1.027-.617-1.901-.565-2.62.103-.719.667-1.079 1.798-1.079 3.39 0 1.593.36 3.134 1.079 4.624.668 1.489 1.593 2.517 2.62 3.133zm13.511-6.164c1.233.719 2.209 1.849 2.928 3.442.719 1.592 1.13 3.39 1.13 5.394v9.658l-1.798-1.028v-9.504c0-1.284-.205-2.414-.667-3.39-.463-.976-1.079-1.695-1.901-2.158-.925-.514-1.644-.514-2.209 0-.565.514-.822 1.695-.822 3.442v8.322l-1.798-1.027v-15.72l1.798 1.028v2.26c.668-1.336 1.798-1.593 3.339-.719zm15.258 2.928l1.798 1.027v22.039l-1.798-1.027v-2.723c-.925 1.541-2.209 1.849-3.956.822-1.49-.822-2.723-2.363-3.75-4.572-1.028-2.209-1.541-4.47-1.541-6.781 0-2.312.513-3.956 1.541-4.984 1.027-1.027 2.26-1.078 3.75-.256 1.747.976 3.031 2.774 3.956 5.394v-8.939zm-3.699 17.621c1.079.616 1.952.565 2.671-.103.719-.668 1.079-1.798 1.079-3.391 0-1.592-.36-3.133-1.079-4.623-.719-1.49-1.592-2.517-2.671-3.134-1.028-.616-1.901-.565-2.62.103-.719.668-1.079 1.798-1.079 3.39 0 1.593.36 3.134 1.079 4.624.668 1.49 1.541 2.568 2.62 3.134z" fill="#FDFDFD"/><path fill-rule="evenodd" clip-rule="evenodd" d="M491.264 113.275l83.583 48.29-3.237 1.85-83.633-48.239 3.287-1.901z" fill="#5AD59D"/><path fill-rule="evenodd" clip-rule="evenodd" d="M574.847 202.509v-40.944l-3.237 1.85v40.995l3.237-1.901z" fill="#1E905F"/><path fill-rule="evenodd" clip-rule="evenodd" d="M393.4 305.305l2.569 1.49 19.008-19.625-2.518-1.489-19.059 19.624z" fill="#8B90CC"/><path fill-rule="evenodd" clip-rule="evenodd" d="M378.194 313.216l13.203 7.603v-9.606l-13.203-7.655v9.658zm38.529 22.296l13.203 7.603v-9.658l-13.203-7.603v9.658z" fill="#FDFDFD"/><defs><radialGradient id="paint0_radial_1:1993" cx="0" cy="0" r="1" gradientUnits="userSpaceOnUse" gradientTransform="translate(433.379 49.52) scale(52.138)"><stop stop-color="#5AD7A0"/><stop offset=".422" stop-color="#3BB27E"/><stop offset=".78" stop-color="#269A67"/><stop offset="1" stop-color="#1E915F"/></radialGradient><radialGradient id="paint1_radial_1:1993" cx="0" cy="0" r="1" gradientUnits="userSpaceOnUse" gradientTransform="translate(472.744 88.305) scale(28.9546)"><stop stop-color="#5AD7A0"/><stop offset=".422" stop-color="#3BB27E"/><stop offset=".78" stop-color="#269A67"/><stop offset="1" stop-color="#1E915F"/></radialGradient><radialGradient id="paint2_radial_1:1993" cx="0" cy="0" r="1" gradientUnits="userSpaceOnUse" gradientTransform="translate(345.032 101.99) scale(52.138)"><stop stop-color="#5AD7A0"/><stop offset=".422" stop-color="#3BB27E"/><stop offset=".78" stop-color="#269A67"/><stop offset="1" stop-color="#1E915F"/></radialGradient><radialGradient id="paint3_radial_1:1993" cx="0" cy="0" r="1" gradientUnits="userSpaceOnUse" gradientTransform="translate(384.397 140.776) scale(28.9546)"><stop stop-color="#5AD7A0"/><stop offset=".422" stop-color="#3BB27E"/><stop offset=".78" stop-color="#269A67"/><stop offset="1" stop-color="#1E915F"/></radialGradient></defs></svg>