<svg data-name="Copy link" xmlns="http://www.w3.org/2000/svg" width="32" height="32"><circle data-name="Ellipse 57" cx="15.19" cy="15.19" r="15.19" transform="translate(.798 .789)" fill="#fff"/><path data-name="Path 608" d="M15.988 0a16 16 0 11-11.3 4.687A16 16 0 0115.988 0zm10.436 5.573a14.771 14.771 0 104.307 10.416 14.771 14.771 0 00-4.307-10.416z" fill="#1b1b1b"/><path d="M7.9 16a3.1 3.1 0 013.1-3.1h4V11h-4a5 5 0 000 10h4v-1.9h-4A3.1 3.1 0 017.9 16zm4.1 1h8v-2h-8zm9-6h-4v1.9h4a3.1 3.1 0 110 6.2h-4V21h4a5 5 0 000-10z"/></svg>