<svg xmlns="http://www.w3.org/2000/svg" width="32" height="32"><circle data-name="Ellipse 57" cx="15.19" cy="15.19" r="15.19" transform="translate(.798 .789)" fill="#fff"/><path data-name="Path 608" d="M15.988 0a16 16 0 11-11.3 4.687A16 16 0 0115.988 0zm10.436 5.573a14.771 14.771 0 104.307 10.416 14.771 14.771 0 00-4.307-10.416z" fill="#1b1b1b"/><path data-name="Path 609" d="M24.708 20.412a2.153 2.153 0 01-.279 1.046l-5.5-6.152 5.44-4.758a2.156 2.156 0 01.338 1.155v8.709zM16 16.423L23.569 9.8a2.154 2.154 0 00-1.038-.274H9.469a2.142 2.142 0 00-1.037.274zm2.11-.4l-1.753 1.533a.545.545 0 01-.716 0l-1.753-1.533-5.568 6.231a2.153 2.153 0 001.148.335h13.063a2.156 2.156 0 001.148-.335zM7.63 10.546a2.165 2.165 0 00-.34 1.157v8.709a2.149 2.149 0 00.28 1.047l5.5-6.155z"/></svg>