<svg xmlns="http://www.w3.org/2000/svg" viewBox="0 0 32.82 32.82"><g data-name="Layer 2"><g data-name="Layer 1"><circle cx="16.41" cy="16.39" r="15.59" fill="#fff"/><path d="M16.41 0a16.42 16.42 0 11-11.6 4.81A16.36 16.36 0 0116.41 0zm10.71 5.72a15.15 15.15 0 104.42 10.69 15.08 15.08 0 00-4.42-10.69z" fill="#1b1b1b"/><path d="M16.81 8c-4.71 0-7.1 3.26-7.1 6a5.12 5.12 0 00.19 1.44 3.17 3.17 0 001.85 2.24.33.33 0 00.49-.24c.06-.17.16-.59.21-.77a.43.43 0 00-.14-.53 2.76 2.76 0 01-.54-1 3.48 3.48 0 01-.12-.89 4.64 4.64 0 014.9-4.61c2.66 0 4.13 1.57 4.13 3.68a8.46 8.46 0 01-.18 1.78c-.42 1.94-1.51 3.33-3 3.33a1.49 1.49 0 01-1.5-1.81c.14-.57.35-1.17.53-1.75a6.24 6.24 0 00.36-1.66 1.3 1.3 0 00-1.36-1.44c-1.06 0-1.91 1.07-1.91 2.49a3.69 3.69 0 00.06.71 3.47 3.47 0 00.25.81S12.8 20.25 12.62 21a10.25 10.25 0 000 3.65c0 .11.16.14.23.06a10.31 10.31 0 001.8-3.15c.11-.43.7-2.65.7-2.65a2.86 2.86 0 002.43 1.21c2.59 0 4.51-1.88 5.14-4.62a8.46 8.46 0 00.22-2c0-2.86-2.5-5.51-6.31-5.51z" fill-rule="evenodd" fill="#1b1b1b"/></g></g></svg>