<svg xmlns="http://www.w3.org/2000/svg" viewBox="0 0 32.82 32.83"><g data-name="Layer 2"><g data-name="Layer 1"><circle cx="16.41" cy="16.4" r="15.59" fill="#fff"/><path d="M16.41 0a16.42 16.42 0 11-11.6 4.81A16.38 16.38 0 0116.41 0zm10.7 5.72a15.14 15.14 0 104.43 10.7 15.08 15.08 0 00-4.43-10.7z" fill="#1b1b1b"/><path d="M24.79 11.3a7.08 7.08 0 01-2 .54A3.41 3.41 0 0024.34 10a7.24 7.24 0 01-2.19.83 3.45 3.45 0 00-6 2.3 3.87 3.87 0 00.1.78 9.74 9.74 0 01-7.08-3.54A3.32 3.32 0 008.73 12a3.39 3.39 0 001.53 2.82 3.26 3.26 0 01-1.55-.42v.05a3.26 3.26 0 00.23 1.21 3.4 3.4 0 002.53 2.09 3.08 3.08 0 01-.91.13 3.5 3.5 0 01-.65-.07 3.48 3.48 0 003.21 2.36 6.94 6.94 0 01-4.26 1.45 7.86 7.86 0 01-.83 0 10 10 0 005.27 1.52 9.56 9.56 0 009.55-7.58 9 9 0 00.23-2v-.43a6.81 6.81 0 001.71-1.76z" fill-rule="evenodd" fill="#1b1b1b"/></g></g></svg>