<svg xmlns="http://www.w3.org/2000/svg" viewBox="0 0 926.61 926.61"><defs><style>.cls-2{fill:#fff;fill-rule:evenodd}</style></defs><g id="Слой_2" data-name="Слой 2"><g id="_1" data-name="1"><circle cx="463.3" cy="463.3" r="463.3" fill="#3082c5"/><path class="cls-2" d="M550.43 221.2H334.64l-17.36 99.22h196c96.73 0 124 34.72 124 91.77 0 29.76-12.4 79.37-19.84 96.73-14.88 44.65-44.65 94.25-158.74 91.77h-191l-17.39 101.69H466.1c76.89 0 109.13-9.92 143.86-24.8 76.89-34.72 121.53-109.13 138.9-208.35 27.28-143.85-7.45-248.03-198.43-248.03z"/><path class="cls-2" d="M240.39 412.19c-57 0-64.49 37.2-69.45 59.53-7.44 29.76-9.92 42.16-9.92 42.16h220.75c57.05 0 64.49-37.2 69.45-59.53 7.44-29.76 9.92-42.16 9.92-42.16z"/></g></g></svg>