<svg width="42" height="42" fill="none" xmlns="http://www.w3.org/2000/svg"><path d="M41.303 21.394v-.243L33.667 7.576a.637.637 0 00-.546-.303H8.697a.636.636 0 00-.545.303L.636 21.15v.364c0 .06 0 .121.061.182v.06c0 .061.06.122.121.182l19.758 19.88A.55.55 0 0021 42a.55.55 0 00.424-.182L41.182 21.94c.06-.06.06-.12.121-.181v-.061c0-.06 0-.121.06-.182-.06-.06-.06-.06-.06-.121zM9.061 8.484h10.727L13 20.789H2.212L9.061 8.485zm11.636.85L27 20.848H14.394l6.303-11.516zM2.637 22H12.94l6.363 16.727L2.636 22zm18.06 17.212L14.212 22h13.03l-6.545 17.212zm1.212.242L28.515 22h10.727L21.91 39.455zm6.485-18.666L21.667 8.485h11.151l6.849 12.303H28.394z" fill="#8D9190"/><path d="M10.94 10.303c-.304-.182-.667-.06-.85.242l-3.817 6.606c-.182.303-.06.667.242.849.121.06.182.06.303.06a.723.723 0 00.546-.302l3.818-6.606a.75.75 0 00-.243-.849z" fill="#8D9190"/></svg>