<svg width="43" height="43" fill="none" xmlns="http://www.w3.org/2000/svg"><path d="M22.818 9.995l5.327-4.998s0-.054.055-.054c.055-.055.055-.055.055-.11v-.385s0-.055-.055-.055v-.055L25.84.275A.577.577 0 0025.344 0h-7.743c-.22 0-.384.11-.494.275L14.69 4.284v.054s0 .055-.055.055v.385c0 .055.055.055.055.11 0 0 0 .055.054.055l5.327 4.997C11.67 10.654 4.97 17.793 4.97 26.47 4.97 35.586 12.384 43 21.5 43c9.116 0 16.53-7.414 16.53-16.53 0-8.677-6.7-15.761-15.212-16.475zm-.055-1.428l1.373-3.405h2.252l-3.625 3.405zm2.252-7.414l1.757 2.91h-2.746l-1.702-2.91h2.69zm-2.252 2.91h-2.746l1.373-2.306 1.373 2.307zm-4.832-2.91h2.58l-1.702 2.91h-2.58l1.702-2.91zm-1.318 4.01H18.7l1.317 3.184-3.404-3.185zm3.24 0h3.075L21.39 8.95l-1.537-3.789zM21.5 41.846c-8.457 0-15.431-6.92-15.431-15.377s6.92-15.432 15.431-15.432c8.512 0 15.432 6.92 15.432 15.432S29.957 41.847 21.5 41.847z" fill="#8D9190"/><path d="M31.44 16.475a14.049 14.049 0 00-9.94-4.119 14.049 14.049 0 00-9.94 4.12c-5.546 5.49-5.546 14.442-.055 19.934a14.06 14.06 0 009.94 4.119A14.06 14.06 0 0035.504 26.47a14.22 14.22 0 00-4.064-9.995zm-.824 19.111c-5.052 5.053-13.29 5.053-18.397 0-4.997-4.997-4.997-13.235.055-18.342 2.471-2.471 5.711-3.79 9.171-3.79 3.46 0 6.755 1.374 9.171 3.79 2.472 2.471 3.79 5.711 3.79 9.171 0 3.46-1.373 6.755-3.79 9.171z" fill="#8D9190"/></svg>