<svg xmlns="http://www.w3.org/2000/svg" width="59" height="70"><defs><filter id="filter" filterUnits="userSpaceOnUse"><feFlood result="flood" flood-color="#fff"/><feComposite result="composite" operator="in" in2="SourceGraphic"/><feBlend result="blend" in2="SourceGraphic"/></filter><style>.cls-2{fill:none;stroke:#000;stroke-width:3px;fill-rule:evenodd}</style></defs><g id="leaf" filter="url(#filter)"><path class="cls-2" d="M7.285 50.744a24.928 24.928 0 010-35.24C22.774.006 58 0 58 0s-.007 35.246-15.5 50.744a24.894 24.894 0 01-35.215 0zm.057 2.895s-5.932 5.135-2.937 14.7M2.937 67.6S-2.943 20.416 57.266.735"/><path class="cls-2" d="M8.81 43.352v-1.47h28.633v1.469H8.81zm8.81-16.165v-1.47h25.7v1.47h-25.7zm16.152-13.226v-1.47h16.152v1.47H33.772zm.734-.735h-1.468V6.613h1.468v6.613zM18.354 26.452h-1.468V12.491h1.468v13.961zM8.81 42.617H7.342v-19.1H8.81v19.1z"/></g></svg>