<svg xmlns="http://www.w3.org/2000/svg" width="60" height="64"><defs><filter id="filter" filterUnits="userSpaceOnUse"><feFlood result="flood" flood-color="#fff"/><feComposite result="composite" operator="in" in2="SourceGraphic"/><feBlend result="blend" in2="SourceGraphic"/></filter><style>.cls-2{fill:none;stroke:#000;stroke-width:3px;fill-rule:evenodd}</style></defs><g filter="url(#filter)"><path id="Rounded_Rectangle_1" data-name="Rounded Rectangle 1" class="cls-2" d="M40.123 6.932l17.812 17.7a6.924 6.924 0 010 9.835L30.722 61.515a7.028 7.028 0 01-9.9 0L3.015 43.812a6.924 6.924 0 010-9.835L30.228 6.932a7.028 7.028 0 019.895 0zM31.1 40.178l.156 16.864A6.894 6.894 0 0124.251 64l-16.969-.151a7.207 7.207 0 01-7.134-7.091l-.156-16.864A6.894 6.894 0 017 32.932l16.968.155a7.207 7.207 0 017.132 7.091zm-14.273 6.588a4.847 4.847 0 010 6.884 4.919 4.919 0 01-6.927 0 4.847 4.847 0 010-6.884 4.919 4.919 0 016.927 0z"/><path class="cls-2" d="M15.219 56.329s-11.2-10.083-11.2-31.294S8.921 0 11.02 0s5.948 4.173 6.3 21.558"/></g></svg>