<svg xmlns="http://www.w3.org/2000/svg" width="70" height="70"><defs><style>.cls-1{fill:#030303;stroke:#fff;stroke-width:3px;fill-rule:evenodd}</style></defs><path class="cls-1" d="M34.921 3.381a1.4 1.4 0 11-1.4 1.4 1.4 1.4 0 011.4-1.4zm0 60.2a1.4 1.4 0 11-1.4 1.4 1.4 1.4 0 011.4-1.4zm8.155-59.124a1.4 1.4 0 11-1.715.99 1.4 1.4 0 011.715-.99zM27.5 62.606a1.4 1.4 0 11-1.715.99 1.4 1.4 0 011.715-.99zm23.179-55a1.4 1.4 0 11-1.912.512 1.4 1.4 0 011.908-.511zm-30.1 52.135a1.4 1.4 0 11-1.912.512 1.4 1.4 0 011.908-.511zM57.2 12.616a1.4 1.4 0 11-1.98 0 1.4 1.4 0 011.98 0zM14.631 55.184a1.4 1.4 0 11-1.98 0 1.4 1.4 0 011.98 0zM62.2 19.143a1.4 1.4 0 11-1.913-.512 1.4 1.4 0 011.913.512zm-52.13 30.1a1.4 1.4 0 11-1.913-.512 1.4 1.4 0 011.913.512zm55.28-22.5a1.4 1.4 0 11-1.715-.99 1.4 1.4 0 011.715.991zM7.2 42.325a1.4 1.4 0 11-1.715-.99 1.4 1.4 0 011.715.99zM66.422 34.9a1.4 1.4 0 11-1.4-1.4 1.4 1.4 0 011.4 1.4zm-60.2 0a1.4 1.4 0 11-1.4-1.4 1.4 1.4 0 011.4 1.4zm59.124 8.155a1.4 1.4 0 11-.99-1.715 1.4 1.4 0 01.99 1.714zM7.2 27.473a1.4 1.4 0 11-.99-1.715 1.4 1.4 0 01.99 1.715zm55 23.18a1.4 1.4 0 11-.512-1.913 1.4 1.4 0 01.512 1.913zm-52.135-30.1a1.4 1.4 0 11-.512-1.913 1.4 1.4 0 01.508 1.913zm47.122 36.624a1.4 1.4 0 110-1.98 1.4 1.4 0 010 1.98zM14.619 14.609a1.4 1.4 0 110-1.98 1.4 1.4 0 010 1.98zM50.66 62.183a1.4 1.4 0 11.512-1.912 1.4 1.4 0 01-.512 1.912zm-30.1-52.135a1.4 1.4 0 11.512-1.912 1.4 1.4 0 01-.512 1.912zm22.5 55.281a1.4 1.4 0 11.99-1.715 1.4 1.4 0 01-.991 1.714zM27.478 7.18a1.4 1.4 0 11.99-1.715 1.4 1.4 0 01-.99 1.715z"/><path class="cls-1" d="M34 0h2v9h-2V0zm0 61h2v9h-2v-9zM0 36v-2h9v2H0zm61 0v-2h9v2h-9zm-44 0v-2h19v2H17zm19 0h-2V11h2v25z"/><circle cx="35.031" cy="35" r="3.5" fill="#030303" stroke="#fff" stroke-width="3"/></svg>