<svg xmlns="http://www.w3.org/2000/svg" width="49" height="70"><defs><style>.cls-2{fill-rule:evenodd;fill:none;stroke:#fff;stroke-width:3px}</style></defs><path d="M19.914 33.325h2.066V70h-2.066V33.325z" fill-rule="evenodd" fill="#fff"/><path class="cls-2" d="M8.047 21.636a5.978 5.978 0 018.369 0 5.776 5.776 0 010 8.251 5.978 5.978 0 01-8.369 0 5.776 5.776 0 010-8.251zm16.739-16.5a5.978 5.978 0 018.369 0 5.776 5.776 0 010 8.251 5.978 5.978 0 01-8.369 0 5.776 5.776 0 010-8.252zM14.687 29.17A5.919 5.919 0 1120.6 35a5.876 5.876 0 01-5.913-5.83zm0-23.336a5.919 5.919 0 0111.836 0 5.919 5.919 0 01-11.836 0zm10.1 24.035a5.776 5.776 0 010-8.251 5.978 5.978 0 018.369 0 5.776 5.776 0 010 8.251 5.978 5.978 0 01-8.37 0zM8.047 13.368a5.776 5.776 0 010-8.251 5.978 5.978 0 018.369 0 5.776 5.776 0 010 8.251 5.978 5.978 0 01-8.369 0zm24.381 9.956a5.835 5.835 0 115.918-5.834 5.877 5.877 0 01-5.918 5.834zm-23.672 0a5.835 5.835 0 115.918-5.834 5.876 5.876 0 01-5.918 5.834z"/><path class="cls-2" d="M20.592 7A10.5 10.5 0 119.946 17.5 10.575 10.575 0 0120.592 7zm.878 49.7l-1.045-1.044 13.946-13.832 1.045 1.044z"/><path class="cls-2" d="M21.631 55.115l-1.045 1.744L3.153 39.576 4.2 37.832zM49 29.947s-.984 14.419-5.239 18.637-10.74 4.629-14.484.916-3.331-10.141.924-14.36S49 29.947 49 29.947z"/><path class="cls-2" d="M0 36.4s.721 10.51 3.838 13.585 7.867 3.374 10.61.668 2.439-7.392-.677-10.467S0 36.4 0 36.4z"/></svg>