<svg width="34" height="24" fill="none" xmlns="http://www.w3.org/2000/svg"><rect x=".5" y=".5" width="33" height="23" rx="3.5" fill="#fff" stroke="#D9D9D9"/><path fill-rule="evenodd" clip-rule="evenodd" d="M14.614 18.448l.22-1.449-.49-.012h-2.349l1.632-10.693a.143.143 0 01.045-.084.131.131 0 01.088-.033h3.958c1.315 0 2.222.282 2.695.84.223.262.364.536.432.837.072.316.073.693.003 1.153l-.005.034v.295l.222.13c.187.102.336.22.45.354.19.224.312.508.364.845.054.347.036.76-.052 1.227a4.383 4.383 0 01-.486 1.389 2.822 2.822 0 01-.77.872c-.294.216-.643.38-1.038.484a5.017 5.017 0 01-1.296.155h-.308a.916.916 0 00-.602.229.972.972 0 00-.315.579l-.023.13-.39 2.555-.017.093c-.005.03-.013.045-.025.055a.064.064 0 01-.04.015h-1.903z" fill="#28356A"/><path fill-rule="evenodd" clip-rule="evenodd" d="M21.276 9.075a7.3 7.3 0 01-.04.24c-.523 2.77-2.31 3.727-4.59 3.727h-1.162a.57.57 0 00-.557.494l-.764 5.003a.304.304 0 00.294.355h2.06a.5.5 0 00.49-.431l.02-.108.388-2.545.024-.14a.5.5 0 01.49-.432h.308c1.996 0 3.559-.838 4.015-3.261.191-1.013.092-1.858-.412-2.453a1.978 1.978 0 00-.564-.45z" fill="#298FC2"/><path fill-rule="evenodd" clip-rule="evenodd" d="M20.73 8.85a3.998 3.998 0 00-.509-.117 6.253 6.253 0 00-1.023-.077h-3.104a.48.48 0 00-.214.05.51.51 0 00-.275.382l-.66 4.322-.019.126a.57.57 0 01.558-.494h1.161c2.282 0 4.068-.957 4.59-3.728.015-.082.029-.161.04-.24a2.727 2.727 0 00-.546-.225z" fill="#22284F"/><path fill-rule="evenodd" clip-rule="evenodd" d="M15.605 9.089a.508.508 0 01.276-.382.48.48 0 01.214-.05h3.103c.367 0 .71.024 1.024.077a4.544 4.544 0 01.507.116l.118.037c.154.053.297.116.429.188.155-1.024-.001-1.721-.537-2.353-.59-.695-1.656-.992-3.02-.992H13.76a.572.572 0 00-.56.494l-1.648 10.804a.348.348 0 00.335.406h2.445l1.273-8.345z" fill="#28356A"/></svg>