<svg width="34" height="24" fill="none" xmlns="http://www.w3.org/2000/svg"><rect x=".5" y=".5" width="33" height="23" rx="3.5" fill="#fff" stroke="#D9D9D9"/><path fill-rule="evenodd" clip-rule="evenodd" d="M16.058 15.528v-2.934h1.515c.62 0 1.144-.208 1.571-.618l.103-.104c.78-.85.728-2.173-.103-2.958a2.162 2.162 0 00-1.571-.63H15.14v7.244h.917zm0-3.824v-2.53h1.538c.33 0 .643.127.877.358.495.485.507 1.294.028 1.796a1.19 1.19 0 01-.905.376h-1.538zm7.465-.745c-.393-.364-.928-.549-1.606-.549-.871 0-1.526.323-1.959.965l.809.514c.296-.44.7-.659 1.213-.659.324 0 .637.122.882.341.24.208.376.508.376.826v.214c-.353-.196-.797-.3-1.344-.3-.637 0-1.15.15-1.531.456-.382.306-.575.71-.575 1.225a1.54 1.54 0 00.54 1.213c.36.323.815.485 1.35.485.632 0 1.133-.283 1.515-.85h.04v.688h.876v-3.056c0-.64-.193-1.15-.586-1.513zm-2.488 3.657a.753.753 0 01-.302-.607c0-.271.125-.497.37-.676.25-.179.564-.271.934-.271.512-.006.911.11 1.196.34 0 .393-.154.734-.456 1.023a1.446 1.446 0 01-1.03.433 1.11 1.11 0 01-.712-.242zm5.044 3.09l3.064-7.134h-.997L26.73 14.13h-.017l-1.453-3.558h-.996l2.01 4.639-1.139 2.495h.945z" fill="#3C4043"/><path d="M12.893 11.958c0-.283-.023-.566-.068-.843H8.958v1.6h2.215a1.928 1.928 0 01-.82 1.265v1.04h1.321c.775-.722 1.219-1.79 1.219-3.062z" fill="#4285F4"/><path d="M8.958 16.025c1.105 0 2.039-.37 2.717-1.005l-1.322-1.04c-.37.254-.842.399-1.395.399-1.07 0-1.975-.734-2.3-1.716h-1.36v1.075a4.09 4.09 0 003.66 2.287z" fill="#34A853"/><path d="M6.658 12.663a2.544 2.544 0 010-1.595V10h-1.36a4.177 4.177 0 000 3.731l1.36-1.068z" fill="#FBBC04"/><path d="M8.958 9.353a2.19 2.19 0 011.572.624l1.173-1.19a3.926 3.926 0 00-2.745-1.08A4.092 4.092 0 005.298 10l1.36 1.074c.325-.988 1.23-1.721 2.3-1.721z" fill="#EA4335"/></svg>